<?xml version="1.0" encoding="UTF-8"?>
<svg id="_レイヤー_2" data-name="レイヤー 2" xmlns="http://www.w3.org/2000/svg" width="338.24" height="81.75" viewBox="0 0 338.24 81.75">
  <defs>
    <style>
      .cls-1 {
        fill: #211815;
      }

      .cls-2 {
        fill: #f5f19b;
      }

      .cls-3 {
        fill: #93c9ce;
      }

      .cls-4, .cls-5 {
        fill: #fff;
      }

      .cls-6 {
        fill: #ceeaeb;
      }

      .cls-5 {
        stroke: #ceeaeb;
        stroke-miterlimit: 10;
        stroke-width: 2.83px;
      }
    </style>
  </defs>
  <g id="_レイヤー_1-2" data-name="レイヤー 1">
    <g>
      <path class="cls-5" d="M328.35,1.42H88.98c-4.68,0-8.47,3.79-8.47,8.47v40.63s-9.69,9.69-9.69,9.69h9.69v.5c0,4.68,3.79,8.47,8.47,8.47h239.38c4.68,0,8.47-3.79,8.47-8.47V9.89c0-4.68-3.79-8.47-8.47-8.47Z"/>
      <g>
        <path d="M95.53,17.1c-.76.39-1.05.75-1.15,1.42.13-.03.27-.04.31-.04.6,0,1.05.48,1.05,1.09,0,.66-.46,1.12-1.11,1.12-.79,0-1.26-.58-1.26-1.59,0-.6.18-1.28.44-1.7.25-.39.58-.67,1.12-.97l.6.66ZM98.42,17.1c-.77.39-1.05.75-1.16,1.42.13-.03.27-.04.31-.04.6,0,1.05.48,1.05,1.09,0,.66-.47,1.12-1.11,1.12-.79,0-1.26-.58-1.26-1.54,0-1.29.46-2.12,1.56-2.71l.6.66Z"/>
        <path d="M102.59,26.85c-.6,0-1.05.01-1.54.06.04-.41.06-.9.06-1.7v-3.31c0-.71-.02-1.19-.06-1.62.45.03.77.04,1.5.04h7.3c.84,0,1.17-.02,1.59-.04-.04.46-.06.87-.06,1.63v3.34c0,.79.01,1.32.06,1.65-.46-.05-.92-.06-1.53-.06h-1.07c1.02.57,2.37.93,4.12,1.12-.33.43-.51.75-.78,1.41-1.29-.2-1.92-.36-2.83-.72-.87-.36-1.35-.6-2.11-1.11l.85-.71h-4.03l.9.71c-.71.53-1.16.78-1.96,1.11-.92.38-1.54.55-2.64.76-.18-.51-.41-.84-.87-1.32,1.84-.29,3.13-.71,3.94-1.26h-.84ZM112.25,18.66c0,.54.01.81.06,1.16-.36-.03-.72-.05-1.48-.05h-9.2c-.72,0-1.18.02-1.5.05.04-.36.06-.62.06-1.16v-1.12c0-.55-.02-.81-.06-1.21.41.04.81.06,1.62.06h8.94c.81,0,1.22-.01,1.62-.06-.04.39-.06.66-.06,1.21v1.12ZM103.67,17.61h-2v.93h2v-.93ZM102.67,22.16h7.16v-.63h-7.16v.63ZM102.67,23.87h7.16v-.62h-7.16v.62ZM102.67,25.64h7.16v-.67h-7.16v.67ZM107.12,17.61h-2v.93h2v-.93ZM110.72,18.54v-.93h-2.14v.93h2.14Z"/>
        <path d="M116.41,24.59c.67-.24.95-.33,1.46-.54v-6.38c0-.72-.03-1.09-.09-1.67h1.72c-.08.5-.09.93-.09,1.67v10.17c.72-.42.96-.6,1.54-1.12.66-.6,1.11-1.11,1.59-1.74-1.11-1.83-1.63-3.61-2.04-6.76-.38.01-.5.03-.74.06v-1.62c.47.06.89.09,1.5.09h4.44c.43,0,.78-.01,1.15-.06q-.03.18-.07.54c-.36,3.15-1.11,5.55-2.37,7.71,1.06,1.23,1.77,1.84,3.17,2.7-.39.58-.54.88-.81,1.6-1.29-.87-2.47-1.92-3.3-2.92-.99,1.28-1.93,2.16-3.21,3.01-.18-.51-.38-.82-.85-1.36.01.54.03.84.09,1.25h-1.72c.06-.57.09-.93.09-1.67v-2.01c-.87.36-1.92.75-2.96,1.11-.3.11-.38.13-.66.24l-.3-1.65c.43-.08.58-.12.95-.19v-6.03c0-.72-.03-1.12-.09-1.65h1.68c-.06.51-.08.88-.08,1.65v5.58ZM121.99,18.21c.19,1.49.24,1.68.43,2.49.27,1.15.57,1.98,1.02,2.8.87-1.68,1.31-3.13,1.59-5.29h-3.04Z"/>
        <path d="M130.03,24.95v-.87s.01-.32.01-.92c-.27.34-.57.63-1.06,1.05-.25-.78-.35-.99-.68-1.53,1.41-.99,2.78-2.56,3.25-3.73l1.29.84c-.12.17-.24.36-.39.58q-.03.06-.17.24s-.03.04-.24.36c-.03.03-.13.18-.33.45-.03.04-.09.12-.17.22v5.83c0,.79.02,1.26.06,1.7h-1.68c.06-.42.09-.86.09-1.59v-2.64ZM132.71,16.67c-.29.38-.6.75-.9,1.12-.63.72-1.56,1.51-2.5,2.12-.26-.57-.42-.86-.81-1.33,1.4-.77,2.36-1.7,2.94-2.82l1.27.92ZM137.31,16.47q-.12.15-.38.5c-.38.51-.93,1.19-1.53,1.83.43.38.55.5.87.79,1.21-1.33,1.88-2.16,2.16-2.73l1.47.79c-.11.1-.23.24-.53.62-.72.85-1.96,2.17-2.82,2.95q1.02-.04,2.73-.18c-.25-.36-.36-.5-.75-.99l1.18-.73c.83,1,1.4,1.83,2.22,3.17l-1.3.84c-.31-.58-.39-.75-.62-1.14-1.84.21-2.2.24-3.36.33-.2.38-.25.48-.43.77h2.22c.46,0,.92-.03,1.15-.06l.9.83c-.11.13-.13.17-.24.31-.55.77-1.27,1.52-2.11,2.22,1.12.51,2.37.85,3.84,1.03-.35.6-.48.9-.71,1.56-1.71-.32-3.3-.88-4.49-1.62-1.35.84-2.62,1.33-4.36,1.7-.27-.71-.38-.92-.72-1.4,1.5-.24,2.61-.6,3.81-1.25-.54-.48-.92-.85-1.2-1.21-.57.48-.93.72-1.7,1.14-.4-.66-.48-.75-.96-1.25,1.53-.69,2.67-1.62,3.27-2.66-2.1.12-2.17.13-2.58.2l-.18-1.56c.25.04.52.06.88.06.04,0,.54-.02,1.47-.03.43-.39.66-.62.71-.64-.81-.79-1.33-1.2-2.66-2.13l1.02-1.12c.39.29.48.36.75.55.71-.78,1.33-1.67,1.51-2.14l1.44.66ZM135.46,24.5c.43.55.76.88,1.35,1.29.63-.45.99-.78,1.42-1.29h-2.77Z"/>
        <path d="M148.87,25.59c-.72,1.25-1.71,1.93-2.73,1.93-1.56,0-2.67-1.53-2.67-3.66,0-2.37,1.2-4.41,3.25-5.49,1-.54,2.08-.78,3.51-.78,3.14,0,5.46,2.22,5.46,5.19,0,2.62-1.29,4.51-3.78,5.58-.5.21-.89.33-1.08.33-.18,0-.25-.06-.45-.34-.25-.39-.54-.67-.95-.95,3.09-.79,4.49-2.25,4.49-4.68,0-1.25-.53-2.29-1.46-2.96-.53-.36-.95-.51-1.77-.64-.42,3.17-.92,4.89-1.83,6.46ZM146.71,20.28c-1,.88-1.58,2.14-1.58,3.55,0,1.16.38,1.83,1,1.83.75,0,1.52-1.04,2.08-2.82.36-1.12.54-1.98.77-3.64-1.07.22-1.59.48-2.28,1.08Z"/>
        <path d="M169.82,20.96q-.1.24-.31.76c-.63,1.54-1.21,2.61-1.95,3.6.27.5.57.92.87,1.23.24.27.55.52.64.52.06,0,.12-.09.18-.27q.12-.33.28-1.7c.48.48.68.63,1.29.98-.33,1.95-.82,2.79-1.62,2.79-.74,0-1.89-.98-2.71-2.33-1.07,1.06-2.19,1.89-3.48,2.54-.43-.66-.6-.86-1.09-1.26,1.51-.61,2.76-1.47,3.87-2.65-.6-1.5-.93-3.22-1.08-5.73h-4.47q-.02,1.42-.02,1.89h2.64c.52,0,.72-.02,1.02-.04-.03.3-.04.63-.08,1.21-.13,2.54-.24,3.36-.48,3.96-.23.57-.75.79-1.84.79-.38,0-.63-.02-1.11-.06-.06-.61-.15-.97-.36-1.51.78.11.99.12,1.4.12.43,0,.57-.09.64-.43.11-.51.18-1.46.21-2.62h-2.1c-.09,1.53-.23,2.64-.45,3.61-.25,1.14-.54,1.82-1.18,2.8-.45-.58-.72-.84-1.25-1.21.51-.79.79-1.46.99-2.28.28-1.23.43-3.12.43-5.68,0-1.08-.01-1.47-.08-2.04.51.04,1.09.07,1.84.07h4.17l-.03-1.26c-.02-.34-.03-.48-.08-.76h1.72c-.06.3-.09.88-.09,1.37v.66h1.91c-.41-.54-.69-.82-1.28-1.32l1.12-.71c.66.57.9.81,1.46,1.5l-.76.52h.43c.78,0,1.16-.01,1.53-.07v1.57c-.48-.04-1.02-.07-1.75-.07h-2.6c.14,1.95.33,3.21.66,4.29.74-1.18,1.21-2.35,1.38-3.36l1.54.58Z"/>
        <path d="M183.71,24.45c-.14.1-.21.18-.83.72-.36.33-.78.63-1.37,1,1.21.63,2.4,1.04,3.76,1.27-.34.56-.51.93-.76,1.65-2.16-.55-3.76-1.32-5.17-2.5-1.04-.88-1.62-1.62-2.19-2.85h-1.26v3.27c1.31-.29,1.88-.45,2.88-.78l.03,1.44c-1.58.52-3.13.92-5.64,1.38-.34.08-.39.08-.66.13l-.3-1.6c.48,0,1.11-.08,2.05-.25v-3.58h-.78c-.62,0-.98.01-1.47.08v-1.53c.3.04.86.08,1.5.08h.75v-4.53c0-.79-.01-1.02-.06-1.42.45.04.84.06,1.58.06h6.43c.84,0,1.25-.01,1.68-.07v1.51c-.46-.04-.81-.06-1.67-.06h-6.3v.71h6.09c.58,0,1-.01,1.32-.06v1.29c-.3-.03-.95-.06-1.32-.06h-6.09v.71h6.09c.58,0,1.05-.03,1.32-.06v1.3c-.39-.04-.75-.06-1.32-.06h-6.09v.75h7.67c.63,0,1.04-.03,1.42-.08v1.53c-.38-.05-.78-.08-1.3-.08h-1.35l1.35.71ZM178.77,23.75c.42.75.79,1.15,1.5,1.67.72-.48,1.54-1.19,1.94-1.67h-3.44Z"/>
        <path d="M196.79,18.8c.88,0,1.33-.01,1.86-.08-.06.53-.06.67-.08,1.25-.06,3.55-.21,5.87-.49,7.18-.27,1.23-.87,1.63-2.4,1.63-.64,0-1.29-.04-2.19-.16-.09-.72-.2-1.16-.41-1.76.93.21,1.74.3,2.47.3.66,0,.88-.25,1.05-1.23.18-1.06.32-3.27.33-5.61h-3.9c-.13,1.08-.15,1.2-.29,1.81-.46,2.27-1.23,3.69-2.66,5.03-.76.71-1.44,1.2-2.53,1.8-.32-.6-.68-1.07-1.19-1.5,1.98-.86,3.29-2.01,4.07-3.58.43-.87.72-2.01.9-3.55h-2.49c-.73,0-1.32.03-1.8.09v-1.71c.53.06.99.09,1.83.09h2.57c.03-.57.03-.72.03-1.47,0-.66-.03-1.08-.09-1.38h1.92q-.08.36-.17,2.85h3.65Z"/>
        <path d="M200.81,20.13c.77-.39,1.07-.75,1.16-1.42-.13.03-.25.04-.3.04-.6,0-1.07-.48-1.07-1.09,0-.66.47-1.12,1.11-1.12.79,0,1.26.57,1.26,1.54,0,1.29-.46,2.12-1.56,2.71l-.6-.66ZM203.71,20.13c.76-.39,1.06-.75,1.16-1.42-.14.03-.26.04-.3.04-.6,0-1.06-.48-1.06-1.09,0-.66.46-1.12,1.11-1.12.79,0,1.26.57,1.26,1.54,0,1.29-.47,2.12-1.56,2.71l-.6-.66Z"/>
        <path d="M220.2,21.56q-.03-.73-.04-1.67c-.13.02-.27.02-.33.02-.99,0-2.26-.11-2.79-.24-.15-.04-.18-.08-.18-.22,0-.33.04-.74.15-1.32.84.17,1.88.27,2.77.27.08,0,.21,0,.38-.01v-.99c0-.52-.01-.76-.04-1.29.75.05,1.26.09,1.62.18.3.06.39.13.39.3,0,.08-.01.1-.12.34-.1.25-.12.32-.18,1.35.9-.11,1.62-.26,2.33-.47.04-.01.06-.01.08-.01.1,0,.1.01.27.5.11.31.21.71.21.83,0,.1-.04.17-.2.21-.49.17-1.78.39-2.73.5,0,1.06,0,1.11.01,1.63,1.05-.14,1.62-.29,2.81-.72.07-.03.1-.04.15-.04.09,0,.12.04.27.41.15.38.29.79.29.95,0,.08-.06.13-.17.18-.83.3-2.33.66-3.27.76.03.57.06.89.15,2.06.84.25,1.18.39,1.83.73.72.36,1.11.62,1.75,1.12.12.09.17.17.17.29,0,.11-.14.36-.42.81-.33.5-.5.69-.6.69-.04,0-.09-.01-.13-.06-.9-.86-1.49-1.28-2.49-1.77-.06.72-.22,1.12-.63,1.5-.51.5-1.36.76-2.43.76-1.84,0-2.98-.81-2.98-2.11,0-.57.24-1.12.64-1.5.58-.54,1.47-.83,2.59-.83.36,0,.67.03,1.05.08-.07-.98-.1-1.32-.12-1.63-.34.01-.54.01-.72.01-1.04,0-2.29-.17-3-.38-.15-.04-.21-.12-.21-.24,0-.22.09-.71.23-1.32.93.22,2.11.36,3.22.36h.43ZM219.17,26.13c-.96,0-1.49.29-1.49.79,0,.45.43.69,1.28.69.97,0,1.42-.34,1.42-1.09v-.25c-.39-.1-.69-.13-1.21-.13Z"/>
        <path d="M231.47,20.09c-.39.09-.53.13-1.07.33-.19.08-.3.1-.39.1-.33,0-.63-.61-.9-1.9.96-.04,1.31-.09,2.97-.34,1.8-.27,4.08-.62,5.28-.77,1.35-.18,2.43-.36,3-.48.1-.03.15-.03.22-.03.2,0,.27.09.41.46.12.32.21.76.21.97,0,.18-.06.24-.27.24-.32,0-.6.03-.89.08-2.53.42-4.56,2.64-4.56,4.98,0,1.75,1.38,2.91,3.72,3.12.21.01.29.09.29.27,0,.38-.15,1.09-.29,1.42-.08.17-.19.24-.39.24s-.65-.09-1.11-.22c-2.55-.75-3.88-2.37-3.88-4.67,0-1.25.41-2.4,1.19-3.39.42-.54.78-.84,1.63-1.42-1.96.33-4.04.72-5.17,1ZM239.15,20.48c.21,0,1.48,1.43,1.48,1.65,0,.08-.09.17-.36.41-.29.24-.3.24-.42.28q-.08.03-.11.03c-.06,0-.08-.01-.34-.43-.24-.38-.5-.71-.97-1.2-.03-.03-.08-.11-.08-.12.03-.08.04-.12.06-.12.04-.06.3-.27.36-.31.15-.08.24-.14.25-.15.01-.03.04-.03.04-.03h.08ZM241.71,21.51c-.22.17-.36.25-.43.25-.06,0-.09-.03-.17-.15-.45-.67-.67-.96-1.16-1.42-.03-.05-.06-.09-.06-.12,0-.08.09-.17.3-.32.21-.15.39-.24.46-.24.11,0,.29.14.6.45.44.45.84,1,.84,1.14,0,.09-.11.2-.39.41Z"/>
        <path d="M246.64,24.99c-.67,0-1.2.01-1.56.04.04-.42.08-.89.08-1.53v-5.25c0-.78-.03-1.42-.08-1.79.42.04.87.06,1.52.06h6.64c.63,0,1.09-.02,1.51-.06-.04.32-.08.98-.08,1.79v5.25c0,.72.02,1.11.08,1.53-.38-.03-.96-.04-1.53-.04h-1.24v2.22c0,.4.12.45,1.29.45,1.08,0,1.36-.06,1.53-.3.15-.21.23-.78.25-1.84.6.32.96.46,1.5.6-.15,1.61-.29,2.15-.66,2.49-.4.36-1.02.48-2.62.48-2.42,0-2.85-.2-2.85-1.28v-2.82h-1.29c-.17,1.09-.63,1.99-1.36,2.67-.92.84-2,1.36-3.65,1.74-.24-.6-.42-.9-.84-1.42,1.37-.24,2.12-.5,2.82-.96.76-.5,1.18-1.12,1.36-2.02h-.82ZM246.66,18.92h6.5v-.95h-6.5v.95ZM246.66,21.21h6.5v-.95h-6.5v.95ZM246.66,23.6h6.5v-1.04h-6.5v1.04Z"/>
        <path d="M261.98,22.19q-.2.42-.48,1.25c-.42-.66-.6-1-.78-1.54,0,.12.01.23.01.29.04.55.06.87.06,1.41v3.97c0,.76.01,1.28.07,1.68h-1.6c.08-.46.1-1.05.1-1.77v-2.94c0-.43.02-1.02.08-1.77-.3,1.12-.72,2.17-1.23,3.03-.23-.57-.46-.96-.84-1.4.49-.71.76-1.18,1.17-2.19.28-.72.54-1.58.7-2.36h-.46c-.36,0-.64.02-.96.08v-1.53c.27.04.56.06.96.06h.57v-1.07c0-.75-.03-1.12-.09-1.48h1.6c-.06.4-.07.81-.07,1.48v1.07c.4,0,.6-.02.87-.04v1.51c-.12-.06-.27-.08-.85-.08.33.96.57,1.4,1.17,2.16v-1.59c0-.24-.01-.43-.04-.67.27.01.46.03.75.03h1c.29-.48.72-1.41.92-1.95h-1.4c-.69,0-1.24.03-1.63.08v-1.52c.41.06.92.09,1.65.09h5.97c.79,0,1.26-.03,1.67-.09v1.52c-.44-.05-.98-.08-1.67-.08h-3.01c-.2.48-.29.66-.48,1.09h.39c.6,0,.83-.01,1.04-.04q-.03.43-.08,2.22c-.06,2.12-.21,3.74-.4,4.65.78-.65,1.03-.93,1.5-1.7-.38-.75-.57-1.29-.98-2.64l1.07-.66c.27,1,.42,1.46.61,1.89.23-.71.33-1.16.45-2.02h-1.21c-.31,0-.48.01-.71.04v-1.41c.29.04.53.06,1.02.06h1.02c.32,0,.58-.01.79-.04l.57.77c-.57,2.58-.71,3.04-1.17,4,.51.69.69.88,1.54,1.57-.38.41-.58.77-.76,1.29-.69-.62-1.07-1-1.5-1.62-.54.78-.69.95-1.47,1.67-.22-.46-.4-.72-.81-1.14-.17.64-.32.9-.64,1.08-.23.13-.54.18-1.12.18q-.27,0-.95-.04c-.08-.63-.13-.9-.34-1.39.66.12,1.02.17,1.32.17.44,0,.46-.06.62-1.25.17-1.23.22-2.38.24-4.37h-.81v4.49c0,.24,0,.28.03.64-.3-.01-.5-.03-.71-.03h-1.6c-.32,0-.51.02-.71.04.03-.34.04-.52.04-1.09v-2.04ZM261.33,27.27c.42.06.87.09,1.58.09h6.42c.74,0,1.25-.03,1.63-.09v1.53c-.45-.04-.96-.08-1.67-.08h-6.42c-.7,0-1.11.01-1.54.08v-1.53ZM263.11,24.03h.71v-3.03h-.71v3.03Z"/>
        <path d="M279.17,19.25c.23-1.23.3-1.75.3-2.25,0-.06,0-.15-.01-.25,1.26.18,1.98.46,1.98.79,0,.12-.02.13-.18.43-.12.21-.22.57-.43,1.37,1.02.18,1.88.63,2.55,1.3.83.83,1.23,1.85,1.23,3.09,0,2.08-1.14,3.71-3.16,4.53-.41.17-1.2.38-1.4.38-.12,0-.2-.06-.3-.21-.24-.39-.6-.78-1.04-1.09,1.51-.26,2.24-.53,2.99-1.14.79-.64,1.2-1.48,1.2-2.5,0-1.51-.97-2.74-2.41-3.03-.5,1.56-1.04,2.8-1.7,3.94.22.23.36.36.6.58.17.15.23.24.23.34,0,.26-.84,1.08-1.08,1.08-.12,0-.32-.13-.75-.57-.92,1.09-1.82,1.63-2.71,1.63-1.25,0-2.07-1.05-2.07-2.66,0-1.44.6-2.77,1.75-3.9-.21-.54-.24-.67-.57-1.71-.12-.39-.25-.81-.44-1.25.54-.12,1.25-.22,1.61-.22.15,0,.24.04.28.15q.05.08.06.44c.01.31.15.88.38,1.57.97-.55,2.07-.87,3.1-.85ZM275.39,22.61c-.56.74-.86,1.52-.86,2.22s.29,1.12.72,1.12c.46,0,.9-.32,1.51-1.07-.55-.74-.93-1.37-1.38-2.28ZM278.83,20.6c-.83.12-1.47.36-2.23.87.39.78.69,1.29,1.15,1.91.51-.99.81-1.75,1.08-2.78Z"/>
        <path d="M294.83,21.24c2.12,0,3.62,1.44,3.62,3.48,0,1.39-.74,2.66-1.96,3.39-.86.51-1.91.77-3.09.77-1.91,0-3.02-.77-3.02-2.07,0-1.18.99-2.02,2.4-2.02,1.27,0,2.19.64,2.8,1.96.76-.56,1.08-1.14,1.08-1.95,0-1.29-.92-2.13-2.36-2.13s-3.04.73-4.35,2.04c-.24.24-.46.5-.73.84-.11.15-.18.21-.27.21-.27,0-1.33-1.05-1.33-1.32,0-.13.06-.21.39-.45.34-.27.84-.7,1.47-1.3,1.46-1.38,2.52-2.54,4.09-4.46-1.88.24-3.13.45-3.6.62-.08.02-.12.03-.17.03-.12,0-.2-.08-.29-.3-.18-.45-.27-.95-.32-1.61.41.06.69.08,1.02.08.72,0,1.93-.1,3.51-.29.55-.06.73-.1,1.15-.27.14-.06.21-.08.3-.08.21,0,.42.18.81.78.29.39.38.58.38.71,0,.19-.04.25-.38.46-.27.17-.43.3-.78.63-.75.72-.76.72-1.69,1.67-.66.67-.74.75-1.33,1.35.97-.54,1.74-.76,2.64-.76ZM293.39,26.43c-.23-.15-.48-.22-.77-.22-.46,0-.76.22-.76.58,0,.43.46.71,1.18.71.33,0,.62-.03.99-.14-.18-.5-.33-.72-.64-.93Z"/>
        <path d="M308.27,26.31c1.23,0,2.59-.18,3.94-.52.08-.03.12-.03.17-.03.09,0,.13.06.17.2.04.33.08.81.08,1.3,0,.3-.03.39-.17.45-.45.24-2.47.46-4.21.46-2.26,0-3.55-.38-4.59-1.35-.5-.46-.99-1.27-.99-1.6,0-.22.13-.32,1.37-1.02.54,1.49,1.79,2.12,4.25,2.12ZM308.41,17.69c.87,0,1.38-.03,2.4-.18h.11c.12,0,.17.04.2.13.03.18.06.63.06,1.17,0,.35-.03.47-.12.53-.12.08-1.42.17-2.43.17-1.33,0-2.45-.11-3.69-.34-.85-.17-.9-.21-.9-.74,0-.34.03-.92.08-1.33,1.3.41,2.73.6,4.3.6Z"/>
        <path d="M98.17,46.5c-.19-.66-.25-1.07-.43-2.91-.06-.72-.12-1.08-.27-1.59.91.01,1.5.06,1.9.17.23.06.33.17.33.33,0,.06-.01.13-.04.25-.1.36-.15.63-.15,1.02,0,.74.15,1.94.32,2.46.09.29.18.39.34.39.36,0,1.68-.69,2.4-1.24.19-.15.22-.17.3-.17.13,0,.27.1.5.39.38.51.67,1.07.67,1.28,0,.17-.11.27-.36.34-.93.25-2.46.85-3.49,1.35-1.83.9-2.66,1.73-2.66,2.66s.76,1.29,2.7,1.29c1.12,0,2.14-.11,3.52-.33.06-.02.17-.03.2-.03.12,0,.19.06.25.18.04.15.15,1.07.15,1.43,0,.21-.06.28-.26.34-.33.08-2.14.18-3.28.18-1.92,0-3.2-.25-3.99-.79-.67-.46-1.04-1.2-1.04-2.1,0-.69.2-1.31.6-1.91.52-.78,1.09-1.27,2.35-2.02-.31-.29-.43-.5-.57-.96Z"/>
        <path d="M109.52,47.39c-.12.03-.18.06-.27.1-.08.04-.12.06-.18.06-.33,0-.57-.57-.75-1.68h.29c.63,0,2.24-.19,3.2-.39.31-1.3.48-2.31.48-3.01,0-.06,0-.15-.01-.25.64.06,1.26.19,1.68.38.24.09.36.21.36.36,0,.08-.02.14-.09.26q-.23.39-.69,2.04c.36-.04.76-.07,1.02-.07.62,0,1.1.12,1.44.36.6.44.9,1.32.9,2.69,0,2.23-.41,4.15-1.1,5.1-.48.66-1.11.97-2,.97-.54,0-1.05-.08-1.2-.17q-.12-.08-.17-.63c-.04-.41-.13-.76-.32-1.18.78.27.98.31,1.46.31.72,0,1.02-.34,1.35-1.56.23-.79.35-1.82.35-2.92,0-1.17-.29-1.59-1.08-1.59-.27,0-.71.04-1.05.09-.04.18-.06.19-.12.39-.42,1.54-1.19,3.55-1.95,5.17-.79,1.63-.99,1.96-1.18,1.96-.12,0-.53-.21-.96-.5-.35-.21-.44-.3-.44-.42q0-.07.62-1.05c.83-1.27,1.91-3.76,2.28-5.25-1.11.25-1.73.39-1.86.44ZM118.94,44.31c-.24.18-.41.25-.48.25-.04,0-.09-.03-.13-.1-.32-.51-.84-1.1-1.28-1.47-.03-.03-.04-.06-.04-.09,0-.06.11-.17.36-.36.25-.18.33-.23.43-.23.24,0,1.56,1.33,1.56,1.58,0,.09-.12.2-.42.42ZM117.35,45.9c0-.1.13-.24.57-.58.3-.22.45-.31.57-.31.2,0,.87.72,1.5,1.6.52.75,1.09,1.82,1.09,2.07,0,.15-.04.19-.52.58-.3.24-.65.43-.77.43-.1,0-.15-.04-.25-.3-.29-.72-.54-1.21-.95-1.86-.4-.64-.43-.67-1.15-1.45-.06-.08-.09-.12-.09-.18ZM119.32,41.3c.25,0,1.53,1.27,1.53,1.53,0,.07-.09.16-.39.38-.27.21-.41.28-.46.28q-.08,0-.38-.42c-.25-.34-.74-.85-1-1.08-.04-.04-.08-.07-.08-.12,0-.12.62-.57.78-.57Z"/>
        <path d="M129.95,46.47c.34,1.29,1.11,2.68,2.07,3.76,1.06,1.23,2.26,2.04,3.97,2.75-.5.57-.69.88-1.05,1.65-2.85-1.45-4.65-3.37-5.73-6.12-.43,1.47-1.2,2.73-2.35,3.85-.97.97-2.01,1.65-3.43,2.28-.24-.56-.54-1-1-1.52,1.75-.7,3-1.56,3.93-2.68.9-1.09,1.38-2.25,1.63-3.97h-3.39c-.92,0-1.33.01-1.82.09v-1.8c.45.06.98.09,1.82.09h3.54c.03-.66.04-1,.04-1.58,0-.72-.03-1.15-.11-1.57h1.91c-.08.51-.09.7-.11,1.69,0,.62-.01.95-.03,1.46h3.81c.81,0,1.33-.03,1.81-.09v1.8c-.55-.06-1-.09-1.8-.09h-3.72Z"/>
        <path d="M137.95,46.92c-.43.09-.73.17-1.11.27l-.12-1.56c.3,0,.61-.04,1.08-.15l.57-.12v-2.37c0-.69-.01-.99-.08-1.38h1.68c-.04.35-.06.63-.06,1.28v2.16l2.01-.42c.41-.09.77-.18,1.01-.27l.1,1.56c-.27.03-.63.07-1.05.17l-2.07.43v3.63c0,.31.06.36.44.36.48,0,.73-.11.84-.33.1-.25.18-1,.21-2.15.42.24.95.44,1.41.56-.11,1.84-.3,2.49-.83,2.92-.39.33-1,.46-2.07.46-1.23,0-1.54-.27-1.54-1.33v-3.81l-.42.09ZM143.14,43.82c-.53,0-.89.02-1.19.06v-1.58c.42.04,1.08.08,1.86.08h4.68c.67,0,1.06-.02,1.48-.06-.06.87-.06.9-.17,4.21-.12,3.3-.4,5.7-.81,6.75-.3.75-.96,1.09-2.13,1.09-.32,0-1.05-.03-1.44-.04-.06-.66-.15-1.06-.36-1.6.69.1,1.21.17,1.56.17.86,0,.98-.15,1.21-1.49.17-.93.29-2.13.38-3.51q.06-1.17.11-4.08h-2.13c-.11,3.03-.3,4.33-.83,5.94-.41,1.26-.99,2.29-1.88,3.33-.54.63-.97,1-1.89,1.61-.42-.53-.58-.67-1.28-1.19,1.2-.64,2-1.33,2.64-2.29.84-1.26,1.3-2.77,1.5-4.8.07-.81.09-1.08.13-2.59h-1.47Z"/>
        <path d="M153.25,45.93c-.27.01-.43.03-.61.04-.14.01-.15.01-.17.01-.12,0-.18-.04-.23-.19-.08-.24-.18-1.04-.19-1.49.17.01.6.03,1.14.03.17,0,1.35-.08,1.88-.12.25-1.21.34-1.84.34-2.66,1.54.21,2.1.39,2.1.68,0,.1-.01.13-.24.48-.12.18-.17.34-.42,1.28.7-.12,1.12-.23,1.68-.41.1-.03.15-.04.22-.04.11,0,.13.08.23.51.07.38.12.69.12.85,0,.18-.04.21-.43.3-.51.12-1.38.27-2.31.39-.56,1.68-.93,2.58-1.62,3.99-.53,1.05-.83,1.6-1.23,2.23-.12.18-.19.24-.3.24-.15,0-.57-.22-1.09-.62-.24-.17-.3-.24-.3-.34s.06-.2.25-.46c.43-.54,1-1.47,1.5-2.46.42-.83.57-1.17,1-2.36-.58.04-.63.06-1.32.11ZM158.18,54.57c-1.64,0-2.75-.9-2.75-2.24s1.15-2.41,2.7-2.41c.36,0,.53.01,1.14.1-.06-.72-.06-1-.12-2.4,0-.29-.03-.68-.06-1.16.77.08,1.35.17,1.64.29.12.04.18.12.18.24,0,.08-.01.14-.03.24-.08.32-.09.54-.09.95,0,.55.04,1.5.09,2.23,1.07.48,1.5.72,2.25,1.31.33.25.45.39.45.51,0,.15-.08.29-.5.96-.18.3-.31.43-.42.43q-.09,0-.51-.39c-.33-.33-.71-.58-1.23-.9,0,1.4-1.02,2.24-2.74,2.24ZM158.15,51.36c-.72,0-1.21.34-1.21.87,0,.5.45.81,1.12.81.79,0,1.21-.4,1.21-1.2,0-.12,0-.24-.02-.24-.3-.15-.7-.24-1.11-.24ZM163.76,47.1c-.18.25-.27.33-.38.33-.08,0-.13-.03-.24-.13-.38-.36-.9-.75-1.46-1.1q-.36-.22-1.02-.52c-.21-.09-.29-.15-.29-.27,0-.1.08-.24.3-.58.36-.52.45-.61.58-.61.28,0,1.39.57,2.19,1.11.65.44.84.62.84.78,0,.12-.24.57-.54,1Z"/>
        <path d="M173,42.47c.18.12.25.21.25.31s-.01.12-.24.38c-.08.09-.3.42-.54.83q-.75,1.25-1.16,1.96c-.42.71-.69,1.19-.84,1.41q-.04.08-.25.45c-.2.34-.32.52-.53.81.97-.85,1.5-1.08,2.49-1.08.66,0,1.25.29,1.62.78.31.42.4.81.54,2.28.07.88.15,1.27.25,1.5.1.21.31.33.58.33,1.03,0,2.26-1.25,2.86-2.88.15.63.27.93.58,1.48.11.18.14.3.14.45,0,.17-.08.38-.26.66-.78,1.26-2.05,2.01-3.42,2.01-.86,0-1.58-.3-1.95-.79-.3-.42-.44-.98-.56-2.45-.07-.96-.15-1.29-.36-1.53-.17-.18-.41-.27-.74-.27-.99,0-2.29,1.33-3.06,3.11-.22.51-.38.97-.54,1.54-.06.22-.13.31-.24.31-.31,0-1.04-.3-1.42-.58-.1-.09-.15-.15-.15-.24,0-.07.03-.15.22-.57.12-.27.17-.35.27-.62q1.11-2.59,4.19-8.82c.34-.69.51-1.12.61-1.58.78.29,1.14.46,1.62.79Z"/>
        <path d="M181.42,46.49h-.09c-.08.02-.13.02-.17.02-.13,0-.21-.06-.25-.26-.09-.38-.15-.82-.18-1.41.21.01.38.01.48.01.81,0,1.75-.06,2.55-.17.15-.99.23-1.74.23-2.37v-.34c1.74.24,2.07.33,2.05.6,0,.08-.03.12-.09.26-.18.34-.2.39-.44,1.57.58-.1,1.33-.3,1.64-.4.06-.03.07-.03.12-.03.13,0,.16.06.28.58.06.3.12.72.12.84,0,.11-.04.17-.18.2q-.27.09-2.33.45c-.69,3.06-1.41,5.29-2.56,8-.08.2-.15.27-.24.27-.2,0-.72-.21-1.23-.49-.26-.14-.33-.2-.33-.29,0-.06.04-.17.12-.32,1.14-2.16,1.96-4.46,2.53-6.91-.66.07-1.12.12-2.04.19ZM187.82,52.19c.43.29,1.06.42,1.95.42.97,0,1.81-.09,2.29-.24.12-.03.15-.04.21-.04.13,0,.19.04.24.18.11.32.18.93.18,1.4,0,.19-.06.27-.25.31-.5.11-1.33.17-2.22.17-1.88,0-2.92-.3-3.61-1.02-.25-.27-.46-.6-.58-.98-.09-.22-.15-.48-.15-.57,0-.25.45-.53,1.23-.78.17.63.34.92.72,1.16ZM192.04,47.82c-.3-.04-.93-.08-1.46-.08-1.11,0-1.58.04-2.89.27-.03.01-.08.01-.11.01-.09,0-.13-.03-.17-.12-.04-.1-.1-.84-.1-1.15,0-.2.03-.29.15-.33.06-.03.15-.04.46-.11,1.02-.18,1.88-.25,2.92-.25.87,0,1.32.03,1.43.11.07.06.09.18.09.67,0,.43-.03.83-.06.92-.01.04-.08.08-.15.08-.03,0-.08,0-.12-.02ZM190.39,42.54c.2,0,1.47,1.42,1.47,1.65,0,.06-.1.2-.22.29-.06.04-.15.12-.25.21-.13.12-.18.15-.33.21t-.08.03c-.06,0-.06-.02-.34-.45-.25-.39-.74-.99-.99-1.21-.03-.03-.08-.09-.08-.11.03-.06.05-.09.05-.09.07-.09.33-.3.39-.34.15-.08.24-.13.25-.15.01-.03.03-.03.04-.03h.09ZM192.92,43.59c-.21.15-.36.24-.43.24-.06,0-.09-.03-.17-.15-.33-.54-.65-.93-1.14-1.42-.04-.04-.06-.08-.06-.12,0-.13.57-.55.76-.55.11,0,.29.15.62.5.48.49.83.94.83,1.09,0,.09-.11.19-.41.42Z"/>
        <path d="M197.63,46.08c-1.06.18-1.3.22-1.56.3-.15.04-.27.06-.36.06-.27,0-.4-.48-.46-1.65.87,0,1.35-.04,2.42-.24,0-.48.01-1.04.01-1.23,0-.58-.03-1.09-.09-1.47,1.58.08,2.04.18,2.04.46q0,.08-.13.39t-.2,1.62c.48.38.74.68.72.87,0,.04-.03.08-.09.14-.22.19-.25.22-.52.61q-.06.08-.15.2l-.06.09c0,.23,0,.25-.02.54.45-.51.87-.93,1.28-1.26,1.32-1.08,2.31-1.53,3.39-1.53s1.77.44,2.29,1.33c.45.78.69,1.88.69,3.17,0,.78-.06,1.38-.23,2.5.72.51,1.5,1.3,1.5,1.51,0,.24-.84,1.08-1.09,1.08-.11,0-.12-.01-.32-.31-.12-.17-.28-.36-.61-.72-.21.39-.33.56-.54.75-.56.51-1.3.78-2.19.78-1.56,0-2.56-.79-2.56-2,0-1.27,1.04-2.23,2.4-2.23.78,0,1.35.1,1.86.33.06-.56.08-.83.08-1.31,0-2.37-.45-3.3-1.59-3.3-.81,0-1.89.57-3.03,1.59-.41.38-.72.69-1.37,1.4v.87c0,1.99.04,4,.11,4.53v.06c0,.27-.21.34-.93.34-.66,0-.79-.06-.79-.34v-.12c.03-.44.04-.96.04-1.62q0-.99.01-2.17s-.03.04-.06.08c-.33.4-.87,1.14-1.22,1.63-.17.24-.25.31-.36.31-.15,0-.42-.27-.88-.87-.18-.23-.29-.42-.29-.5s.08-.17.45-.5c.27-.25,1.29-1.5,1.81-2.19.27-.38.46-.64.58-.84v-1.15ZM203.38,51.23c-.69,0-1.11.29-1.11.75s.32.69.89.69c.5,0,.9-.15,1.17-.45.13-.14.34-.51.34-.57v-.02c-.51-.31-.81-.4-1.29-.4Z"/>
        <path d="M217.09,53.22c0,.66-.53,1.18-1.18,1.18s-1.19-.53-1.19-1.18.53-1.19,1.19-1.19,1.18.53,1.18,1.19ZM216.56,51h-1.33l-.41-8.98h2.16l-.42,8.98Z"/>
      </g>
      <circle class="cls-6" cx="30" cy="51.75" r="30"/>
      <g>
        <path class="cls-4" d="M39.12,40.72c5.99-4.81,10.66-4.4,11.63-2.77.89,1.5-.2,9.39-9.11,4.98"/>
        <path class="cls-3" d="M43.36,43.3c2.15-3.69,6.52-2.97,7.64-2.44-1.95,3.62-3.96,4.96-7.64,2.44Z"/>
        <path class="cls-1" d="M46.36,44.87c-1.31,0-2.94-.38-4.99-1.39-.3-.15-.42-.51-.28-.82.15-.3.52-.42.82-.28,3.32,1.64,5.84,1.68,7.29.12,1.3-1.4,1.35-3.69,1.02-4.24-.21-.35-.72-.62-1.4-.75-.91-.16-4.27-.39-9.33,3.68-.26.21-.65.17-.86-.09-.21-.26-.17-.65.09-.86,3.68-2.96,7.53-4.43,10.31-3.92,1.04.19,1.83.66,2.23,1.32.64,1.09.43,3.95-1.18,5.69-.75.81-1.93,1.54-3.74,1.54Z"/>
        <path class="cls-4" d="M44.61,54.95c1.64-16.82-17.11-22.8-25.64-13.47-2.97,3.25-5.19,9.02-4.06,15.77-3.29,3.25-2.73,7.92,2.42,10.46,3.1,1.53,6.19,2.19,13.34,2.19,6.63,0,14.3-2.8,16.45-6.93,1.2-2.31.78-5.72-2.5-8.03Z"/>
        <path class="cls-2" d="M34.39,37.32c-.6-4.19-4.15-6.52-4.34-.47"/>
        <path class="cls-2" d="M22.7,38.38c-.51-4.2,2.31-7.38,4.07-1.58"/>
        <path class="cls-4" d="M18.25,41.44c-6.66-3.82-11.21-2.69-11.91-.92-.65,1.62,2.36,9.82,10.47,4.08"/>
        <ellipse class="cls-1" cx="33.87" cy="56.89" rx="1.44" ry="1.56" transform="translate(-8.44 5.96) rotate(-8.95)"/>
        <path class="cls-3" d="M14.98,45.26c-2.15-3.69-7.03-2.78-8.16-2.25,1.95,3.62,4.47,4.77,8.16,2.25Z"/>
        <path class="cls-3" d="M27.8,36.84c1.23,7.46-2.33,14.45-12.53,14.45,0-11.42,12.53-14.45,12.53-14.45Z"/>
        <path class="cls-3" d="M30.05,36.85c0,8.41,6.81,12.72,13.84,13.25,0-11.42-13.84-13.25-13.84-13.25Z"/>
        <path class="cls-3" d="M13.83,63.71c13.81-6.39,25.45-3.61,33.28-.74-3.13,7.57-29.25,10.15-33.28.74Z"/>
        <path class="cls-1" d="M30.66,70.52c-7.59,0-10.64-.79-13.61-2.26-2.68-1.33-4.37-3.31-4.74-5.59-.32-1.98.37-3.96,1.94-5.63-1.1-7.13,1.47-12.92,4.26-15.97,4.25-4.65,11.25-5.93,17.42-3.18,3.01,1.34,5.47,3.51,7.11,6.28,1.79,3.02,2.53,6.54,2.2,10.49,3.38,2.56,3.63,6.22,2.4,8.6-2.36,4.54-10.49,7.26-16.99,7.26ZM29.29,37.67c-3.76,0-7.35,1.46-9.87,4.22-2.64,2.89-5.06,8.42-3.91,15.26.03.2-.03.39-.17.53-1.44,1.42-2.08,3.13-1.81,4.79.3,1.88,1.75,3.54,4.07,4.69,2.8,1.38,5.71,2.13,13.07,2.13,6.88,0,14.01-2.96,15.91-6.6,1.03-1.98.75-5.1-2.31-7.25-.18-.13-.28-.34-.26-.56.71-7.25-2.49-13.19-8.56-15.89-2.01-.89-4.11-1.33-6.15-1.33Z"/>
        <path class="cls-1" d="M30.3,67c-1.88,0-3.48-.99-4.4-2.72l-.45.09c-.33.07-.65-.14-.72-.47-.07-.33.14-.65.47-.72l.91-.19c.28-.06.57.09.68.35.73,1.67,2.12,2.55,3.82,2.43,1.72-.13,3.25-1.27,3.64-2.72.07-.28.34-.46.62-.45l.77.04c.34.02.59.3.58.64-.02.34-.31.59-.64.58l-.31-.02c-.69,1.72-2.5,2.99-4.57,3.14-.14.01-.27.02-.41.02Z"/>
        <ellipse class="cls-1" cx="33.87" cy="56.89" rx="1.44" ry="1.56" transform="translate(-8.44 5.96) rotate(-8.95)"/>
        <ellipse class="cls-1" cx="26.2" cy="57.25" rx="1.56" ry="1.44" transform="translate(-32.3 80.52) rotate(-87.1)"/>
        <path class="cls-1" d="M11.6,47.23c-1.46,0-2.58-.54-3.4-1.18-2.09-1.64-2.9-4.58-2.43-5.75.29-.72.99-1.3,1.99-1.65,2.66-.93,6.69-.08,10.79,2.27.29.17.39.54.22.83-.17.29-.54.39-.83.22-5.62-3.23-8.91-2.48-9.78-2.18-.65.23-1.11.57-1.26.95-.21.53.31,2.97,2.06,4.35,1.89,1.49,4.48,1.14,7.49-.99.27-.19.65-.13.85.15.19.27.13.65-.15.85-2.23,1.58-4.07,2.14-5.55,2.14Z"/>
        <path class="cls-1" d="M34.39,37.93c-.3,0-.56-.22-.6-.52-.32-2.23-1.48-3.66-2.12-3.62-.31.02-.93.69-1,3.09-.01.34-.3.59-.63.59-.34-.01-.6-.29-.59-.63.11-3.61,1.4-4.22,2.15-4.27.03,0,.06,0,.09,0,1.46,0,2.94,2.06,3.31,4.67.05.33-.18.64-.52.69-.03,0-.06,0-.09,0Z"/>
        <path class="cls-1" d="M22.7,38.99c-.3,0-.57-.23-.6-.54-.32-2.66.61-5.08,2.07-5.39.74-.15,2.14.1,3.19,3.56.1.32-.08.66-.41.76-.32.1-.66-.08-.76-.41-.7-2.3-1.46-2.78-1.77-2.72-.62.13-1.38,1.81-1.11,4.05.04.33-.2.64-.53.68-.02,0-.05,0-.07,0Z"/>
        <path class="cls-1" d="M35.13,48.42c-.65-1.09-1.64-1.26-2.41-.7-.18.13-.11.42.12.44.71.07,1.33.3,1.98.61.22.1.44-.14.31-.35Z"/>
        <path class="cls-1" d="M24.24,48.83c.65-1.09,1.64-1.26,2.41-.7.18.13.11.42-.12.44-.71.07-1.33.3-1.98.61-.22.1-.44-.14-.31-.35Z"/>
        <circle class="cls-1" cx="31.51" cy="62.83" r=".57"/>
        <circle class="cls-1" cx="29.73" cy="62.83" r=".57"/>
      </g>
    </g>
  </g>
</svg>