<?xml version="1.0" encoding="UTF-8"?>
<svg id="_レイヤー_2" data-name="レイヤー 2" xmlns="http://www.w3.org/2000/svg" width="340.38" height="183.69" viewBox="0 0 340.38 183.69">
  <defs>
    <style>
      .cls-1 {
        fill: #211815;
      }

      .cls-2 {
        fill: #f5f19b;
      }

      .cls-3 {
        fill: #e0a99c;
      }

      .cls-4 {
        fill: #ecbb6e;
      }

      .cls-5 {
        fill: #93c9ce;
      }

      .cls-6 {
        fill: #5c948d;
      }

      .cls-7 {
        fill: #fffba1;
      }

      .cls-8, .cls-9 {
        fill: #fff;
      }

      .cls-10 {
        fill: #d3f2c9;
      }

      .cls-11 {
        fill: #de8a4c;
      }

      .cls-12 {
        fill: #ceeaeb;
      }

      .cls-13 {
        fill: #f2d496;
      }

      .cls-9 {
        stroke: #ceeaeb;
        stroke-miterlimit: 10;
        stroke-width: 2.83px;
      }
    </style>
  </defs>
  <g id="_レイヤー_1-2" data-name="レイヤー 1">
    <g>
      <path class="cls-9" d="M9.89,99.43h239.38c4.68,0,8.47,3.79,8.47,8.47v43.33s9.69,9.69,9.69,9.69h-9.69s0,.5,0,.5c0,4.68-3.79,8.47-8.47,8.47H9.89c-4.68,0-8.47-3.79-8.47-8.47v-53.52c0-4.68,3.79-8.47,8.47-8.47Z"/>
      <circle class="cls-10" cx="305.91" cy="153.69" r="30"/>
      <g>
        <path d="M16.9,126.28c-.33-1.07-.55-2.97-.55-4.71,0-.75.03-1.82.09-2.75l1.59.33c-.09,1.02-.13,1.92-.13,2.88,0,1.63.17,2.8.43,3.67.32,1.02.76,1.63,1.2,1.63.48,0,1.11-1.04,1.51-2.94l1.32,1.11c-.63,2.37-1.7,3.51-2.8,3.51-1.22,0-2.13-1.06-2.66-2.74ZM23.75,120.62l1.14-1.02c1.8,1.65,2.32,3.67,2.71,6.52l-1.54.48c-.35-2.65-.9-4.77-2.31-5.98Z"/>
        <path d="M31.36,126.28c-.33-1.07-.55-2.97-.55-4.71,0-.75.03-1.82.09-2.75l1.59.33c-.09,1.02-.13,1.92-.13,2.88,0,1.63.17,2.8.43,3.67.32,1.02.76,1.63,1.2,1.63.48,0,1.11-1.04,1.51-2.94l1.32,1.11c-.63,2.37-1.7,3.51-2.8,3.51-1.21,0-2.13-1.06-2.66-2.74ZM38.21,120.62l1.14-1.02c1.8,1.65,2.32,3.67,2.71,6.52l-1.54.48c-.35-2.65-.9-4.77-2.31-5.98Z"/>
        <path d="M43.93,129.22c1.54-.32,3.01-.76,4.27-1.37h-2.52v-5.89h1.74v-1.62h-1.21c-.17,1.04-.66,1.89-1.41,2.5l-.98-.93c.81-.63,1.14-1.33,1.14-2.45v-1.83c1.86-.09,3.12-.26,4.38-.54l.75,1.03c-1.12.21-2.32.36-3.82.47v.67h4.08v1.06h-1.62v1.62h1.78l-.72-.6c.75-.57,1-1.1,1-2v-1.74c1.83-.1,3.06-.25,4.42-.57l.89,1.03c-1.31.27-2.58.45-3.99.53v.66h4.75v1.06h-2.24v1.62h.56v5.89h-2.6c1.43.33,2.75.75,4.21,1.29l-1.14,1.19c-1.38-.65-2.82-1.19-4.42-1.68l1.05-.79h-3.99l1.08.79c-1.35.75-2.97,1.42-4.5,1.83l-.96-1.26ZM53.73,123.61v-.72h-6.62v.72h6.62ZM53.73,125.21v-.72h-6.62v.72h6.62ZM53.73,126.88v-.78h-6.62v.78h6.62ZM53.33,121.96v-1.62h-1.3c-.13.66-.48,1.2-1.02,1.62h2.33Z"/>
        <path d="M58.93,117.67h5.41v4.98h-4v7.63h-1.41v-12.62ZM63.02,119.69v-.95h-2.69v.95h2.69ZM63.02,121.63v-1h-2.69v1h2.69ZM61.95,123.83h5.78v4.21h-4.41v.81h-1.37v-5.02ZM66.36,126.89v-1.95h-3.04v1.95h3.04ZM67.73,130.06l-.25-1.46c.55.09,1.11.14,1.53.14.34,0,.45-.11.45-.5v-5.59h-4.11v-4.98h5.52v11.19c0,.96-.35,1.29-1.32,1.29-.45,0-1.2-.03-1.81-.09ZM69.45,119.69v-.95h-2.78v.95h2.78ZM69.45,121.63v-1h-2.78v1h2.78Z"/>
        <path d="M75.57,125.92c-.48.6-1,1.3-1.62,2.21l-1.27-.95c.96-1.09,1.92-2.31,2.49-3.48.12-.24.27-.65.42-1.11v-1.21c-.72.18-1.66.33-2.34.39l-.24-1.38c.76-.06,1.71-.17,2.56-.38,0-1.08-.01-1.88-.03-2.65l1.59.06c-.03.84-.05,1.62-.06,2.5l.72.34c-.13.42-.43,1.17-.75,1.91v.15c1.54-1.65,3-2.91,4.8-2.91s2.73,1.5,2.73,4.46c0,.75-.08,1.5-.2,2.16.66.36,1.29.81,1.88,1.37l-.96,1.28c-.39-.46-.84-.87-1.3-1.19-.09.25-.2.46-.3.63-.5.79-1.43,1.2-2.5,1.2-1.59,0-2.58-.94-2.58-2.14s1.04-2.04,2.56-2.04c.57,0,1.17.1,1.79.29.06-.53.09-1.07.09-1.58,0-1.77-.41-2.96-1.35-2.96-1.26,0-2.94,1.47-4.65,3.33,0,1.92,0,3.38.03,5.61l-1.58.06c.03-1.51.04-2.76.08-3.96ZM81.19,127.88c.6,0,1.08-.29,1.33-.83.04-.09.09-.19.12-.3-.49-.2-1.02-.3-1.42-.3-.64,0-1.09.27-1.09.67,0,.45.36.75,1.07.75Z"/>
        <path d="M92.6,128.2c0-.66.49-1.23,1.21-1.23s1.21.57,1.21,1.23-.5,1.21-1.21,1.21-1.21-.56-1.21-1.21ZM92.93,118.51h1.76l-.09,7.33h-1.56l-.11-7.33Z"/>
        <path d="M101.75,129.19c1.62-.31,3.08-.79,4.26-1.38h-2.49v-6.04h9.51v6.04h-2.57c1.5.38,2.75.75,4.18,1.32l-1.11,1.2c-1.62-.77-2.99-1.29-4.46-1.7l1.07-.83h-3.98l1.07.83c-1.59.84-3.17,1.49-4.53,1.83l-.96-1.28ZM102.57,117.65h11.38v3.42h-11.38v-3.42ZM105.95,120.1v-1.43h-1.98v1.43h1.98ZM111.57,123.47v-.75h-6.62v.75h6.62ZM111.57,125.12v-.75h-6.62v.75h6.62ZM111.57,126.82v-.81h-6.62v.81h6.62ZM109.23,120.1v-1.43h-2v1.43h2ZM112.58,120.1v-1.43h-2.05v1.43h2.05Z"/>
        <path d="M119.7,126.46c-1.2.5-2.13.79-3.24,1.12l-.48-1.47c.25-.04.78-.18,1.09-.27v-6.93h1.38v6.57c.54-.15.99-.3,1.25-.39v-7.8h1.41v12.88h-1.41v-3.72ZM121.19,129.07c1.3-.66,2.38-1.59,3.4-2.92-1.04-1.63-1.83-3.88-2.22-6.34h-.78v-1.38h6.18l.79.69c-.43,2.86-1.17,5.19-2.23,6.97.84,1,1.89,1.86,3.09,2.55l-.92,1.42c-1.14-.79-2.21-1.75-3.01-2.71-.93,1.26-2.07,2.24-3.42,3l-.88-1.28ZM126.93,119.8h-3.17c.23,1.83.86,3.71,1.67,5.01.78-1.53,1.32-3.3,1.5-5.01Z"/>
        <path d="M137.09,128.3c2.75-.69,4.38-2.37,4.38-4.5s-1.47-3.52-3.6-3.66c-.11,1.69-.38,3.16-.84,4.6-.72,2.25-2,3.48-3.36,3.48s-2.52-1.39-2.52-3.31c0-3.48,2.88-6.21,6.42-6.21,3.25,0,5.49,1.98,5.49,5.08,0,2.68-1.65,4.68-4.74,5.75l-1.23-1.23ZM133.71,126.62c.77,0,1.41-.9,1.88-2.38.41-1.32.65-2.49.74-3.96-2.07.52-3.64,2.42-3.64,4.65,0,.92.49,1.7,1.03,1.7Z"/>
        <path d="M145.62,129.02c1.63-.72,3.03-2.22,3.6-3.85.41-1.08.57-2.35.65-4.3h-4.54v-1.33h5.44v-2.25h1.59v2.25h5.62v1.33h-6.63c-.01.67-.06,1.25-.12,1.93h5.32c-.09,2.91-.31,5.13-.6,6.01-.27.89-.78,1.19-1.98,1.19-.55,0-1.44-.06-2.19-.14l-.34-1.59c.85.17,1.63.25,2.2.25.63,0,.81-.16.95-.81.18-.81.3-1.92.41-3.6h-3.96c-.45,2.73-2.01,4.9-4.35,6.09l-1.07-1.19Z"/>
        <path d="M159.48,128.99c.92-1.19,1.71-2.62,2.43-4.38l1.14.99c-.69,1.77-1.47,3.32-2.34,4.56l-1.23-1.17ZM159.69,121.85l.95-1.11c.78.53,1.59,1.23,2.25,1.93l-1,1.2c-.66-.76-1.41-1.47-2.19-2.02ZM160.22,118.52l.98-1.11c.76.53,1.53,1.21,2.16,1.92l-1.01,1.19c-.63-.75-1.35-1.43-2.13-2ZM170.57,128.8c-2.02.42-4.53.75-7.09.96l-.42-1.5c.42-.01,1.07-.04,1.58-.09.72-1.49,1.2-2.64,1.59-3.87h-3.19v-1.27h3.87v-2.13h-3.07v-1.29h3.07v-2.34h1.47v2.34h3.42v1.29h-3.42v2.13h4.21v1.27h-4.75c-.5,1.35-.99,2.55-1.61,3.76,1.26-.1,2.76-.25,3.65-.38-.54-.79-.83-1.18-1.35-1.86l1.23-.58c1.03,1.11,2.02,2.49,2.95,4.03l-1.32.9c-.39-.71-.53-.92-.81-1.38Z"/>
        <path d="M175.46,124.72c0-1.42.32-3.93.86-6.79l1.53.24c-.6,2.9-.92,5.42-.92,6.58,0,.46.03,1,.11,1.46.24-.77.62-1.65.9-2.19l.9.9c-.46.93-.67,1.53-.84,2.1-.2.69-.3,1.37-.24,2l-1.18.5c-.62-1.21-1.11-2.82-1.11-4.79ZM179.81,126.35c0-.64.27-1.36.99-2.17l1.42.48c-.69.6-.92,1.08-.92,1.46,0,.75.63,1.18,2.29,1.18.66,0,1.63-.09,2.59-.32l.3,1.56c-1.04.17-2.07.21-2.7.21-2.71,0-3.99-.72-3.99-2.4ZM179.97,119.45c1.68.03,4.29-.12,6-.39l.18,1.5c-1.72.27-4.32.43-6.04.39l-.14-1.5Z"/>
        <path d="M190.07,127.34c0-1.27,1.11-2.22,3.15-2.22.36,0,.72.03,1.11.08-.02-.32-.04-.65-.06-.96-.09-1.37-.17-3.42-.17-4.41,0-.71-.01-1.5.02-2.47l1.6.08c-.09,1-.1,1.69-.12,2.65,1.23-.06,2.49-.21,3.72-.46l.17,1.5c-1.41.22-2.7.36-3.87.42.01.88.06,1.91.12,2.68.03.44.06.89.07,1.31,1.44.4,2.94,1.11,4.21,2.04l-.85,1.31c-1.19-.9-2.31-1.5-3.29-1.88v.29c0,1.57-.94,2.37-2.8,2.37s-3.01-.85-3.01-2.31ZM192.95,128.23c.84,0,1.44-.29,1.44-1.18,0-.11,0-.25-.01-.46-.41-.08-.79-.11-1.12-.11-1.09,0-1.65.38-1.65.88,0,.58.57.87,1.35.87Z"/>
        <path d="M208.01,127.99c2.99-.32,4.59-1.38,4.59-2.88,0-.95-.64-1.85-1.92-1.85-.67,0-1.5.18-2.46.38-.94.2-2.23.5-3.21.74l-.4-1.41c.96-.21,2.08-.43,3.28-.67,1.05-.21,2.05-.39,2.85-.39,2.17,0,3.42,1.36,3.42,3.13,0,2.31-1.8,3.76-5.28,4.29l-.87-1.33Z"/>
        <path d="M222.06,125.15c0-1.67,1.05-3.23,3.02-4.56-2.88.27-4.68.42-6.81.58l-.19-1.57c3.12-.12,7.92-.41,11.43-.98l.3,1.53c-2.08.29-2.79.51-4,1.47-1.38,1.08-2.21,2.19-2.21,3.55,0,1.71,1.37,2.6,4.04,2.94l-.67,1.46c-2.99-.42-4.89-1.86-4.89-4.42Z"/>
        <path d="M231.76,128.74c.74-.41,1.37-.84,1.92-1.32v-3.41h-1.79v-1.35h3.21v4.62c.79,1.17,1.71,1.41,5.01,1.41,1.44,0,3.2-.06,5.16-.17-.22.42-.38.87-.45,1.46-1.56.04-2.71.08-3.72.08-2.88,0-4.27-.15-5.21-.58-.55-.22-1.02-.62-1.38-1.14-.46.6-1.2,1.35-1.92,1.96l-.84-1.56ZM232.07,118.34l1.03-.91c.75.58,1.59,1.42,2.25,2.25l-1.12,1.01c-.67-.87-1.44-1.71-2.16-2.34ZM240.29,127.3h-4.74v-1.02h1.63v-.78h-1.08v-.97h4.19v-.72h-3.51v-2.42h6.64v2.42h-1.79v.72h2.55v.97h-2.55v.78h3.18v1.02h-3.18v1.17h-1.35v-1.17ZM235.6,119.8h2.54c.09-.21.17-.45.25-.72h-1.6v-.95h1.89c.12-.4.22-.79.29-1.14l1.33.18c-.08.29-.15.56-.27.96h2.97v1.67h1.77v.99h-9.17v-.99ZM242.14,122.98v-.75h-4.04v.75h4.04ZM240.29,126.28v-.78h-1.83v.78h1.83ZM241.7,119.8v-.72h-1.96c-.09.32-.15.48-.24.72h2.2Z"/>
        <path d="M19.43,155.33c1.84-.72,2.59-1.23,3.33-2.01.67-.72,1.26-1.88,1.26-2.96,0-1.47-.98-2-1.91-2-.5,0-.97.08-2.21.41-1.12.3-1.69.46-2.61.72l-.44-1.47c.92-.23,1.49-.38,2.54-.63,1.39-.35,2.13-.48,2.94-.48,1.77,0,3.36.99,3.36,3.21,0,1.89-.79,3.13-1.56,4.04-.81.94-1.95,1.68-3.45,2.26l-1.26-1.09ZM19.04,144.86l.57-1.33c1.5.27,2.91.57,4.54,1.35l-.63,1.38c-1.46-.72-3-1.09-4.49-1.39Z"/>
        <path d="M35.87,154.55c2.75-.69,4.38-2.37,4.38-4.5s-1.47-3.52-3.6-3.66c-.11,1.69-.38,3.16-.84,4.6-.72,2.25-2,3.48-3.36,3.48s-2.52-1.39-2.52-3.31c0-3.48,2.88-6.21,6.42-6.21,3.25,0,5.49,1.98,5.49,5.08,0,2.68-1.65,4.68-4.74,5.75l-1.23-1.23ZM32.49,152.87c.77,0,1.41-.9,1.88-2.38.41-1.32.65-2.49.74-3.96-2.07.52-3.64,2.42-3.64,4.65,0,.92.49,1.7,1.03,1.7Z"/>
        <path d="M45.47,153.59c0-1.27,1.11-2.22,3.15-2.22.36,0,.72.03,1.11.08-.02-.32-.04-.65-.06-.96-.09-1.37-.17-3.42-.17-4.41,0-.71-.01-1.5.02-2.47l1.6.08c-.09,1-.1,1.69-.12,2.65,1.23-.06,2.49-.21,3.72-.46l.17,1.5c-1.41.22-2.7.36-3.87.42.01.88.06,1.91.12,2.68.03.44.06.89.07,1.31,1.44.4,2.94,1.11,4.21,2.04l-.85,1.31c-1.19-.9-2.31-1.5-3.29-1.88v.29c0,1.57-.94,2.37-2.8,2.37s-3.01-.85-3.01-2.31ZM48.35,154.48c.84,0,1.44-.29,1.44-1.18,0-.11,0-.25-.01-.46-.41-.08-.79-.11-1.12-.11-1.09,0-1.65.38-1.65.88,0,.58.57.87,1.35.87Z"/>
        <path d="M58.07,154.52c0-1.17.98-2.14,2.17-2.14s2.15.99,2.15,2.16-.98,2.16-2.17,2.16-2.15-.99-2.15-2.17ZM61.39,154.54c0-.65-.51-1.16-1.16-1.16s-1.16.53-1.16,1.16.51,1.15,1.16,1.15,1.16-.52,1.16-1.15Z"/>
      </g>
      <path class="cls-9" d="M330.49,1.42H91.12c-4.68,0-8.47,3.79-8.47,8.47v40.63s-9.69,9.69-9.69,9.69h9.69v.5c0,4.68,3.79,8.47,8.47,8.47h239.38c4.68,0,8.47-3.79,8.47-8.47V9.89c0-4.68-3.79-8.47-8.47-8.47Z"/>
      <g>
        <path d="M99.95,20.72c-1.07-.21-1.88-.53-2.43-.92-.27-.18-.33-.25-.33-.39,0-.17.12-.46.54-1.3.73.46,1.56.79,2.5.99.21-1.05.3-1.92.31-2.9.77.14,1.44.36,1.82.57.17.09.22.18.21.3,0,.06-.03.12-.11.27-.22.46-.24.51-.55,1.98.15.02.34.02.46.02h.11c.36-.02.63-.02.76-.02h.04c.13,0,.18.06.18.25,0,.66-.04,1.2-.1,1.31-.04.07-.24.1-.87.1-.29,0-.51-.01-.93-.03q-.32,1.54-.45,2.36c.51.04.62.04.87.04h.84c.15-.01.22.01.27.09.06.09.11.57.11,1.11,0,.27-.02.34-.11.39-.08.03-.4.04-.97.04-.27,0-.67-.01-1.2-.04-.01.27-.01.45-.01.57,0,1.38.64,2.01,2.05,2.01,1.58,0,2.52-.77,2.52-2.05,0-.47-.1-.89-.34-1.35-.3-.57-.58-.9-1.3-1.47h.13c.24,0,.75-.08,1.2-.17.24-.04.33-.06.41-.06.22,0,.38.1.67.48.69.84,1.04,1.72,1.04,2.66,0,2.11-1.71,3.51-4.31,3.51-2.43,0-3.64-1.21-3.64-3.67,0-.21,0-.38.03-.63-1.49-.32-2.29-1.05-2.29-2.12,0-.55.17-.96.58-1.38.04-.06.1-.08.17-.08.09,0,.19.08.54.36.27.22.31.27.31.34q0,.06-.09.2c-.06.1-.12.27-.12.36,0,.2.12.36.35.46.21.11.27.12.75.23l.39-2.43Z"/>
        <path d="M115.19,16.64c.38.1.48.18.48.34,0,.11-.01.15-.09.36-.17.43-.29,1.2-.34,2.25-.12,2.42-.18,4.29-.18,5.77,0,.48.04.84.12,1.08.17.5.69.75,1.53.75,1.35,0,2.62-.55,3.79-1.65.54-.51.87-.92,1.42-1.74.09.48.21.79.54,1.47.04.12.08.21.08.34,0,.27-.29.63-1.04,1.3-1.49,1.33-3.13,2.03-4.86,2.03-1.14,0-1.98-.29-2.52-.83-.57-.6-.79-1.38-.79-2.86,0-1.17.01-2.07.13-5.57.02-.52.03-.84.03-.97,0-1.28-.01-1.65-.11-2.29.77.03,1.35.09,1.8.21Z"/>
        <path d="M125.97,23.57c0-.96,0-1.23.03-1.83-.3.57-.63,1.05-1,1.51-.17-.69-.34-1.2-.64-1.77.94-1.08,1.67-2.31,2.19-3.81.27-.74.44-1.37.48-1.8l1.56.58q-.04.12-.3.93c-.27.79-.44,1.25-.81,2.08v8.04c0,.72.02,1.22.06,1.75h-1.65c.06-.6.09-.97.09-1.71v-3.99ZM129.54,22.14c-.43,0-.85.01-1.23.06v-1.35c.38.04.69.06,1.21.06h1c-.17-.42-.32-.73-.53-1.14h-.63c-.43,0-.85.01-1.23.06v-1.45c.3.03.73.06,1.23.06h1.84v-1.16c0-.57-.03-.96-.09-1.29h1.46c-.06.32-.06.56-.06,1.28v1.17h.78v-1.16c0-.61-.01-.99-.06-1.29h1.44c-.06.33-.08.66-.08,1.28v1.17h2.06c.54,0,.94-.03,1.25-.08v1.47c-.35-.04-.8-.06-1.25-.06h-.96c-.14.33-.35.72-.57,1.14h1.14c.54,0,.89-.01,1.23-.06v1.35c-.33-.04-.79-.06-1.23-.06h-2.74l-.02.66h2.36c.51,0,.88-.02,1.24-.06v1.3c-.33-.04-.79-.06-1.24-.06h-2.42c-.03.3-.04.41-.08.67h3.09c.63,0,1-.01,1.37-.08v1.42c-.38-.04-.87-.07-1.4-.07h-2.42c.54.55,1.01.88,1.73,1.21.63.29,1.2.43,2.37.62-.27.45-.45.9-.63,1.53-2.13-.52-3.69-1.46-4.72-2.8-.36.63-.75,1.07-1.33,1.5-.81.6-1.65.95-3.1,1.27-.17-.58-.33-.93-.67-1.42,1.27-.19,1.98-.4,2.73-.85.51-.3.83-.6,1.09-1.05h-2.05c-.5,0-.96.03-1.38.07v-1.41c.36.04.75.06,1.37.06h2.49c.06-.31.08-.42.09-.67h-2c-.57,0-.93.01-1.25.06v-1.3c.36.04.75.06,1.23.06h2.08v-.66h-2.52ZM129.9,16.09c.42.58.69,1.05.99,1.74l-1.23.54c-.32-.79-.51-1.15-.92-1.72l1.16-.55ZM133.59,20.91c.22-.4.36-.71.51-1.14h-2.52c.21.43.31.69.48,1.14h1.53ZM137.43,16.64c-.58,1.09-.74,1.33-1.06,1.75l-1.28-.42c.51-.74.71-1.08.99-1.83l1.35.5Z"/>
        <path d="M140.58,21.87c-.12.03-.18.06-.27.11-.08.04-.12.06-.18.06-.33,0-.57-.57-.75-1.68h.29c.63,0,2.24-.2,3.2-.39.31-1.31.48-2.31.48-3.02,0-.06,0-.15-.01-.25.64.06,1.26.2,1.68.38.24.09.36.21.36.36,0,.08-.02.13-.09.25q-.23.39-.69,2.04c.36-.04.76-.08,1.02-.08.62,0,1.1.12,1.44.36.6.43.9,1.32.9,2.68,0,2.24-.41,4.16-1.1,5.1-.48.66-1.11.98-2,.98-.54,0-1.05-.08-1.2-.17q-.12-.08-.17-.63c-.04-.41-.13-.77-.32-1.19.78.27.98.32,1.46.32.72,0,1.02-.35,1.35-1.56.23-.79.35-1.81.35-2.92,0-1.17-.29-1.59-1.08-1.59-.27,0-.71.04-1.05.09-.04.18-.06.2-.12.39-.42,1.54-1.19,3.55-1.95,5.17-.79,1.63-.99,1.96-1.18,1.96-.12,0-.53-.21-.96-.5-.35-.21-.44-.3-.44-.42q0-.08.62-1.05c.83-1.28,1.91-3.77,2.28-5.25-1.11.25-1.73.39-1.86.43ZM150,18.8c-.24.18-.41.25-.48.25-.04,0-.09-.03-.13-.11-.32-.51-.84-1.09-1.28-1.47-.03-.03-.04-.06-.04-.09,0-.06.11-.17.36-.36.25-.18.33-.22.43-.22.24,0,1.56,1.33,1.56,1.58,0,.09-.12.19-.42.42ZM148.41,20.39c0-.11.13-.24.57-.58.3-.23.45-.32.57-.32.2,0,.87.72,1.5,1.61.52.75,1.09,1.81,1.09,2.07,0,.15-.04.2-.52.58-.3.24-.65.44-.77.44-.1,0-.15-.04-.25-.3-.29-.72-.54-1.21-.95-1.86-.4-.65-.43-.67-1.15-1.46-.06-.08-.09-.12-.09-.18ZM150.38,15.78c.25,0,1.53,1.28,1.53,1.53,0,.08-.09.17-.39.38-.27.21-.41.29-.46.29q-.08,0-.38-.42c-.25-.34-.74-.86-1-1.08-.04-.04-.08-.08-.08-.12,0-.12.62-.57.78-.57Z"/>
        <path d="M163.06,21.54h2.13c.68,0,1.1-.03,1.54-.09v1.63c-.48-.04-.93-.07-1.56-.07h-1.62c.86,1.5,2.1,2.74,3.58,3.58-.48.48-.69.78-.99,1.5-.61-.43-1.05-.85-1.62-1.5-.74-.86-1.05-1.32-1.53-2.22.03.54.04,1,.04,1.44v1.81c0,.67.03,1.2.09,1.67h-1.67c.06-.46.09-1,.09-1.68v-1.71c0-.41.02-.88.04-1.49-.91,1.65-1.93,2.76-3.39,3.74-.38-.71-.58-1-.9-1.37,1.54-.88,2.8-2.17,3.67-3.78h-.95c-.64,0-1.11.03-1.58.09v-.6c-.25.36-.43.69-.61,1.22-.38-.59-.6-1.05-.89-1.8.03.47.06,1.28.06,1.91v3.69c0,.77.03,1.32.09,1.77h-1.67c.06-.46.09-1.02.09-1.77v-3.1c0-.57.02-.93.11-1.86-.44,1.46-.87,2.43-1.51,3.41-.18-.67-.38-1.11-.68-1.6.72-.92,1.47-2.61,1.92-4.35h-.57c-.44,0-.69.02-.96.06v-1.53c.24.04.51.06.96.06h.72v-1.16c0-.76-.01-1.14-.08-1.5h1.65c-.06.39-.08.79-.08,1.5v1.16h.43c.36,0,.54-.02.78-.06v1.42c.57-1.02,1.05-2.52,1.09-3.49l1.46.38c-.06.17-.1.34-.21.79-.08.27-.1.4-.18.69h1.15v-.99c0-.61-.03-.99-.09-1.36h1.68c-.06.36-.09.76-.09,1.36v.99h1.7c.72,0,1.14-.03,1.54-.09v1.58c-.42-.04-.9-.08-1.54-.08h-1.7v1.81ZM159.93,19.73c-.25.62-.39.9-.81,1.6q-.36-.38-1.17-.94c.12-.17.17-.24.24-.35-.2-.03-.44-.04-.71-.04h-.38c.34.79.71,1.4,1.36,2.28v-.83c.45.06.87.09,1.56.09h1.53v-1.81h-1.63Z"/>
        <path d="M174.51,24.59c-1.48.87-1.91,1.31-1.91,1.96,0,.27.11.45.33.58.33.2,1.07.3,2.01.3.81,0,1.93-.08,2.7-.18.32-.04.5-.09,1.09-.24h.08c.11,0,.18.07.23.18.09.31.15.76.15,1.3,0,.23-.08.32-.27.36-.36.08-2.03.17-3.12.17-1.83,0-2.8-.12-3.52-.42-.87-.36-1.31-1.04-1.31-1.98,0-.87.41-1.63,1.21-2.28.65-.51.79-.62,2.17-1.4-.12-.5-.34-.71-.81-.71-.62,0-1.26.24-1.96.71-.43.3-.95.72-1.26,1.04-.45.46-.5.5-.62.5-.15,0-.46-.34-.78-.87-.15-.25-.24-.45-.24-.55,0-.14.03-.17.39-.39,1.23-.82,2.25-1.88,2.87-2.95-1.07.07-1.62.09-2.21.09-.23,0-.27-.04-.34-.3-.05-.2-.12-.99-.14-1.4.51.08.81.09,1.53.09.58,0,1.23-.01,1.91-.04.31-.85.42-1.39.43-2.1,1.33.22,1.95.45,1.95.71,0,.06-.02.09-.06.18-.1.2-.22.43-.42.9q-.03.06-.04.1c.86-.12,1.61-.27,2.13-.39.33-.09.41-.11.48-.11.12,0,.18.04.21.14.06.27.15.96.15,1.17,0,.17-.06.24-.25.28-.48.14-2.13.39-3.51.53-.45.83-.76,1.3-1.23,1.81.67-.31,1.18-.43,1.78-.43.68,0,1.12.39,1.43,1.23,1.48-.81,2.28-1.24,2.37-1.3.69-.4.98-.63,1.31-1,.61.63,1.27,1.58,1.27,1.83,0,.09-.06.15-.25.2-.74.19-2.1.78-4.38,1.89.01.27.04.96.04,1.44v.72c0,.18-.03.27-.1.31-.08.08-.48.12-.93.12-.51,0-.6-.04-.6-.29v-.06c.03-.44.04-1,.04-1.37v-.08Z"/>
        <path d="M193.98,22.95h.23c.6,0,.96-.01,1.41-.08v1.54c-.43-.06-.82-.09-1.41-.09h-.23v3.46c0,1.02-.51,1.37-2.04,1.37-.33,0-.72-.01-1.35-.04-.08-.63-.2-1.04-.42-1.54.66.12,1.17.17,1.65.17s.6-.08.6-.39v-3.01h-3.63c-.71,0-1.11.02-1.62.08v-1.28c-.51.24-.93.42-1.25.54v4.1c0,1.14-.39,1.42-1.92,1.42-.27,0-.48-.02-.96-.04-.04-.6-.12-.92-.31-1.47.51.06.88.09,1.21.09.36,0,.46-.09.46-.45v-3.09c-.65.22-.66.22-1,.34-.17.04-.41.13-.57.21l-.22-1.59c.34-.04.79-.15,1.8-.48v-2.65h-.66c-.39,0-.67.01-1.04.06v-1.53c.36.06.63.07,1.07.07h.63v-1.18c0-.67-.02-.99-.09-1.47h1.68c-.06.45-.08.79-.08,1.46v1.2h.45c.38,0,.54-.01.81-.04v1.49c-.27-.03-.48-.04-.79-.04h-.46v2.14c.46-.17.6-.21,1.19-.46h-.06v-1.49c.36.05.97.08,1.61.08h1.75v-1.42h-1.32c-.67,0-1.02.02-1.46.06v-1.52c.41.06.81.09,1.46.09h1.32v-.43c0-.42-.03-.72-.09-1.08h1.7c-.06.36-.08.62-.08,1.08v.43h1.68c.66,0,1.07-.03,1.47-.09v1.52c-.42-.04-.78-.06-1.46-.06h-1.7v1.42h2.08c.65,0,1.21-.03,1.62-.09v1.51c-.38-.04-.92-.07-1.67-.07v1.27ZM188.67,21.68c-.45,0-1.17.03-1.49.04v1.15c.46.06.89.08,1.61.08h3.63v-1.27h-3.75ZM189.05,24.53c.72.76,1.08,1.23,1.7,2.17l-1.25.95c-.6-1.04-.83-1.35-1.68-2.29l1.23-.83Z"/>
        <path d="M200.61,21.51c1.89-.53,3.25-.77,4.27-.77,2.12,0,3.42,1.16,3.42,3.03,0,1.12-.46,2.12-1.35,2.87-.58.49-1.46.92-2.61,1.26-.64.18-1.33.31-1.63.31-.18,0-.27-.04-.33-.19-.21-.53-.45-.9-.76-1.21,3.3-.35,4.98-1.4,4.98-3.11,0-.87-.72-1.54-1.65-1.54-1.62,0-3.39.54-5.25,1.58-.15.08-.24.12-.3.12-.25,0-.67-.75-1.02-1.83.74-.11.99-.17,2.24-.51Z"/>
        <path d="M214.08,20.09c-.39.09-.53.13-1.07.33-.19.08-.3.11-.39.11-.33,0-.63-.62-.9-1.91.96-.04,1.31-.09,2.97-.34,1.8-.27,4.08-.62,5.28-.76,1.35-.18,2.43-.36,3-.48.1-.03.15-.03.22-.03.2,0,.27.09.41.46.12.31.21.76.21.97,0,.18-.06.24-.27.24-.32,0-.6.03-.89.08-2.53.42-4.56,2.64-4.56,4.98,0,1.75,1.38,2.91,3.72,3.12.21.01.29.09.29.27,0,.38-.15,1.09-.29,1.42-.08.17-.19.24-.39.24s-.65-.09-1.11-.22c-2.55-.75-3.88-2.37-3.88-4.67,0-1.25.41-2.4,1.19-3.39.42-.54.78-.84,1.63-1.43-1.96.33-4.04.72-5.17,1.01Z"/>
        <path d="M226.91,19.14c0-.44-.02-1.02-.04-1.35.69.07,1.2.18,1.6.33.36.14.48.23.48.39q0,.09-.06.24c-.2.51-.25,1.08-.25,2.44,0,1.92.12,3.12.42,4.04.22.71.57,1.11.97,1.11.62,0,1.12-.72,1.68-2.38.28.77.39.99.81,1.53.08.1.12.21.12.31,0,.24-.22.75-.53,1.19-.58.85-1.33,1.32-2.13,1.32-1.15,0-2.02-.93-2.56-2.77-.34-1.2-.51-2.71-.51-4.81v-1.58ZM235.83,19.38c.09,0,.17.04.29.15.75.72,1.53,1.92,2.03,3.09.33.79.64,1.86.64,2.17,0,.15-.08.23-.39.39-.34.18-1.05.42-1.23.42-.13,0-.19-.08-.24-.34-.2-1.16-.46-2-.93-2.97-.42-.87-.45-.92-1.47-2.17.63-.46,1.12-.73,1.3-.73Z"/>
        <path d="M248.52,21.24c2.12,0,3.62,1.44,3.62,3.48,0,1.39-.74,2.65-1.96,3.39-.86.51-1.91.76-3.09.76-1.91,0-3.02-.76-3.02-2.07,0-1.19.99-2.03,2.4-2.03,1.27,0,2.19.64,2.8,1.96.76-.55,1.08-1.14,1.08-1.95,0-1.29-.92-2.13-2.36-2.13s-3.04.74-4.35,2.04c-.24.24-.46.5-.73.84-.11.15-.18.21-.27.21-.27,0-1.33-1.05-1.33-1.32,0-.13.06-.21.39-.45.34-.27.84-.71,1.47-1.3,1.46-1.38,2.52-2.54,4.09-4.46-1.88.24-3.13.45-3.6.62-.08.01-.12.03-.17.03-.12,0-.2-.07-.29-.3-.18-.45-.27-.94-.32-1.6.41.06.69.08,1.02.08.72,0,1.93-.11,3.51-.29.55-.06.73-.11,1.16-.27.13-.06.21-.08.3-.08.21,0,.42.18.81.78.29.39.38.58.38.71,0,.2-.04.25-.38.46-.27.17-.43.3-.78.63-.75.72-.76.72-1.69,1.67-.66.67-.74.75-1.33,1.35.97-.54,1.74-.77,2.64-.77ZM247.08,26.43c-.23-.15-.48-.23-.77-.23-.46,0-.76.23-.76.58,0,.44.46.71,1.18.71.33,0,.62-.03.99-.13-.18-.5-.33-.72-.64-.93Z"/>
        <path d="M257.79,20.67c-.96.6-1.29.78-2.31,1.24-.25-.58-.48-.97-.84-1.48,1.53-.6,2.54-1.16,3.62-2,.96-.74,1.68-1.51,2.28-2.43h1.7c.76,1.06,1.35,1.63,2.45,2.4,1.21.87,2.4,1.49,3.7,1.95-.4.62-.6,1.02-.81,1.62-.9-.39-1.46-.69-2.45-1.32v1.12c-.39-.04-.75-.06-1.29-.06h-4.82c-.41,0-.84.01-1.23.06v-1.11ZM257,24.38c-.75,0-1.23.03-1.7.09v-1.66c.45.04,1.02.07,1.7.07h8.95c.72,0,1.21-.03,1.7-.07v1.66c-.48-.06-.96-.09-1.7-.09h-4.93c-.48,1.1-.93,1.94-1.5,2.79q2.49-.13,4.56-.36c-.46-.51-.72-.78-1.51-1.59l1.42-.63c1.54,1.56,2.17,2.29,3.33,3.83l-1.39.92c-.41-.62-.53-.79-.86-1.25-1.2.15-2.05.25-2.59.3-1.5.15-4.23.41-4.84.45-.81.04-1.53.12-1.86.2l-.22-1.75c.43.03.62.04.81.04.12,0,.56-.02,1.29-.06.71-1.08,1.16-1.93,1.53-2.88h-2.17ZM263.82,20.22c.2,0,.33,0,.63-.02-1.3-.87-2.14-1.65-3.01-2.8-.75,1.02-1.62,1.84-2.98,2.8.24.02.36.02.58.02h4.78Z"/>
        <path d="M272.98,27.78c0,.67.02,1.05.09,1.47h-1.74c.06-.43.09-.83.09-1.5v-3.61c-.58.52-.88.75-1.6,1.23-.18-.55-.44-1.08-.74-1.5,1-.58,1.69-1.12,2.47-1.95.67-.71,1.09-1.3,1.56-2.22h-2.34c-.51,0-.85.02-1.2.06v-1.61c.38.04.66.06,1.12.06h.73v-1.2c0-.39-.03-.76-.09-1.09h1.72c-.06.31-.07.66-.07,1.11v1.19h.6c.43,0,.6-.02.83-.04l.69.75c-.12.19-.21.37-.31.61-.48,1.05-.74,1.49-1.44,2.46.67.77,1.33,1.29,2.28,1.82-.33.46-.54.85-.78,1.42-.76-.48-1.21-.88-1.88-1.62v4.17ZM279.11,27.09h1.72c.72,0,1.21-.03,1.65-.07v1.72c-.51-.06-1.07-.09-1.65-.09h-4.92c-.6,0-1.12.03-1.62.09v-1.72c.45.04.96.07,1.63.07h1.58v-5.62h-1.08c-.48,0-.96.03-1.41.07v-1.63c.41.06.81.08,1.41.08h1.08v-2.54c0-.6-.03-.94-.09-1.5h1.79c-.08.57-.09.86-.09,1.5v2.54h1.51c.66,0,1.04-.01,1.42-.08v1.63c-.46-.04-.92-.07-1.42-.07h-1.51v5.62Z"/>
        <path d="M285.18,21.87c-.12.03-.18.06-.27.11-.08.04-.12.06-.18.06-.33,0-.57-.57-.75-1.68h.29c.63,0,2.24-.2,3.2-.39.31-1.31.48-2.31.48-3.02,0-.06,0-.15-.01-.25.64.06,1.26.2,1.68.38.24.09.36.21.36.36,0,.08-.02.13-.09.25q-.23.39-.69,2.04c.36-.04.76-.08,1.02-.08.62,0,1.1.12,1.44.36.6.43.9,1.32.9,2.68,0,2.24-.41,4.16-1.1,5.1-.48.66-1.11.98-2,.98-.54,0-1.05-.08-1.2-.17q-.12-.08-.17-.63c-.04-.41-.13-.77-.32-1.19.78.27.98.32,1.46.32.72,0,1.02-.35,1.35-1.56.23-.79.35-1.81.35-2.92,0-1.17-.29-1.59-1.08-1.59-.27,0-.71.04-1.05.09-.04.18-.06.2-.12.39-.42,1.54-1.19,3.55-1.95,5.17-.79,1.63-.99,1.96-1.18,1.96-.12,0-.53-.21-.96-.5-.35-.21-.44-.3-.44-.42q0-.08.62-1.05c.83-1.28,1.91-3.77,2.28-5.25-1.11.25-1.73.39-1.86.43ZM294.6,18.8c-.24.18-.41.25-.48.25-.04,0-.09-.03-.13-.11-.32-.51-.84-1.09-1.28-1.47-.03-.03-.04-.06-.04-.09,0-.06.11-.17.36-.36.25-.18.33-.22.43-.22.24,0,1.56,1.33,1.56,1.58,0,.09-.12.19-.42.42ZM293.01,20.39c0-.11.13-.24.57-.58.3-.23.45-.32.57-.32.2,0,.87.72,1.5,1.61.52.75,1.09,1.81,1.09,2.07,0,.15-.04.2-.52.58-.3.24-.65.44-.77.44-.1,0-.15-.04-.25-.3-.29-.72-.54-1.21-.95-1.86-.4-.65-.43-.67-1.15-1.46-.06-.08-.09-.12-.09-.18ZM294.98,15.78c.25,0,1.53,1.28,1.53,1.53,0,.08-.09.17-.39.38-.27.21-.41.29-.46.29q-.08,0-.38-.42c-.25-.34-.74-.86-1-1.08-.04-.04-.08-.08-.08-.12,0-.12.62-.57.78-.57Z"/>
        <path d="M301.16,26.85c-.6,0-1.05.01-1.54.06.04-.41.06-.9.06-1.7v-3.31c0-.71-.02-1.18-.06-1.62.45.03.77.04,1.5.04h7.3c.84,0,1.17-.01,1.59-.04-.04.46-.06.87-.06,1.63v3.35c0,.79.01,1.32.06,1.65-.46-.04-.92-.06-1.53-.06h-1.07c1.02.57,2.37.93,4.12,1.12-.33.43-.51.75-.78,1.41-1.29-.19-1.92-.36-2.83-.72-.87-.36-1.35-.6-2.11-1.11l.85-.71h-4.03l.9.71c-.71.52-1.16.78-1.96,1.11-.92.38-1.54.55-2.64.76-.18-.51-.41-.84-.87-1.32,1.84-.29,3.13-.71,3.94-1.26h-.84ZM310.82,18.66c0,.54.01.81.06,1.16-.36-.03-.72-.04-1.48-.04h-9.2c-.72,0-1.18.01-1.5.04.04-.36.06-.62.06-1.16v-1.12c0-.55-.02-.81-.06-1.21.41.04.81.06,1.62.06h8.94c.81,0,1.22-.02,1.62-.06-.04.39-.06.66-.06,1.21v1.12ZM302.24,17.61h-2v.93h2v-.93ZM301.23,22.16h7.16v-.63h-7.16v.63ZM301.23,23.87h7.16v-.62h-7.16v.62ZM301.23,25.64h7.16v-.68h-7.16v.68ZM305.69,17.61h-2v.93h2v-.93ZM309.29,18.55v-.93h-2.14v.93h2.14Z"/>
        <path d="M314.97,24.59c.67-.24.95-.33,1.46-.54v-6.37c0-.72-.03-1.1-.09-1.67h1.72c-.08.5-.09.93-.09,1.67v10.17c.72-.42.96-.6,1.54-1.12.66-.6,1.11-1.11,1.59-1.74-1.11-1.83-1.63-3.62-2.04-6.76-.38.01-.5.03-.74.06v-1.62c.47.06.89.09,1.5.09h4.44c.43,0,.78-.01,1.15-.06q-.03.18-.07.54c-.36,3.15-1.11,5.55-2.37,7.71,1.06,1.23,1.77,1.84,3.17,2.7-.39.58-.54.89-.81,1.61-1.29-.87-2.47-1.92-3.3-2.92-.99,1.27-1.93,2.16-3.21,3.01-.18-.51-.38-.83-.85-1.37.01.54.03.84.09,1.25h-1.72c.06-.57.09-.93.09-1.67v-2.01c-.87.36-1.92.75-2.96,1.11-.3.1-.38.13-.66.24l-.3-1.65c.43-.08.58-.12.95-.2v-6.03c0-.72-.03-1.12-.09-1.65h1.68c-.06.51-.08.88-.08,1.65v5.58ZM320.55,18.22c.19,1.48.24,1.68.43,2.49.27,1.16.57,1.98,1.02,2.8.87-1.68,1.31-3.13,1.59-5.29h-3.04Z"/>
        <path d="M102.68,42.12c0,.38.18,1.08.54,2.03,1.16-.29,1.83-.53,3.41-1.2.09-.03.13-.04.18-.04.15,0,.25.27.48,1.25.01.07.01.09.03.15.02.03.02.04.02.06,0,.1-.06.17-.21.22-.77.33-1.64.6-3.24,1.02.78,1.45,1.89,2.71,2.97,3.34.08.04.12.1.12.18,0,.18-.33.88-.58,1.25-.13.19-.22.27-.36.27-.1,0-.13-.01-.33-.17-.31-.22-1.06-.57-1.6-.72-.64-.18-1.23-.25-1.92-.25-1.77,0-2.67.5-2.67,1.46,0,.54.29.92.9,1.21.7.34,1.99.54,3.51.54.45,0,.75-.01,1.2-.08-.24.46-.31.66-.6,1.59-.08.23-.2.29-.6.29-1,0-2.27-.13-3.03-.32-2-.49-3.13-1.62-3.13-3.12,0-.72.29-1.42.78-1.94.69-.67,1.8-1.05,3.22-1.05.93,0,1.53.11,2.33.42-.87-.93-1.31-1.53-1.83-2.55-.92.17-1.68.27-2.57.36-.52.04-1.68.12-1.9.12-.21,0-.27-.04-.35-.3-.09-.28-.17-.76-.24-1.42.5.02.73.03,1,.03.9,0,2.38-.12,3.36-.27-.13-.3-.39-.95-.54-1.35-.24-.66-.34-.9-.54-1.23.71-.12,1.47-.2,1.82-.2.29,0,.39.08.39.25v.17Z"/>
        <path d="M113.18,46.02c-.67.13-1.32.3-1.74.45-.11.04-.2.06-.27.06-.13,0-.21-.08-.3-.33-.11-.33-.21-.86-.27-1.38.22.01.33.03.46.03.57,0,1.18-.08,2.13-.26l.03-.9c.02-.21.02-.36.02-.41,0-.64-.02-1.04-.08-1.44.79.03,1.29.09,1.77.21.2.04.29.13.29.27,0,.06-.01.11-.09.27-.13.28-.15.46-.25,1.71.33.22.62.54.62.69,0,.09-.04.17-.18.33-.22.24-.3.34-.58.76q-.03.39-.03.5c.5-.43.82-.72,1.33-1.09.57-.43,1.2-.84,1.65-1.06.58-.32.99-.42,1.53-.42.79,0,1.37.3,1.68.87.18.36.25.71.25,1.29,0,.51-.03.99-.12,2.08-.12,1.29-.18,2.25-.18,2.83s.13.76.55.76c.6,0,1.33-.43,1.98-1.17.01.58.06.77.25,1.37.04.12.06.2.06.25,0,.17-.08.3-.33.5-.61.5-1.5.81-2.29.81-1.32,0-1.92-.69-1.92-2.2,0-.69.04-1.58.2-3.67.04-.5.06-.92.06-1.12,0-.62-.21-.9-.66-.9s-1.33.48-2.52,1.39c-.6.45-.94.77-1.57,1.41v.69c0,1.12.07,3.72.13,4.63v.18c0,.12-.02.17-.04.21-.08.09-.51.15-1.2.15-.43,0-.53-.06-.53-.32,0-.09,0-.24.02-.4v-.35q.01-.52.08-3.38-.86,1.11-1.37,1.94c-.13.21-.23.29-.34.29s-.39-.24-.86-.75c-.29-.33-.39-.47-.39-.56,0-.07.03-.13.13-.24.95-.98,1.74-1.91,2.87-3.32l.03-1.27Z"/>
        <path d="M125.82,46.31h-.09c-.08.02-.14.02-.17.02-.13,0-.21-.06-.25-.25-.09-.38-.15-.84-.18-1.41.21.01.38.01.48.01.81,0,1.75-.06,2.55-.17.15-.99.22-1.75.22-2.37v-.35c1.74.23,2.07.33,2.06.6,0,.07-.03.12-.09.25-.18.34-.19.39-.43,1.57.58-.1,1.33-.3,1.63-.4.06-.03.08-.03.12-.03.13,0,.17.06.29.58.06.3.12.72.12.84,0,.11-.04.17-.18.2q-.27.09-2.32.45c-.69,3.04-1.41,5.29-2.57,7.99-.08.2-.15.27-.24.27-.2,0-.72-.21-1.23-.5-.25-.13-.33-.21-.33-.29,0-.06.04-.17.12-.32,1.14-2.16,1.96-4.45,2.54-6.93-.66.09-1.12.14-2.04.21ZM132.23,52.01c.44.29,1.07.42,1.95.42.97,0,1.82-.09,2.29-.24.12-.03.15-.04.21-.04.13,0,.2.04.24.18.1.31.18.93.18,1.39,0,.2-.06.27-.25.32-.5.1-1.33.16-2.22.16-1.88,0-2.92-.3-3.62-1.02-.25-.27-.46-.62-.58-.99-.09-.21-.15-.46-.15-.55,0-.25.45-.53,1.23-.78.17.63.34.9.72,1.16ZM136.44,47.64c-.3-.04-.93-.07-1.46-.07-1.11,0-1.57.04-2.89.27-.03.01-.08.01-.1.01-.09,0-.14-.03-.17-.12-.04-.11-.11-.84-.11-1.16,0-.2.03-.29.15-.33.06-.03.15-.04.46-.11,1.02-.18,1.88-.25,2.92-.25.87,0,1.32.03,1.42.11.08.06.09.18.09.67,0,.43-.03.83-.06.92-.02.04-.08.08-.15.08-.03,0-.08,0-.12-.02Z"/>
        <path d="M147.6,47.09c2.05,0,3.39,1.21,3.39,3.06s-1.12,3.02-3.37,3.74c-.81.25-2.15.5-2.75.5-.32,0-.39-.08-.6-.51-.16-.35-.34-.56-.79-.87,3.77-.3,5.62-1.26,5.62-2.9,0-.92-.64-1.46-1.72-1.46-1.37,0-2.78.71-3.93,1.95-.21.21-.41.46-.54.69-.13.22-.23.3-.36.3-.22,0-.75-.22-1.11-.5-.18-.13-.24-.24-.24-.48q0-.12.04-.48s0-.15.01-.31c.08-.96.12-1.37.3-2.72q.03-.16.14-.87s.04-.33.12-.89c.01-.13.03-.25.03-.49.72.1,1.4.27,1.68.43.12.06.18.13.17.22,0,.06-.03.11-.07.2-.17.25-.21.39-.35.96-.13.57-.34,1.89-.38,2.38,1.53-1.41,2.87-1.96,4.71-1.96ZM147.33,42.81c.58.34.76.51.76.67,0,.13-.24.58-.5.96-.24.34-.33.42-.45.42-.07,0-.12-.03-.3-.17-1-.76-1.8-1.2-2.92-1.59-.22-.09-.27-.12-.27-.24,0-.15.12-.41.39-.79.24-.36.34-.45.51-.45.36,0,1.83.63,2.78,1.19Z"/>
        <path d="M153.99,50.93c.27-.24.34-.3.45-.3.19,0,1.09.66,1.75,1.29.75.69,1.59,1.69,1.59,1.9,0,.14-.03.17-.46.56-.57.52-.69.62-.79.62-.09,0-.18-.06-.25-.21-.53-.93-1.73-2.16-2.79-2.85-.12-.09-.18-.15-.18-.24,0-.1.03-.15.69-.76Z"/>
        <path d="M172.61,46.5c-.19-.66-.25-1.06-.43-2.91-.06-.72-.12-1.08-.27-1.59.91.02,1.5.06,1.9.17.23.06.33.17.33.33,0,.06-.01.13-.04.25-.1.36-.15.63-.15,1.02,0,.73.15,1.93.32,2.46.09.28.18.39.34.39.36,0,1.68-.69,2.4-1.25.19-.15.22-.17.3-.17.13,0,.27.11.5.39.38.51.67,1.06.67,1.27,0,.17-.11.27-.36.34-.93.25-2.46.86-3.49,1.35-1.83.9-2.66,1.72-2.66,2.65s.76,1.29,2.7,1.29c1.12,0,2.14-.1,3.52-.33.06-.01.17-.03.2-.03.12,0,.19.06.25.18.04.15.15,1.06.15,1.42,0,.21-.06.29-.26.34-.33.08-2.14.18-3.28.18-1.92,0-3.2-.25-3.99-.79-.67-.47-1.04-1.2-1.04-2.1,0-.69.2-1.3.6-1.9.52-.78,1.09-1.28,2.35-2.03-.31-.29-.43-.5-.57-.96ZM178.05,43.14c.12-.09.2-.12.29-.12.21,0,1.51,1.38,1.51,1.6,0,.09-.12.23-.41.46-.3.25-.33.27-.4.27-.09,0-.11,0-.39-.42-.3-.42-.72-.9-1.04-1.17-.04-.04-.07-.09-.07-.14,0-.07.13-.21.51-.49ZM181.31,43.55c0,.09-.04.15-.22.3-.21.18-.5.38-.56.38-.09,0-.12-.04-.3-.28-.34-.5-.55-.74-1.09-1.23-.06-.06-.08-.09-.08-.13,0-.13.57-.57.75-.57.25,0,1.5,1.28,1.5,1.54Z"/>
        <path d="M187.29,45.59c.97-.25,1.62-.34,2.33-.34,2.13,0,3.36,1.26,3.36,3.42,0,1.88-.81,3.39-2.45,4.59-.87.64-2.19,1.29-2.62,1.29-.2,0-.24-.04-.56-.5-.22-.34-.45-.55-.82-.83,1.72-.58,2.44-.96,3.22-1.63.9-.79,1.35-1.75,1.35-2.89,0-1.22-.57-1.91-1.58-1.91-.81,0-1.86.31-3.22.97-.2.09-.3.17-.55.35-.06.03-.12.06-.18.06-.29,0-.77-.84-1.1-1.96.56-.04.84-.12,2.82-.62ZM188.3,41.93c.54.17,1.35.32,2.08.41.3.03.41.04,1.17.08.22,0,.29.06.29.22,0,.5-.11,1.31-.2,1.46-.03.09-.1.12-.21.12-.34,0-1.56-.17-2.26-.31-1.19-.24-2.22-.54-2.43-.71-.05-.04-.08-.11-.08-.17,0-.12.31-.93.46-1.21.08-.12.12-.15.21-.15q.08,0,.96.27Z"/>
        <path d="M198.77,45.93c-.27.02-.43.03-.61.05-.14.01-.15.01-.17.01-.12,0-.18-.04-.23-.2-.08-.24-.18-1.04-.19-1.48.17.01.6.03,1.14.03.17,0,1.35-.07,1.88-.12.25-1.21.34-1.84.34-2.65,1.54.21,2.1.39,2.1.67,0,.11-.01.13-.24.48-.12.18-.17.34-.42,1.27.7-.12,1.12-.22,1.68-.41.1-.03.15-.04.22-.04.11,0,.13.08.23.51.07.38.12.69.12.85,0,.18-.04.21-.43.3-.51.12-1.38.27-2.31.39-.56,1.68-.93,2.58-1.62,3.99-.53,1.05-.83,1.61-1.23,2.24-.12.18-.19.24-.3.24-.15,0-.57-.22-1.09-.61-.24-.17-.3-.24-.3-.35s.06-.19.25-.46c.43-.54,1-1.47,1.5-2.46.42-.82.57-1.17,1-2.35-.58.04-.63.06-1.32.1ZM203.7,54.57c-1.64,0-2.75-.9-2.75-2.23s1.15-2.42,2.7-2.42c.36,0,.53.01,1.14.11-.06-.72-.06-1.01-.12-2.4,0-.29-.03-.67-.06-1.16.77.08,1.35.17,1.64.29.12.04.18.12.18.24,0,.08-.01.13-.03.24-.08.31-.09.54-.09.94,0,.56.04,1.5.09,2.24,1.07.48,1.5.72,2.25,1.3.33.25.45.39.45.51,0,.15-.08.29-.5.96-.18.3-.31.44-.42.44q-.09,0-.51-.39c-.33-.33-.71-.58-1.23-.9,0,1.39-1.02,2.23-2.74,2.23ZM203.67,51.36c-.72,0-1.21.34-1.21.87,0,.5.45.81,1.12.81.79,0,1.21-.41,1.21-1.2,0-.12,0-.24-.02-.24-.3-.15-.7-.24-1.11-.24ZM209.28,47.1c-.18.26-.27.33-.38.33-.08,0-.13-.03-.24-.13-.38-.36-.9-.75-1.46-1.09q-.36-.22-1.02-.53c-.21-.09-.29-.15-.29-.27,0-.11.08-.24.3-.58.36-.53.45-.62.58-.62.28,0,1.39.57,2.19,1.11.65.43.84.61.84.78,0,.12-.24.57-.54,1Z"/>
        <path d="M219.6,46.76c2.12,0,3.62,1.44,3.62,3.48,0,1.39-.74,2.65-1.96,3.39-.86.51-1.91.76-3.09.76-1.91,0-3.02-.76-3.02-2.07,0-1.19.99-2.03,2.4-2.03,1.27,0,2.19.64,2.8,1.96.76-.55,1.08-1.14,1.08-1.95,0-1.29-.92-2.13-2.36-2.13s-3.04.74-4.35,2.04c-.24.24-.46.5-.73.84-.11.15-.18.21-.27.21-.27,0-1.33-1.05-1.33-1.32,0-.13.06-.21.39-.45.34-.27.84-.71,1.47-1.3,1.46-1.38,2.52-2.54,4.09-4.46-1.88.24-3.13.45-3.6.62-.08.01-.12.03-.17.03-.12,0-.2-.07-.29-.3-.18-.45-.27-.94-.32-1.6.41.06.69.08,1.02.08.72,0,1.93-.11,3.51-.29.55-.06.73-.11,1.16-.27.13-.06.21-.08.3-.08.21,0,.42.18.81.78.29.39.38.58.38.71,0,.2-.04.25-.38.46-.27.17-.43.3-.78.63-.75.72-.76.72-1.69,1.67-.66.67-.74.75-1.33,1.35.97-.54,1.74-.77,2.64-.77ZM218.16,51.95c-.23-.15-.48-.23-.77-.23-.46,0-.76.23-.76.58,0,.44.46.71,1.18.71.33,0,.62-.03.99-.13-.18-.5-.33-.72-.64-.93Z"/>
        <path d="M231.75,51.11c-.72,1.25-1.71,1.94-2.73,1.94-1.56,0-2.67-1.53-2.67-3.66,0-2.37,1.2-4.41,3.25-5.49,1-.54,2.08-.78,3.51-.78,3.14,0,5.46,2.22,5.46,5.19,0,2.62-1.29,4.51-3.78,5.58-.5.21-.89.33-1.08.33-.18,0-.25-.06-.45-.34-.25-.39-.54-.68-.95-.95,3.09-.79,4.49-2.25,4.49-4.68,0-1.25-.53-2.29-1.46-2.96-.53-.36-.95-.51-1.77-.64-.42,3.16-.92,4.89-1.83,6.46ZM229.59,45.8c-1,.88-1.58,2.15-1.58,3.55,0,1.16.38,1.83,1,1.83.75,0,1.52-1.04,2.08-2.82.36-1.12.54-1.98.77-3.65-1.07.23-1.59.48-2.28,1.08Z"/>
        <path d="M243.14,44.48c.34-.9.67-1.38,1.25-1.86.69-.57,1.51-.84,2.56-.84,2.25,0,3.69,1.23,3.69,3.15,0,.65-.18,1.26-.53,1.75-.27.39-.39.51-1.23,1.28-1.17,1.05-1.42,1.46-1.42,2.25v.79h-1.53v-.84c0-.67.13-1.28.41-1.75.21-.38.43-.63,1.03-1.23.63-.61.83-.84.99-1.11.21-.3.33-.72.33-1.12,0-1-.67-1.63-1.74-1.63s-1.69.55-2.14,1.86l-1.67-.69ZM247.92,53.22c0,.66-.53,1.18-1.19,1.18s-1.18-.52-1.18-1.18.52-1.18,1.18-1.18,1.19.52,1.19,1.18Z"/>
      </g>
      <circle class="cls-12" cx="32.14" cy="51.75" r="30"/>
      <g>
        <path class="cls-8" d="M41.85,40.93c5.99-4.81,10.66-4.4,11.63-2.77.89,1.5-.2,9.39-9.11,4.98"/>
        <path class="cls-5" d="M46.09,43.51c2.15-3.69,6.52-2.97,7.64-2.44-1.95,3.62-3.96,4.96-7.64,2.44Z"/>
        <path class="cls-1" d="M49.08,45.08c-1.31,0-2.94-.38-4.99-1.39-.3-.15-.42-.51-.28-.82.15-.3.52-.42.82-.28,3.32,1.64,5.84,1.68,7.29.12,1.3-1.4,1.35-3.69,1.02-4.24-.21-.35-.72-.62-1.4-.75-.91-.16-4.27-.39-9.33,3.68-.26.21-.65.17-.86-.09-.21-.26-.17-.65.09-.86,3.68-2.96,7.53-4.43,10.31-3.92,1.04.19,1.83.66,2.23,1.32.64,1.09.43,3.95-1.18,5.69-.75.81-1.93,1.54-3.74,1.54Z"/>
        <path class="cls-8" d="M47.34,55.16c1.64-16.82-17.11-22.8-25.64-13.47-2.97,3.25-5.19,9.02-4.06,15.77-3.29,3.25-2.73,7.92,2.42,10.46,3.1,1.53,6.19,2.19,13.34,2.19,6.63,0,14.3-2.8,16.45-6.93,1.2-2.31.78-5.72-2.5-8.03Z"/>
        <path class="cls-2" d="M37.12,37.53c-.6-4.19-4.15-6.52-4.34-.47"/>
        <path class="cls-2" d="M25.43,38.59c-.51-4.2,2.31-7.38,4.07-1.58"/>
        <path class="cls-8" d="M20.97,41.65c-6.66-3.82-11.21-2.69-11.91-.92-.65,1.62,2.36,9.82,10.47,4.08"/>
        <ellipse class="cls-1" cx="36.6" cy="57.1" rx="1.44" ry="1.56" transform="translate(-8.44 6.39) rotate(-8.95)"/>
        <path class="cls-5" d="M17.7,45.47c-2.15-3.69-7.03-2.78-8.16-2.25,1.95,3.62,4.47,4.77,8.16,2.25Z"/>
        <path class="cls-5" d="M30.53,37.05c1.23,7.46-2.33,14.45-12.53,14.45,0-11.42,12.53-14.45,12.53-14.45Z"/>
        <path class="cls-5" d="M32.78,37.06c0,8.41,6.81,12.72,13.84,13.25,0-11.42-13.84-13.25-13.84-13.25Z"/>
        <path class="cls-5" d="M16.55,63.92c13.81-6.39,25.45-3.61,33.28-.74-3.13,7.57-29.25,10.15-33.28.74Z"/>
        <path class="cls-1" d="M33.39,70.73c-7.59,0-10.64-.79-13.61-2.26-2.68-1.33-4.37-3.31-4.74-5.59-.32-1.98.37-3.96,1.94-5.63-1.1-7.13,1.47-12.92,4.26-15.97,4.25-4.65,11.25-5.93,17.42-3.18,3.01,1.34,5.47,3.51,7.11,6.28,1.79,3.02,2.53,6.54,2.2,10.49,3.38,2.56,3.63,6.22,2.4,8.6-2.36,4.54-10.49,7.26-16.99,7.26ZM32.01,37.88c-3.76,0-7.35,1.46-9.87,4.22-2.64,2.89-5.06,8.42-3.91,15.26.03.2-.03.39-.17.53-1.44,1.42-2.08,3.13-1.81,4.79.3,1.88,1.75,3.54,4.07,4.69,2.8,1.38,5.71,2.13,13.07,2.13,6.88,0,14.01-2.96,15.91-6.6,1.03-1.98.75-5.1-2.31-7.25-.18-.13-.28-.34-.26-.56.71-7.25-2.49-13.19-8.56-15.89-2.01-.89-4.11-1.33-6.15-1.33Z"/>
        <ellipse cx="36.6" cy="57.1" rx="1.44" ry="1.56" transform="translate(-8.44 6.39) rotate(-8.95)"/>
        <ellipse class="cls-1" cx="28.93" cy="57.46" rx="1.56" ry="1.44" transform="translate(-29.92 83.45) rotate(-87.1)"/>
        <path class="cls-1" d="M14.32,47.44c-1.46,0-2.58-.54-3.4-1.18-2.09-1.64-2.9-4.58-2.43-5.75.29-.72.99-1.3,1.99-1.65,2.66-.93,6.69-.08,10.79,2.27.29.17.39.54.22.83-.17.29-.54.39-.83.22-5.62-3.23-8.91-2.48-9.78-2.18-.65.23-1.11.57-1.26.95-.21.53.31,2.97,2.06,4.35,1.89,1.49,4.48,1.14,7.49-.99.27-.19.65-.13.85.15.19.27.13.65-.15.85-2.23,1.58-4.07,2.14-5.55,2.14Z"/>
        <path class="cls-1" d="M37.11,38.14c-.3,0-.56-.22-.6-.52-.32-2.23-1.48-3.66-2.12-3.62-.31.02-.93.69-1,3.09-.01.34-.3.59-.63.59-.34-.01-.6-.29-.59-.63.11-3.61,1.4-4.22,2.15-4.27.03,0,.06,0,.09,0,1.46,0,2.94,2.06,3.31,4.67.05.33-.18.64-.52.69-.03,0-.06,0-.09,0Z"/>
        <path class="cls-1" d="M25.43,39.2c-.3,0-.57-.23-.6-.54-.32-2.66.61-5.08,2.07-5.39.74-.15,2.14.1,3.19,3.56.1.32-.08.66-.41.76-.32.1-.66-.08-.76-.41-.7-2.3-1.46-2.78-1.77-2.72-.62.13-1.38,1.81-1.11,4.05.04.33-.2.64-.53.68-.02,0-.05,0-.07,0Z"/>
        <path class="cls-1" d="M37.86,48.63c-.65-1.09-1.64-1.26-2.41-.7-.18.13-.11.42.12.44.71.07,1.33.3,1.98.61.22.1.44-.14.31-.35Z"/>
        <path class="cls-1" d="M26.97,49.04c.65-1.09,1.64-1.26,2.41-.7.18.13.11.42-.12.44-.71.07-1.33.3-1.98.61-.22.1-.44-.14-.31-.35Z"/>
        <circle class="cls-1" cx="34.24" cy="63.04" r=".57"/>
        <circle class="cls-1" cx="32.46" cy="63.04" r=".57"/>
        <g>
          <path class="cls-3" d="M29.01,66.11c.26-1.62,1.74-1.61,4.44-1.25,2.71.36,2.2,2.71.36,2.65s-5.11.51-4.8-1.4Z"/>
          <path class="cls-1" d="M31.55,68c-1.12,0-2.14-.12-2.67-.72-.29-.32-.39-.74-.31-1.24h0c.36-2.23,2.69-1.92,4.94-1.62,1.77.23,2.33,1.23,2.27,2.01-.06.77-.78,1.57-1.98,1.53-.34,0-.74,0-1.17.02-.36.01-.72.02-1.08.02ZM29.45,66.18c-.05.3.03.44.1.51.42.48,1.94.43,3.05.39.44-.01.85-.03,1.22-.02.66.02,1.04-.34,1.07-.71.03-.42-.42-.91-1.49-1.05-2.96-.39-3.77-.21-3.94.88h0Z"/>
        </g>
      </g>
      <g>
        <path class="cls-1" d="M322.89,146.46c1.81.14,1.23,2.13.34,3.29-.19.24-.54.27-.77.08-1.57-1.34-1.02-3.48.43-3.36Z"/>
        <path class="cls-1" d="M322.79,147.25c-.31,0-.57-.25-.57-.57v-3.57l-.9-1.25c-.18-.25-.12-.61.13-.79.25-.18.61-.12.79.13l1,1.4c.07.1.11.21.11.33v3.75c0,.31-.25.57-.57.57Z"/>
        <polygon class="cls-6" points="319.95 137.52 313.82 136.95 316.55 142.46 322.79 143.12 319.95 137.52"/>
        <rect class="cls-6" x="313.24" y="140.62" width="6.67" height="2.9" transform="translate(157.02 -166.06) rotate(38.45)"/>
        <path class="cls-1" d="M318.31,146.31c-.12,0-.25-.04-.35-.12-.25-.19-.29-.55-.09-.8l2.25-2.85c.12-.15.31-.23.51-.21l1.19.13-2.23-4.39-4.8-.45.7,1.41c.1.19.07.42-.06.59l-1.81,2.4c-.19.25-.54.3-.79.11-.25-.19-.3-.54-.11-.79l1.6-2.12-.99-2.01c-.09-.18-.08-.4.04-.57.12-.17.31-.27.52-.24l6.12.57c.19.02.37.13.45.31l2.84,5.6c.09.19.08.41-.04.58-.12.17-.32.26-.53.24l-1.92-.2-2.06,2.61c-.11.14-.28.22-.45.22Z"/>
        <path class="cls-7" d="M314.27,169.26l4.18-1.62,2.02-5.47-.29-8.15-2.24-7.54-3.74-4.67-5.59-1.9-5.52-.3-7.14,3.84-3.23,5.74-3.98,4.71-1.8,4.98,1.36,4.52,9.81,4.92c2.84,1.15,12.97,1.45,16.17.94Z"/>
        <path class="cls-13" d="M287.36,155.61c4.88.32,7.71,5.48,5.9,11.02-4.77-2.59-7.43-5.23-5.9-11.02Z"/>
        <path class="cls-13" d="M320.54,159.36c-5.64-.78-9.96,4.07-9.08,10.38,5.99-1.67,9.58-3.87,9.08-10.38Z"/>
        <path class="cls-1" d="M298.84,148.5c1.6-.65,3.04-.03,3.72,1.21.16.29-.14.55-.45.39-1.01-.51-1.99-.76-3.07-.96-.36-.07-.49-.51-.19-.64Z"/>
        <path class="cls-1" d="M311.55,150.94c-1.18-1.26-2.75-1.29-3.88-.44-.27.2-.1.55.25.54,1.13-.04,2.13.14,3.2.4.36.09.66-.26.44-.5Z"/>
        <path class="cls-1" d="M307.55,159.98c-.14,0-.27-.05-.39-.14-.25-.21-.29-.59-.07-.85.68-.81,1.51-1.23,2.34-1.19.75.04,1.43.46,1.93,1.18.19.27.12.65-.15.84-.27.19-.65.12-.84-.15-.2-.29-.53-.64-1-.66-.44-.02-.92.25-1.36.77-.12.14-.29.21-.46.21Z"/>
        <path class="cls-1" d="M300.1,158.72c-.19,0-.37-.09-.49-.25-.37-.52-.72-.8-1-.81,0,0,0,0-.02,0-.33,0-.68.34-.92.64-.21.26-.59.29-.85.08-.26-.21-.29-.59-.08-.85.6-.74,1.23-1.1,1.9-1.08.7.02,1.33.45,1.94,1.31.19.27.13.65-.14.84-.11.08-.23.11-.35.11Z"/>
        <path class="cls-1" d="M310.33,170.31c-.31,0-.56-.25-.57-.56,0-.31.24-.57.56-.58,3.72-.08,6.39-.95,7.93-2.58,1.98-2.1,1.87-5.19,1.79-7.45l-.02-.46c-.13-4.27-1.4-18.26-12.21-18.99-9.16-.62-12.59,5.21-14.85,9.07-.46.78-.86,1.46-1.24,1.98-.11.15-.23.31-.37.48-1.58,2.06-4.51,5.88-3.4,9.55.8,2.64,3.61,4.79,8.34,6.41,1.43.49,2.87.87,4.3,1.14.31.06.51.35.45.66s-.36.51-.66.45c-1.48-.28-2.97-.67-4.45-1.18-5.1-1.74-8.15-4.15-9.07-7.16-1.28-4.23,2.01-8.51,3.59-10.57.13-.17.25-.33.36-.47.35-.47.73-1.12,1.17-1.87,2.26-3.85,6.04-10.29,15.91-9.63,5.1.34,8.83,3.35,11.1,8.93,1.72,4.24,2.1,8.81,2.17,11.16l.02.46c.09,2.46.21,5.83-2.1,8.27-1.78,1.89-4.64,2.85-8.73,2.94,0,0,0,0-.01,0Z"/>
        <path class="cls-1" d="M298.44,157.41c-.06,0-.12-.02-.18-.06-.75-.6-1.14-1.21-1.43-2.27-.04-.15.05-.31.2-.35.15-.04.31.05.35.2.29,1.07.66,1.52,1.23,1.97.12.1.14.28.05.4-.06.07-.14.11-.22.11Z"/>
        <path class="cls-1" d="M310.43,158.95c-.14,0-.26-.1-.28-.25-.02-.16.09-.3.24-.32.67-.09,1.43-.66,1.87-1.39.08-.13.25-.18.39-.1.13.08.18.25.1.39-.52.88-1.44,1.55-2.28,1.67-.01,0-.03,0-.04,0Z"/>
        <path class="cls-1" d="M311.77,159.48c-.37,0-.75-.07-1.12-.24-.14-.07-.21-.23-.14-.38.07-.14.23-.2.38-.14.86.39,1.83.09,2.49-.24.14-.07.31-.01.38.13.07.14.01.31-.13.38-.5.25-1.16.48-1.86.48Z"/>
        <path class="cls-1" d="M297.57,157.41c-.8,0-1.66-.46-2.34-1.26-.1-.12-.09-.3.03-.4.12-.1.3-.09.4.03.62.73,1.4,1.13,2.07,1.05.16-.02.3.09.31.25.02.16-.09.3-.25.31-.07,0-.15.01-.22.01Z"/>
        <g>
          <path class="cls-4" d="M307.74,163.14c-.67-1.83-3.64-3.8-5.16-3.59-1.51.21-4.7,2.06-5.7,2s-1.68-.73-1.8,1.59,1.7,3.51,4.13,2.66c3.37,1.92,9.68.49,8.53-2.66Z"/>
          <path class="cls-4" d="M307.74,165.52c-.75,3.68-4.93,5.84-6.2,5.3s-2.85-1.42-1.47-4.62c2.5.53,6.91-.12,7.03-1.63.12-1.52.63.96.63.96Z"/>
          <path class="cls-11" d="M301.32,166.52c-.73,1.35-.38,3.07,1.83,1.99s2.21-2.29,2.21-2.29c0,0,1.45-.73-.48,0-1.94.73-3.55.3-3.55.3Z"/>
          <path class="cls-1" d="M302.82,167.24c-1.06,0-2.19-.33-3.37-.99-2.29.66-3.56.04-4.23-.6-.84-.81-1.16-2.1-.83-3.37.34-1.28.9-1.38,1.8-1.41.65-.02,1.63-.04,3.22-.88,3.52-1.85,5.58-.79,7.59,1.38.19.2.18.52-.03.7-.2.19-.52.18-.7-.03-1.79-1.93-3.42-2.74-6.4-1.17-1.8.95-2.92.97-3.66.99-.69.02-.69.03-.86.67-.24.91-.02,1.85.55,2.4.71.68,1.91.79,3.46.3.13-.04.28-.02.4.05,1.93,1.13,4.69,1.81,6.88-1.38.13-.19.38-.27.6-.18,0,0,.72.29,1.36.43.27.06.44.32.38.59-.06.27-.33.44-.59.38-.42-.09-.85-.24-1.15-.34-1.22,1.63-2.73,2.45-4.41,2.45Z"/>
          <path class="cls-1" d="M302.13,171.37c-.6,0-1.18-.14-1.7-.42-.85-.46-1.39-1.1-1.6-1.92-.43-1.62.6-3.29.65-3.36.15-.23.45-.3.68-.16.23.15.3.45.16.68,0,.01-.85,1.39-.53,2.59.15.55.51.97,1.11,1.3.86.46,1.92.39,3-.19,1.51-.82,3.14-2.8,3.35-5.36.02-.27.26-.48.54-.45.27.02.48.26.45.54-.21,2.58-1.73,4.99-3.86,6.15-.76.41-1.52.62-2.25.62Z"/>
        </g>
      </g>
    </g>
  </g>
</svg>