<?xml version="1.0" encoding="UTF-8"?>
<svg id="_レイヤー_2" data-name="レイヤー 2" xmlns="http://www.w3.org/2000/svg" width="339.63" height="320.82" viewBox="0 0 339.63 320.82">
  <defs>
    <style>
      .cls-1 {
        fill: #211815;
      }

      .cls-2 {
        fill: #f5f19b;
      }

      .cls-3 {
        fill: #ecbb6e;
      }

      .cls-4 {
        fill: #93c9ce;
      }

      .cls-5 {
        fill: #5c948d;
      }

      .cls-6 {
        fill: #fffba1;
      }

      .cls-7, .cls-8 {
        fill: #fff;
      }

      .cls-9 {
        fill: #d3f2c9;
      }

      .cls-10 {
        fill: #fffb9f;
      }

      .cls-11 {
        fill: #ceeaeb;
      }

      .cls-12 {
        fill: #f2d496;
      }

      .cls-8 {
        stroke: #ceeaeb;
        stroke-miterlimit: 10;
        stroke-width: 2.83px;
      }
    </style>
  </defs>
  <g id="_レイヤー_1-2" data-name="レイヤー 1">
    <g>
      <path class="cls-8" d="M329.75,1.42H90.37c-4.68,0-8.47,3.79-8.47,8.47v64.05s-9.69,9.69-9.69,9.69h9.69s0,.5,0,.5c0,4.68,3.79,8.47,8.47,8.47h239.38c4.68,0,8.47-3.79,8.47-8.47V9.89c0-4.68-3.79-8.47-8.47-8.47Z"/>
      <g>
        <path d="M101.69,19.48c-.48,3.17-1.74,5.5-3.75,6.99-.57.42-1.02.68-1.17.68-.11,0-.17-.04-.29-.18-.38-.42-.74-.73-1.23-1.02,1.73-.79,2.85-1.81,3.63-3.27.51-.95.83-1.95.99-3.2-.32,0-.54.02-.71.02-1.33,0-2,.03-2.59.15-.15.02-.21.03-.24.03-.17,0-.27-.08-.31-.24-.06-.21-.18-1.3-.2-1.68,1.16.13,1.91.17,3.69.17h.53c.03-.6.04-.96.04-1.44,0-.58-.01-.89-.08-1.26,1.74.08,2.19.18,2.19.45q0,.06-.09.27c-.11.27-.17.61-.21,1.32-.02.25-.03.39-.05.66h2.24q.67-.03.79-.04t.5-.2s.13-.03.2-.03c.24,0,.45.13.85.54.41.4.57.65.57.84,0,.15,0,.17-.2.57-.04.09-.1.47-.12.77-.15,2.69-.45,4.66-.81,5.46-.24.54-.58.85-1.17,1.06-.39.15-.78.19-1.52.19-.99,0-1.12-.04-1.18-.39-.08-.48-.2-.82-.48-1.44.63.12,1,.15,1.5.15.87,0,1.12-.12,1.32-.63.34-.93.62-3.13.65-5.31h-3.3Z"/>
        <path d="M115.43,18.16c-2.68.02-4.57.1-5.05.24-.01.01-.03.01-.04.01-.29,0-.38-.49-.42-2.04.74.1,1.7.15,3.92.15,2.01,0,4.36-.04,4.74-.09.27-.03.36-.05.63-.15.08-.03.11-.03.17-.03.25,0,.57.24,1.05.81.28.36.34.45.34.61,0,.1-.04.2-.15.33-.15.18-.17.23-.5,1.27-.84,2.64-2.5,5.01-4.75,6.75-.9.69-1.75,1.21-1.98,1.21-.17,0-.2-.02-.54-.36-.41-.41-.72-.65-1.12-.85,2.21-1.11,3.41-2.02,4.56-3.5,1.04-1.3,1.68-2.71,2.03-4.39q-1.17.01-2.87.01ZM121.91,16.65c-.33.28-.52.42-.61.42s-.09,0-.36-.45c-.24-.4-.6-.87-.95-1.21-.06-.06-.07-.09-.07-.13,0-.12.57-.54.73-.54.12,0,.3.15.75.66.41.47.69.87.69.98s-.04.17-.18.29ZM122.58,15.88c-.36-.61-.71-1.05-1.11-1.44-.06-.06-.08-.09-.08-.12,0-.07.08-.15.33-.33.2-.15.29-.18.39-.18.16.02.55.39,1.06,1.05.21.27.34.5.34.57s-.04.15-.22.29c-.24.18-.46.31-.55.31-.06,0-.11-.03-.17-.15Z"/>
        <path d="M125.97,18.99c-.81,0-.84,0-.93-.18-.09-.15-.2-.78-.24-1.44.56.06,1.1.09,1.82.09.43,0,1.02-.01,1.63-.06.12-.9.15-1.22.15-1.77,0-.25-.02-.45-.04-.79.73.04,1.57.18,1.9.3.12.04.17.09.17.21,0,.09-.01.15-.1.33-.14.3-.2.54-.29,1.02-.04.28-.06.34-.09.54,1.23-.15,2.46-.42,3.31-.75.12-.03.18-.04.24-.04.1,0,.15.07.21.38.06.33.13.93.13,1.09,0,.18-.06.21-.51.31-1.18.24-2.67.46-3.71.56-.45,1.8-.66,2.38-1.2,3.39.84-.66,1.29-.92,2.01-1.17.64-.24,1.27-.34,1.95-.34,1.09,0,1.98.3,2.55.87.53.52.83,1.31.83,2.12,0,1.11-.52,2.01-1.65,2.76-.83.57-2.19,1.05-3.56,1.23-.24.03-.48.06-.57.06-.23,0-.33-.08-.44-.26-.29-.54-.52-.85-.92-1.23,1.4-.06,2.46-.25,3.54-.64,1.14-.41,1.8-1.1,1.8-1.89,0-1.02-.61-1.63-1.63-1.63-1.69,0-3.58,1.05-4.8,2.65-.09.1-.18.17-.27.17-.27,0-1.31-.94-1.31-1.19,0-.08.02-.1.17-.3.79-1.08,1.41-2.6,1.85-4.46-.26.02-1.85.08-2.01.08Z"/>
        <path d="M147.33,19.27c1.57,0,2.61.99,2.61,2.5,0,.87-.39,1.58-1.09,2.01-.43.25-1.18.44-1.89.44-.39,0-.81-.05-.9-.09-.12-.06-.17-.15-.21-.36-.08-.39-.21-.75-.5-1.25.75.18,1.16.24,1.61.24.88,0,1.39-.39,1.39-1.08s-.45-1.06-1.26-1.06c-.63,0-1.37.24-3.33,1.08,1.26,3.12,2.01,5.17,2.01,5.43,0,.14-.1.21-.46.33-.45.18-.83.29-.94.29-.09,0-.15-.06-.18-.18-.34-1.46-.81-2.83-1.74-5.25t-.12.06c-.46.24-.88.48-1.19.71-.18.12-.29.18-.39.18-.13,0-.24-.09-.42-.33-.11-.15-.54-.89-.71-1.21.67-.17,1.28-.38,2.25-.79-.41-.98-.69-1.49-1.14-2.08.81-.3,1.38-.47,1.62-.47.26,0,.32.08.35.38q.03.39.54,1.6c.67-.28,1.24-.48,2.02-.72-.01-.03-.03-.04-.06-.08-.3-.4-.66-.79-1.07-1.12-.06-.04-.09-.09-.09-.13,0-.1.04-.17.33-.42.31-.27.54-.41.63-.41.29,0,1.38,1.04,1.38,1.29,0,.12-.33.48-.67.73.74-.18,1.06-.23,1.62-.23Z"/>
        <path d="M159.93,15.6c.18.12.25.21.25.31s-.01.12-.24.38c-.08.09-.3.42-.54.83q-.75,1.25-1.16,1.96c-.42.71-.69,1.19-.84,1.41q-.04.07-.25.45c-.2.35-.32.52-.53.81.97-.85,1.5-1.08,2.49-1.08.66,0,1.25.29,1.62.78.31.42.4.81.54,2.28.07.88.15,1.27.25,1.5.1.21.31.33.58.33,1.03,0,2.26-1.25,2.86-2.88.15.63.27.93.58,1.48.11.18.14.3.14.45,0,.17-.08.38-.26.66-.78,1.26-2.05,2.01-3.42,2.01-.85,0-1.57-.3-1.95-.79-.3-.42-.44-.98-.56-2.44-.07-.96-.15-1.29-.36-1.53-.17-.18-.41-.27-.74-.27-.99,0-2.29,1.33-3.06,3.1-.22.51-.38.97-.54,1.54-.06.22-.13.31-.24.31-.31,0-1.04-.3-1.42-.58-.1-.09-.15-.15-.15-.24,0-.07.03-.15.22-.57.12-.27.17-.35.27-.62q1.11-2.59,4.19-8.82c.34-.69.51-1.12.61-1.58.78.29,1.14.47,1.62.79Z"/>
        <path d="M174.45,24.96c1.23,0,2.59-.18,3.94-.52.08-.03.12-.03.17-.03.09,0,.13.06.17.2.04.33.08.81.08,1.3,0,.3-.03.39-.17.45-.45.24-2.47.46-4.21.46-2.26,0-3.55-.38-4.59-1.35-.5-.46-.99-1.27-.99-1.6,0-.22.13-.31,1.37-1.02.54,1.48,1.79,2.11,4.25,2.11ZM174.59,16.33c.87,0,1.38-.03,2.4-.18h.11c.12,0,.17.04.2.13.03.18.06.63.06,1.17,0,.35-.03.47-.12.53-.12.07-1.42.17-2.43.17-1.33,0-2.45-.1-3.69-.35-.85-.17-.9-.21-.9-.73,0-.35.03-.92.08-1.33,1.3.4,2.73.6,4.3.6Z"/>
        <path d="M187.62,24.24c-.72,1.25-1.71,1.94-2.73,1.94-1.56,0-2.67-1.53-2.67-3.66,0-2.37,1.2-4.41,3.25-5.49,1-.54,2.08-.78,3.51-.78,3.14,0,5.46,2.22,5.46,5.19,0,2.62-1.29,4.51-3.78,5.58-.5.21-.89.33-1.08.33-.18,0-.25-.06-.45-.34-.25-.39-.54-.68-.95-.95,3.09-.79,4.49-2.25,4.49-4.68,0-1.25-.53-2.29-1.46-2.96-.53-.36-.95-.51-1.77-.64-.42,3.16-.92,4.89-1.83,6.46ZM185.46,18.93c-1,.88-1.58,2.15-1.58,3.55,0,1.16.38,1.83,1,1.83.75,0,1.52-1.04,2.08-2.82.36-1.12.54-1.98.77-3.65-1.07.23-1.59.48-2.28,1.08Z"/>
        <path d="M200.09,16.44c-.34-.6-.57-.9-1.16-1.58l1.56-.45c.72.94.93,1.26,1.33,2.02h1.95c.54-.65.9-1.22,1.26-2.01l1.63.44c-.39.62-.79,1.15-1.16,1.58h2.22c.69,0,1.12-.03,1.53-.09v1.54c-.45-.06-.79-.07-1.53-.07h-9.78c-.72,0-1.08.01-1.54.07v-1.54c.55.08.81.09,1.54.09h2.13ZM198.71,26.26c0,.74.01,1.12.08,1.54h-1.65c.06-.48.08-.91.08-1.65v-6.19c0-.71-.01-.92-.04-1.29.41.03.76.04,1.35.04h2.79c.75,0,.99-.02,1.29-.04-.03.33-.04.67-.04,1.44v6.18c0,1.12-.33,1.4-1.65,1.4-.21,0-.38,0-.9-.03-.11-.65-.15-.84-.36-1.41.46.07.75.1,1.02.1.33,0,.4-.06.4-.33v-1.23h-2.35v1.47ZM201.06,21.07v-.99h-2.35v.99h2.35ZM201.06,23.44v-1.02h-2.35v1.02h2.35ZM205.49,18.91c-.04.42-.06.65-.06,1.38v3.08c0,.9.01,1.14.06,1.54h-1.63c.04-.42.06-.68.06-1.54v-3.09c0-.68-.02-.93-.06-1.37h1.63ZM208.56,18.52c-.06.41-.08.83-.08,1.53v6.06c0,1.31-.39,1.64-1.95,1.64-.34,0-.64-.02-1.54-.06-.1-.6-.19-.93-.45-1.53.78.1,1.32.15,1.75.15.58,0,.66-.06.66-.45v-5.85c0-.81-.02-1.06-.08-1.49h1.68Z"/>
        <path d="M216.5,23.59c2.73,0,5.01-.04,6.09-.13.17-.02.27-.02.33-.02.09,0,.14.02.18.03.1.06.13.31.13,1.14,0,.77-.03.84-.29.84t-.25-.02c-.79-.08-1.71-.09-3.64-.09-4.14,0-6.11.04-7.02.18-.15.03-.21.03-.27.03-.34,0-.41-.27-.52-2.07,1.21.08,2.68.1,5.26.1ZM216.96,17.14c2.01,0,3.17-.04,4.02-.15.09-.02.11-.02.17-.02.17,0,.22.05.25.26.02.12.03.65.03,1.06,0,.51-.04.63-.24.63-.06,0-.13,0-.25-.02-.3-.02-2.49-.03-4.23-.03-1.16,0-1.94.01-2.76.07-.2.02-.44.03-.47.03-.18,0-.28-.08-.34-.23-.08-.21-.15-1.09-.15-1.8.91.13,1.87.18,3.97.18Z"/>
        <path d="M230.31,21.15c-.54,0-.9.03-1.23.08-.04.02-.08.02-.11.02-.13,0-.22-.08-.25-.24-.08-.33-.12-.81-.12-1.47.51.1,1.42.15,3.08.15,1.37,0,1.5-.02,1.77-.14.06-.01.12-.03.17-.03.25,0,.5.13.86.45.31.28.52.58.52.73,0,.06-.03.13-.12.25q-.18.24-.42,1.67c-.18,1.19-.27,1.66-.38,2.16t-.01.09c1.33,0,1.59-.02,2.24-.06h.09c.21,0,.25.15.25.93,0,.62-.03.71-.23.71-.07,0-.1,0-.72-.03-.5-.03-2.1-.05-3.52-.05-2.33,0-4.07.05-4.7.12h-.13c-.21,0-.3-.04-.36-.17-.06-.18-.12-.61-.18-1.54,1.05.09,1.47.1,5.58.1.03-.12.03-.13.04-.25.2-.94.38-2.21.51-3.48h-2.62Z"/>
        <path d="M245.64,20.35c2.75,0,4.32-.03,5.83-.13h.2c.45,0,.45.01.45,1.21,0,.61-.04.72-.3.72h-.06c-.99-.04-1.54-.04-5.88-.04-1.59,0-2.38.02-3.76.06h-.44c-.48,0-.55.02-.84.06-.08,0-.13.02-.17.02-.17,0-.27-.08-.3-.21-.09-.38-.15-1.14-.15-1.83,1.21.12,2.28.15,5.42.15Z"/>
        <path d="M264.95,24.04c.96.87,1.54,1.5,1.54,1.67,0,.13-.2.38-.66.82-.34.33-.5.44-.6.44-.06,0-.13-.03-.22-.1q-.17-.19-.86-.98c-.83-.93-1.95-1.92-3.25-2.85-.99,1.03-2.33,2.16-3.4,2.9-.86.58-1.67,1.03-1.85,1.03-.15,0-.17-.02-.52-.42-.21-.24-.56-.54-.93-.81,1.73-.79,3-1.65,4.42-2.95,1.54-1.41,2.57-2.71,3.77-4.79q-5.07.03-5.9.12c-.18.02-.21.02-.24.02-.17,0-.25-.08-.29-.24-.08-.48-.11-.93-.11-1.72,1.02.13,2.61.19,4.79.19.88,0,1.81-.03,2.31-.09.2-.02.23-.03.54-.14.06-.03.09-.03.18-.03.25,0,.52.21.88.69.29.4.45.72.45.88,0,.18-.05.24-.44.6-.24.24-.34.36-.81,1.12-.45.75-1.14,1.69-1.71,2.38,1.17.78,1.96,1.38,2.89,2.25Z"/>
        <path d="M96.92,42c-.76.39-1.05.75-1.15,1.42.13-.03.27-.04.31-.04.6,0,1.05.48,1.05,1.09,0,.66-.46,1.12-1.11,1.12-.79,0-1.26-.58-1.26-1.59,0-.6.18-1.27.44-1.69.25-.39.58-.68,1.12-.98l.6.66ZM99.81,42c-.77.39-1.05.75-1.16,1.42.13-.03.27-.04.31-.04.6,0,1.05.48,1.05,1.09,0,.66-.47,1.12-1.11,1.12-.79,0-1.26-.58-1.26-1.54,0-1.29.46-2.11,1.56-2.71l.6.66Z"/>
        <path d="M111.78,53.22h-1.8v-4.3c0-1.33.03-3.03.08-5.59h-.21c-.24,1.12-.75,3.45-.9,4.06l-1.41,5.83h-2.15l-1.47-6.06c-.27-1.08-.46-1.96-.84-3.84h-.23c.08,3.94.09,5.04.09,5.59v4.3h-1.79v-11.68h3l1.68,7.15c.17.69.38,1.81.51,2.75h.21q.09-.47.23-1.31c.07-.42.25-1.27.31-1.56l1.62-7.03h3.06v11.68Z"/>
        <path d="M121.82,47.5c-.27,1.7-.5,2.35-1.16,3.39.48.55.92.75,1.72.76l-.12,1.58h-.33c-.97,0-1.59-.27-2.29-1-.49.45-.75.63-1.12.81-.51.24-1.14.37-1.81.37-1.14,0-1.98-.3-2.66-.97-.64-.63-.94-1.4-.94-2.35s.3-1.69.93-2.37c.34-.39.74-.69,1.49-1.15-.69-1.12-.87-1.65-.87-2.56,0-1.41,1.06-2.46,2.52-2.46s2.52.99,2.52,2.39c0,.64-.15,1.2-.45,1.63-.33.46-.77.82-1.74,1.44.86,1.36,1.29,1.98,2.07,2.91.36-.76.5-1.4.6-2.7l1.65.3ZM115.31,48.55c-.35.43-.53.94-.53,1.53,0,1.15.79,1.9,2.01,1.9.75,0,1.25-.21,1.84-.81-.94-1.11-1.39-1.75-2.41-3.4-.48.33-.69.51-.92.78ZM118.08,44.04c0-.69-.33-1.09-.9-1.09s-.98.48-.98,1.17c0,.31.08.66.23.94q.07.18.4.75c.93-.6,1.25-1.04,1.25-1.77Z"/>
        <path d="M124.56,53.22h-1.95l3.63-11.68h2.28l3.63,11.68h-1.98l-.99-3.42h-3.62l-1,3.42ZM128.75,48.15l-.57-2.04c-.09-.3-.3-1.14-.39-1.54q-.22-.88-.33-1.32h-.15c-.36,1.48-.56,2.27-.69,2.75l-.62,2.16h2.75Z"/>
        <path d="M132.72,45.03c.77-.39,1.07-.75,1.16-1.43-.13.03-.25.05-.3.05-.6,0-1.07-.48-1.07-1.1,0-.66.47-1.12,1.11-1.12.79,0,1.26.57,1.26,1.54,0,1.29-.46,2.12-1.56,2.71l-.6-.66ZM135.62,45.03c.76-.39,1.06-.75,1.16-1.43-.14.03-.26.05-.3.05-.6,0-1.06-.48-1.06-1.1,0-.66.46-1.12,1.11-1.12.79,0,1.26.57,1.26,1.54,0,1.29-.47,2.12-1.56,2.71l-.6-.66Z"/>
        <path d="M149.91,46.41c1.89-.52,3.25-.77,4.27-.77,2.12,0,3.42,1.16,3.42,3.03,0,1.12-.46,2.12-1.35,2.87-.58.49-1.46.91-2.61,1.26-.64.18-1.33.31-1.63.31-.18,0-.27-.04-.33-.19-.21-.52-.45-.9-.76-1.21,3.3-.35,4.98-1.4,4.98-3.1,0-.87-.72-1.54-1.65-1.54-1.62,0-3.39.54-5.25,1.57-.15.08-.24.12-.3.12-.25,0-.67-.75-1.02-1.83.74-.1.99-.17,2.24-.51Z"/>
        <path d="M163.38,44.98c-.39.09-.53.13-1.07.33-.19.08-.3.1-.39.1-.33,0-.63-.61-.9-1.9.96-.04,1.31-.09,2.97-.34,1.8-.27,4.08-.62,5.28-.77,1.35-.18,2.43-.36,3-.48.1-.03.15-.03.22-.03.2,0,.27.09.41.47.12.31.21.76.21.98,0,.18-.06.24-.27.24-.32,0-.6.03-.89.08-2.53.42-4.56,2.64-4.56,4.98,0,1.75,1.38,2.91,3.72,3.12.21.01.29.09.29.27,0,.38-.15,1.09-.29,1.42-.08.17-.19.24-.39.24s-.65-.09-1.11-.22c-2.55-.75-3.88-2.37-3.88-4.67,0-1.25.41-2.4,1.19-3.39.42-.54.78-.84,1.63-1.43-1.96.33-4.04.72-5.17,1.01Z"/>
        <path d="M176.21,44.04c0-.44-.02-1.02-.04-1.35.69.07,1.2.18,1.6.33.36.14.48.23.48.39q0,.09-.06.24c-.2.51-.25,1.08-.25,2.44,0,1.92.12,3.12.42,4.03.22.71.57,1.11.97,1.11.62,0,1.12-.72,1.68-2.38.28.77.39.99.81,1.53.08.1.12.21.12.31,0,.24-.22.75-.53,1.19-.58.85-1.33,1.32-2.13,1.32-1.15,0-2.02-.93-2.56-2.77-.34-1.2-.51-2.71-.51-4.81v-1.58ZM185.13,44.28c.09,0,.17.04.29.15.75.72,1.53,1.92,2.03,3.09.33.79.64,1.86.64,2.17,0,.15-.08.23-.39.39-.34.18-1.05.42-1.23.42-.13,0-.19-.08-.24-.34-.2-1.16-.46-2-.93-2.97-.42-.87-.45-.92-1.47-2.17.63-.46,1.12-.73,1.3-.73Z"/>
        <path d="M194.43,44.97c.97-.25,1.62-.35,2.33-.35,2.13,0,3.36,1.26,3.36,3.42,0,1.88-.81,3.39-2.45,4.59-.87.65-2.19,1.29-2.62,1.29-.2,0-.24-.04-.56-.5-.22-.34-.45-.55-.82-.82,1.72-.58,2.44-.96,3.22-1.64.9-.79,1.35-1.75,1.35-2.89,0-1.22-.57-1.91-1.58-1.91-.81,0-1.86.31-3.22.98-.2.09-.3.17-.55.35-.06.03-.12.06-.18.06-.29,0-.77-.84-1.1-1.96.56-.04.84-.12,2.82-.61ZM195.44,41.31c.54.17,1.35.32,2.08.41.3.03.41.04,1.17.07.22,0,.29.06.29.23,0,.5-.11,1.31-.2,1.46-.03.09-.1.12-.21.12-.34,0-1.56-.17-2.26-.31-1.19-.24-2.22-.54-2.43-.71-.05-.04-.08-.1-.08-.17,0-.12.31-.93.46-1.21.08-.12.12-.15.21-.15q.08,0,.96.27Z"/>
        <path d="M217.19,44.76c-.48-.04-.98-.08-1.59-.08h-9.79c-.67,0-1.11.02-1.59.08v-1.53c.43.06.88.09,1.57.09h9.83c.71,0,1.14-.03,1.58-.09v1.53ZM207.38,54.12h-1.62c.04-.45.08-.93.08-1.33v-2.04c0-.54-.02-.84-.06-1.23.34.03.6.04,1.12.04h7.58c.58,0,.82-.02,1.14-.06-.04.34-.06.65-.06,1.26v2.04c0,.58.02.92.08,1.32h-1.63v-.6h-6.61v.6ZM215.55,42.66c-.48-.06-.93-.07-1.59-.07h-6.51c-.64,0-1.09.01-1.57.07v-1.46c.46.06.94.09,1.57.09h6.51c.66,0,1.14-.03,1.59-.09v1.46ZM215.43,46.77c-.41-.04-.8-.06-1.46-.06h-6.51c-.67,0-1.07.02-1.47.06v-1.4c.38.04.78.06,1.47.06h6.51c.69,0,1.08-.02,1.46-.06v1.4ZM215.43,48.79c-.38-.04-.8-.06-1.46-.06h-6.51c-.67,0-1.1.02-1.47.06v-1.4c.42.04.75.06,1.47.06h6.51c.72,0,1.05-.02,1.46-.06v1.4ZM207.38,52.14h6.63v-1.24h-6.63v1.24Z"/>
        <path d="M225.86,49.68h4.14c.71,0,1.26-.03,1.71-.09v1.44c-.46-.06-1.02-.09-1.71-.09h-2.89c1.2.85,2.7,1.36,4.9,1.68-.38.47-.55.78-.83,1.4-1.26-.3-1.98-.52-2.74-.85-1.1-.46-1.8-.92-2.61-1.65v.09s0,.04.01.18q0,.12.02.35s0,.15.01.33v.54c0,.62.02.85.09,1.22h-1.69c.08-.42.09-.72.09-1.23v-.51c.01-.23.03-.4.03-.55,0-.12.01-.21.03-.39-1.54,1.32-2.65,1.88-5.08,2.5-.24-.56-.44-.87-.84-1.32,2-.33,3.54-.92,4.7-1.77h-2.73c-.69,0-1.21.03-1.69.09v-1.44c.43.06.96.09,1.69.09h3.92v-.75h-2.38c-.43,0-.94.01-1.33.03.03-.42.04-.67.04-1.17v-2.15h-.39c-.79,0-1.2.02-1.65.08v-1.38c.41.06.75.07,1.44.07h.6c0-.36-.01-.58-.06-.81h1.5c.01-.19.03-.38.03-.63h-1.81c-.72,0-1.18.02-1.68.08v-1.42c.51.06.94.09,1.68.09h1.81v-.15c0-.27-.01-.5-.06-.78h1.62c-.06.33-.06.5-.06.78v.15h2.92v-.15c0-.27-.01-.47-.06-.78h1.62c-.04.27-.06.5-.06.78v.15h1.91c.74,0,1.18-.03,1.67-.09v1.42c-.5-.06-.96-.08-1.67-.08h-1.91c0,.29,0,.42.03.66h1.51c-.04.25-.06.51-.06.78h.45c.76,0,1.2-.01,1.63-.07v1.38c-.46-.06-.84-.08-1.63-.08h-.45v.73c0,.44.01.74.04.95-.38-.02-.85-.03-1.33-.03h-2.79c-.5,0-.87.02-1.33.03.03-.23.04-.52.04-.84v-.84h-1.99v2.13h7.23c.87,0,1.18-.01,1.57-.06v1.27c-.46-.04-.79-.06-1.54-.06h-3.61v.75ZM222.24,43.72c-.01.17-.03.39-.03.69h1.99c0-.3-.01-.45-.04-.78h1.53c-.03.23-.04.39-.04.78h2.49c0-.31-.01-.46-.03-.69h-1.54q.03-.36.03-.75h-2.92c0,.36,0,.45.03.75h-1.46ZM225.65,46.18h2.49v-.54h-2.49v.54Z"/>
        <path d="M239.49,49.48c-1.48.87-1.91,1.31-1.91,1.96,0,.27.11.45.33.58.33.2,1.07.3,2.01.3.81,0,1.93-.08,2.7-.18.32-.04.5-.09,1.09-.24h.08c.11,0,.18.07.23.18.09.31.15.77.15,1.31,0,.23-.08.31-.27.36-.36.08-2.03.17-3.12.17-1.83,0-2.8-.12-3.52-.42-.87-.36-1.31-1.04-1.31-1.98,0-.87.41-1.63,1.21-2.28.65-.51.79-.62,2.17-1.4-.12-.5-.34-.71-.81-.71-.62,0-1.26.24-1.96.71-.43.3-.95.72-1.26,1.03-.45.47-.5.5-.62.5-.15,0-.46-.34-.78-.87-.15-.25-.24-.45-.24-.55,0-.14.03-.17.39-.39,1.23-.82,2.25-1.88,2.87-2.95-1.07.07-1.62.09-2.21.09-.23,0-.27-.04-.34-.3-.05-.2-.12-.99-.14-1.4.51.07.81.09,1.53.09.58,0,1.23-.02,1.91-.04.31-.85.42-1.4.43-2.1,1.33.23,1.95.45,1.95.71,0,.06-.02.09-.06.18-.1.19-.22.43-.42.9q-.03.06-.04.1c.86-.12,1.61-.27,2.13-.39.33-.09.41-.1.48-.1.12,0,.18.04.21.14.06.27.15.96.15,1.17,0,.16-.06.24-.25.28-.48.14-2.13.39-3.51.52-.45.83-.76,1.31-1.23,1.81.67-.31,1.18-.43,1.78-.43.68,0,1.12.39,1.43,1.23,1.48-.81,2.28-1.24,2.37-1.3.69-.4.98-.63,1.31-1,.61.63,1.27,1.57,1.27,1.83,0,.09-.06.15-.25.2-.74.19-2.1.78-4.38,1.89.01.27.04.96.04,1.44v.72c0,.18-.03.27-.1.31-.08.08-.48.12-.93.12-.51,0-.6-.04-.6-.29v-.06c.03-.44.04-1,.04-1.36v-.08Z"/>
        <path d="M250.85,49.89c-.67,0-1.2.01-1.56.04.04-.42.08-.89.08-1.53v-5.25c0-.78-.03-1.42-.08-1.79.42.05.87.06,1.52.06h6.64c.63,0,1.09-.01,1.51-.06-.04.31-.08.98-.08,1.79v5.25c0,.72.02,1.11.08,1.53-.38-.03-.96-.04-1.53-.04h-1.24v2.22c0,.4.12.45,1.29.45,1.08,0,1.36-.06,1.53-.3.15-.21.23-.78.25-1.84.6.31.96.46,1.5.6-.15,1.6-.29,2.14-.66,2.49-.4.36-1.02.48-2.62.48-2.42,0-2.85-.2-2.85-1.27v-2.82h-1.29c-.17,1.09-.63,1.99-1.36,2.67-.92.84-2,1.36-3.65,1.74-.24-.6-.42-.9-.84-1.42,1.37-.24,2.12-.5,2.82-.96.76-.5,1.18-1.12,1.36-2.02h-.82ZM250.88,43.81h6.5v-.94h-6.5v.94ZM250.88,46.11h6.5v-.94h-6.5v.94ZM250.88,48.49h6.5v-1.04h-6.5v1.04Z"/>
        <path d="M263.1,45.69h-.09c-.08.02-.14.02-.17.02-.13,0-.21-.06-.25-.25-.09-.38-.15-.84-.18-1.41.21.02.38.02.48.02.81,0,1.75-.06,2.55-.17.15-.99.22-1.75.22-2.37v-.35c1.74.23,2.07.33,2.06.6,0,.07-.03.12-.09.25-.18.35-.19.39-.43,1.57.58-.1,1.33-.3,1.63-.4.06-.03.08-.03.12-.03.13,0,.17.06.29.58.06.3.12.72.12.84,0,.1-.04.17-.18.19q-.27.09-2.32.45c-.69,3.04-1.41,5.29-2.57,7.99-.08.19-.15.27-.24.27-.2,0-.72-.21-1.23-.5-.25-.13-.33-.21-.33-.29,0-.06.04-.16.12-.31,1.14-2.16,1.96-4.45,2.54-6.93-.66.09-1.12.14-2.04.21ZM269.51,51.39c.44.29,1.07.42,1.95.42.97,0,1.82-.09,2.29-.24.12-.03.15-.04.21-.04.13,0,.2.04.24.18.1.31.18.93.18,1.39,0,.2-.06.27-.25.31-.5.11-1.33.17-2.22.17-1.88,0-2.92-.3-3.62-1.02-.25-.27-.46-.62-.58-.99-.09-.21-.15-.46-.15-.55,0-.26.45-.53,1.23-.78.17.63.34.9.72,1.15ZM273.72,47.02c-.3-.04-.93-.07-1.46-.07-1.11,0-1.57.04-2.89.27-.03.01-.08.01-.1.01-.09,0-.14-.03-.17-.12-.04-.1-.11-.84-.11-1.16,0-.19.03-.28.15-.33.06-.03.15-.04.46-.1,1.02-.18,1.88-.25,2.92-.25.87,0,1.32.03,1.42.1.08.06.09.18.09.68,0,.43-.03.82-.06.91-.02.05-.08.08-.15.08-.03,0-.08,0-.12-.02Z"/>
        <path d="M283.5,41.85c.18.12.25.21.25.31s-.01.12-.24.38c-.08.09-.3.42-.54.83q-.75,1.25-1.16,1.96c-.42.71-.69,1.19-.84,1.41q-.04.07-.25.45c-.2.35-.32.52-.53.81.97-.85,1.5-1.08,2.49-1.08.66,0,1.25.29,1.62.78.31.42.4.81.54,2.28.07.88.15,1.27.25,1.5.1.21.31.33.58.33,1.03,0,2.26-1.25,2.86-2.88.15.63.27.93.58,1.48.11.18.14.3.14.45,0,.17-.08.38-.26.66-.78,1.26-2.05,2.01-3.42,2.01-.86,0-1.58-.3-1.95-.79-.3-.42-.44-.98-.56-2.44-.07-.96-.15-1.29-.36-1.53-.17-.18-.41-.27-.74-.27-.99,0-2.29,1.33-3.06,3.1-.22.51-.38.97-.54,1.54-.06.22-.13.31-.24.31-.31,0-1.04-.3-1.42-.58-.1-.09-.15-.15-.15-.24,0-.07.03-.15.22-.57.12-.27.17-.35.27-.62q1.11-2.59,4.19-8.82c.34-.69.51-1.12.61-1.58.78.29,1.14.47,1.62.79Z"/>
        <path d="M291.92,45.87h-.09c-.08.02-.13.02-.17.02-.13,0-.21-.06-.25-.26-.09-.37-.15-.82-.18-1.41.21.02.38.02.48.02.81,0,1.75-.06,2.55-.17.15-.99.23-1.74.23-2.37v-.34c1.74.24,2.07.33,2.05.6,0,.08-.03.12-.09.26-.18.34-.2.39-.44,1.57.58-.1,1.33-.3,1.64-.4.06-.03.07-.03.12-.03.13,0,.16.06.28.58.06.3.12.72.12.84,0,.11-.04.17-.18.2q-.27.09-2.33.45c-.69,3.06-1.41,5.29-2.56,7.99-.08.2-.15.27-.24.27-.2,0-.72-.21-1.23-.49-.26-.14-.33-.2-.33-.29,0-.06.04-.17.12-.31,1.14-2.16,1.96-4.45,2.53-6.91-.66.07-1.12.12-2.04.19ZM298.32,51.57c.43.29,1.06.42,1.95.42.97,0,1.81-.09,2.29-.24.12-.03.15-.04.21-.04.13,0,.19.04.24.18.11.31.18.93.18,1.4,0,.19-.06.27-.25.31-.5.1-1.33.17-2.22.17-1.88,0-2.92-.3-3.61-1.02-.25-.27-.46-.6-.58-.98-.09-.22-.15-.48-.15-.57,0-.25.45-.52,1.23-.78.17.63.34.92.72,1.15ZM302.54,47.2c-.3-.04-.93-.08-1.46-.08-1.11,0-1.58.05-2.89.27-.03.02-.08.02-.11.02-.09,0-.13-.03-.17-.12-.04-.1-.1-.84-.1-1.15,0-.19.03-.29.15-.33.06-.03.15-.04.46-.1,1.02-.18,1.88-.25,2.92-.25.87,0,1.32.03,1.43.1.07.06.09.18.09.67,0,.44-.03.83-.06.92-.01.04-.08.08-.15.08-.03,0-.08,0-.12-.02ZM300.89,41.92c.2,0,1.47,1.42,1.47,1.65,0,.06-.1.19-.22.29-.06.04-.15.12-.25.21-.13.12-.18.15-.33.21t-.08.03c-.06,0-.06-.01-.34-.45-.25-.39-.74-.99-.99-1.22-.03-.03-.08-.09-.08-.1.03-.06.05-.09.05-.09.07-.09.33-.3.39-.34.15-.08.24-.14.25-.15.01-.03.03-.03.04-.03h.09ZM303.42,42.97c-.21.15-.36.24-.43.24-.06,0-.09-.03-.17-.15-.33-.54-.65-.93-1.14-1.43-.04-.04-.06-.07-.06-.12,0-.14.57-.56.76-.56.11,0,.29.15.62.5.48.49.83.94.83,1.09,0,.09-.11.19-.41.42Z"/>
        <path d="M307.26,41.82v-.21c.94.17,1.42.3,1.81.5.11.04.13.1.13.21,0,.06-.03.13-.09.24-.13.24-.18.42-.41,1.41-.28,1.29-.43,2.73-.43,4.3,0,.84.03,1.3.12,2.1l.79-1.6c.09.31.21.57.39.78.12.15.13.19.13.31s0,.12-.28.75c-.32.67-.5,1.26-.66,2.02-.04.24-.09.31-.17.35-.12.06-.63.13-.93.13-.21,0-.29-.04-.33-.18-.36-1.02-.66-3.12-.66-4.62,0-1.29.17-3.07.43-4.95.09-.62.14-1.06.14-1.38v-.17ZM312.38,46.06c-.84,0-1.08-.03-1.16-.13-.1-.14-.19-.75-.19-1.31v-.22c.6.06,1.08.09,1.84.09.58,0,.92-.02,1.51-.06-.04-1.56-.13-2.49-.31-2.97h.4c.53,0,1.17.04,1.5.12.15.03.23.12.23.24,0,.06-.02.12-.04.23-.08.21-.12.54-.12.93,0,.23.01.93.01,1.11v.15c.75-.12,1.11-.2,1.74-.41.06-.02.12-.03.18-.03.09,0,.13.04.17.13.06.17.12.75.12,1.08,0,.24-.04.35-.17.39-.2.07-1.11.25-2,.38.02.42.02.65.02.88,0,2.21-.27,3.78-.87,4.96-.54,1.06-1.71,2.31-2.19,2.31-.13,0-.19-.03-.36-.18-.5-.44-.58-.51-1.17-.78,1.05-.58,1.72-1.22,2.19-2.07.5-.91.76-2.17.76-3.55,0-.1,0-.36-.01-.72-.01-.15-.01-.38-.03-.68-.54.04-1.75.1-2.05.1Z"/>
        <path d="M99.56,72.13c-.19-.66-.25-1.06-.43-2.91-.06-.72-.12-1.08-.27-1.59.91.02,1.5.06,1.9.17.23.06.33.17.33.33,0,.06-.01.13-.04.25-.1.36-.15.63-.15,1.02,0,.73.15,1.94.32,2.46.09.28.18.39.34.39.36,0,1.68-.69,2.4-1.24.19-.15.22-.17.3-.17.13,0,.27.1.5.39.38.51.67,1.06.67,1.27,0,.17-.11.27-.36.34-.93.25-2.46.85-3.49,1.35-1.83.9-2.66,1.73-2.66,2.65s.76,1.29,2.7,1.29c1.12,0,2.14-.1,3.52-.33.06-.02.17-.03.2-.03.12,0,.19.06.25.18.04.15.15,1.06.15,1.43,0,.21-.06.28-.26.34-.33.08-2.14.18-3.28.18-1.92,0-3.2-.26-3.99-.79-.67-.47-1.04-1.2-1.04-2.1,0-.69.2-1.31.6-1.9.52-.78,1.09-1.27,2.35-2.02-.31-.29-.43-.5-.57-.96ZM105,68.77c.12-.09.2-.12.29-.12.21,0,1.51,1.38,1.51,1.6,0,.09-.12.23-.41.46-.3.25-.33.27-.4.27-.09,0-.11,0-.39-.42-.3-.42-.72-.9-1.04-1.17-.04-.04-.07-.09-.07-.14,0-.07.13-.21.51-.49ZM108.26,69.18c0,.09-.04.15-.23.3-.21.18-.49.38-.55.38-.09,0-.12-.04-.3-.28-.34-.5-.55-.73-1.09-1.23-.06-.06-.08-.09-.08-.14,0-.13.57-.57.75-.57.25,0,1.5,1.27,1.5,1.54Z"/>
        <path d="M114.02,72.13c-.19-.66-.25-1.06-.43-2.91-.06-.72-.12-1.08-.27-1.59.91.02,1.5.06,1.9.17.23.06.33.17.33.33,0,.06-.01.13-.04.25-.1.36-.15.63-.15,1.02,0,.73.15,1.94.32,2.46.09.28.18.39.34.39.36,0,1.68-.69,2.4-1.24.19-.15.22-.17.3-.17.13,0,.27.1.5.39.38.51.67,1.06.67,1.27,0,.17-.11.27-.36.34-.93.25-2.46.85-3.49,1.35-1.83.9-2.66,1.73-2.66,2.65s.76,1.29,2.7,1.29c1.12,0,2.14-.1,3.52-.33.06-.02.17-.03.2-.03.12,0,.19.06.25.18.04.15.15,1.06.15,1.43,0,.21-.06.28-.26.34-.33.08-2.14.18-3.28.18-1.92,0-3.2-.26-3.99-.79-.67-.47-1.04-1.2-1.04-2.1,0-.69.2-1.31.6-1.9.52-.78,1.09-1.27,2.35-2.02-.31-.29-.43-.5-.57-.96ZM119.46,68.77c.12-.09.2-.12.29-.12.21,0,1.51,1.38,1.51,1.6,0,.09-.12.23-.41.46-.3.25-.33.27-.4.27-.09,0-.11,0-.39-.42-.3-.42-.72-.9-1.04-1.17-.04-.04-.07-.09-.07-.14,0-.07.13-.21.51-.49ZM122.72,69.18c0,.09-.04.15-.22.3-.21.18-.5.38-.56.38-.09,0-.12-.04-.3-.28-.34-.5-.55-.73-1.09-1.23-.06-.06-.08-.09-.08-.14,0-.13.57-.57.75-.57.25,0,1.5,1.27,1.5,1.54Z"/>
        <path d="M128.7,71.22c.97-.25,1.62-.35,2.33-.35,2.13,0,3.36,1.26,3.36,3.42,0,1.88-.81,3.39-2.45,4.59-.87.65-2.19,1.29-2.62,1.29-.2,0-.24-.04-.56-.5-.22-.34-.45-.55-.82-.82,1.72-.58,2.44-.96,3.22-1.64.9-.79,1.35-1.75,1.35-2.89,0-1.22-.57-1.91-1.58-1.91-.81,0-1.86.31-3.22.98-.2.09-.3.17-.55.35-.06.03-.12.06-.18.06-.29,0-.77-.84-1.1-1.96.56-.04.84-.12,2.82-.61ZM129.71,67.56c.54.17,1.35.32,2.08.41.3.03.41.04,1.17.07.22,0,.29.06.29.23,0,.5-.11,1.31-.2,1.46-.03.09-.1.12-.21.12-.34,0-1.56-.17-2.26-.31-1.19-.24-2.22-.54-2.43-.71-.05-.04-.08-.1-.08-.17,0-.12.31-.93.46-1.21.08-.12.12-.15.21-.15q.08,0,.96.27Z"/>
        <path d="M139.4,70.29c0-.44-.02-1.02-.04-1.35.69.07,1.2.18,1.6.33.36.14.48.23.48.39q0,.09-.06.24c-.2.51-.25,1.08-.25,2.44,0,1.92.12,3.12.42,4.03.22.71.57,1.11.97,1.11.62,0,1.12-.72,1.68-2.38.28.77.39.99.81,1.53.08.1.12.21.12.31,0,.24-.22.75-.53,1.19-.58.85-1.33,1.32-2.13,1.32-1.15,0-2.02-.93-2.56-2.77-.34-1.2-.51-2.71-.51-4.81v-1.58ZM148.32,70.53c.09,0,.17.04.29.15.75.72,1.53,1.92,2.03,3.09.33.79.64,1.86.64,2.17,0,.15-.08.23-.39.39-.34.18-1.05.42-1.23.42-.13,0-.19-.08-.24-.34-.2-1.16-.46-2-.93-2.97-.42-.87-.45-.92-1.47-2.17.63-.46,1.12-.73,1.3-.73Z"/>
        <path d="M157.62,71.22c.97-.25,1.62-.35,2.33-.35,2.13,0,3.36,1.26,3.36,3.42,0,1.88-.81,3.39-2.45,4.59-.87.65-2.19,1.29-2.62,1.29-.2,0-.24-.04-.56-.5-.22-.34-.45-.55-.82-.82,1.72-.58,2.44-.96,3.22-1.64.9-.79,1.35-1.75,1.35-2.89,0-1.22-.57-1.91-1.58-1.91-.81,0-1.86.31-3.22.98-.2.09-.3.17-.55.35-.06.03-.12.06-.18.06-.29,0-.77-.84-1.1-1.96.56-.04.84-.12,2.82-.61ZM158.63,67.56c.54.17,1.35.32,2.08.41.3.03.41.04,1.17.07.22,0,.29.06.29.23,0,.5-.11,1.31-.2,1.46-.03.09-.1.12-.21.12-.34,0-1.56-.17-2.26-.31-1.19-.24-2.22-.54-2.43-.71-.05-.04-.08-.1-.08-.17,0-.12.31-.93.46-1.21.08-.12.12-.15.21-.15q.08,0,.96.27Z"/>
        <path d="M167.22,79.29c.86-.93,1.22-1.5,1.59-2.54l1.39.58c-.46,1.17-.83,1.8-1.67,2.86l-1.32-.91ZM173.01,67.86c0-.31-.01-.58-.08-.92h1.77c-.04.3-.08.57-.08.92v.13h3.39c.71,0,1.08-.01,1.53-.09v1.4c-.44-.04-.78-.06-1.53-.06h-.81c-.13.31-.25.52-.42.85h1.95c.86,0,1.25-.02,1.67-.08v1.4c-.42-.06-.84-.07-1.68-.07h-9.6c-.81,0-1.23.01-1.65.07v-1.4c.4.06.85.08,1.71.08h1.79c-.12-.33-.18-.48-.38-.85h-.79c-.72,0-1.08.02-1.47.06v-1.4c.39.06.83.09,1.53.09h3.15v-.13ZM170.4,76.47c-.62,0-.96.02-1.4.03.03-.29.04-.52.04-1.06v-2.28c0-.58-.01-.92-.06-1.29.38.03.76.04,1.56.04h6.69c.87,0,1.2-.02,1.58-.04-.04.33-.06.67-.06,1.29v2.16c0,.46.01.75.06,1.19-.19,0-.22,0-.48-.02h-.39c-.18-.02-.31-.02-.39-.02h-3.29c.44.29.65.45,1.42,1.12l-1.18.95c-.66-.75-.72-.8-1.63-1.53l.72-.54h-3.19ZM170.55,73.66h6.71v-.6h-6.71v.6ZM170.55,75.31h6.71v-.58h-6.71v.58ZM176.18,77.65v-.15c.51.23.79.3,1.47.39-.04,1.08-.15,1.53-.42,1.83-.39.44-1,.53-3.48.53s-2.99-.17-2.99-1.02v-1.26c0-.48-.01-.78-.08-1.06h1.65c-.04.36-.06.56-.06,1.06v.63c0,.17.04.23.22.27.17.05.76.09,1.29.09,1.29,0,1.84-.04,2.08-.15.13-.06.19-.17.24-.39.03-.15.06-.46.06-.62v-.15ZM175.17,70.09c.18-.35.25-.51.41-.85h-3.39c.15.31.2.42.38.85h2.61ZM179.28,80.02c-.71-1.17-1.14-1.77-1.96-2.7l1.26-.72c.9.96,1.4,1.57,2.01,2.52l-1.31.9Z"/>
        <path d="M184.89,77.73v-.71h-1.3v1.48h-1.51c.04-.44.08-.96.08-1.74v-7.14c0-.63-.02-1.11-.06-1.49.38.05.67.06,1.29.06h1.7c.54,0,.88-.01,1.24-.06-.01.26-.03.69-.03,1.44v6.57c0,.6.01.98.04,1.44,1.23-1.03,2.23-2.31,2.91-3.7h-1.46c-.51,0-.86.01-1.2.06v-1.59c.46.05.62.06,1.21.06h1.95v-1.89h-1.2c-.64,0-1.14.02-1.58.06v-1.56c.44.04.93.07,1.58.07h1.2v-.85c0-.51-.02-.8-.06-1.14h1.65c-.06.34-.08.61-.08,1.14v.85h1.58c.72,0,1.18-.03,1.6-.09v1.59c-.46-.04-.99-.07-1.63-.07h-1.54v1.89h1.98c.75,0,1.26-.03,1.71-.07v1.62c-.4-.04-1-.07-1.71-.07h-1.6c.79,1.67,1.95,2.91,3.75,4.05-.38.55-.6.98-.86,1.56-1.75-1.37-2.73-2.55-3.31-4.06.03.61.04.87.04,1.42v2.07c0,.58.01.99.08,1.46h-1.67c.04-.45.08-.88.08-1.46v-2.1c0-.51.01-.87.03-1.47-.43.99-.81,1.58-1.51,2.42-.66.79-1.26,1.33-2.04,1.88-.33-.5-.61-.81-1.09-1.23.54-.33.74-.46,1.02-.69h-1.26ZM183.59,75.63h1.3v-5.94h-1.3v5.94Z"/>
        <path d="M198.02,71.56c-.27.02-.43.03-.61.05-.14.01-.15.01-.17.01-.12,0-.18-.04-.23-.19-.08-.24-.18-1.04-.19-1.48.17.01.6.03,1.14.03.17,0,1.35-.07,1.88-.12.25-1.21.34-1.84.34-2.65,1.54.21,2.1.39,2.1.68,0,.1-.01.13-.24.48-.12.18-.17.34-.42,1.27.7-.12,1.12-.23,1.68-.41.1-.03.15-.04.22-.04.11,0,.13.08.23.51.07.37.12.69.12.85,0,.18-.04.21-.43.3-.51.12-1.38.27-2.31.39-.56,1.68-.93,2.58-1.62,3.99-.53,1.05-.83,1.6-1.23,2.23-.12.18-.19.24-.3.24-.15,0-.57-.22-1.09-.61-.24-.17-.3-.24-.3-.35s.06-.19.25-.46c.43-.54,1-1.47,1.5-2.46.42-.82.57-1.17,1-2.35-.58.05-.63.06-1.32.1ZM202.95,80.2c-1.64,0-2.75-.9-2.75-2.23s1.15-2.41,2.7-2.41c.36,0,.53.01,1.14.1-.06-.72-.06-1.01-.12-2.4,0-.29-.03-.68-.06-1.16.77.08,1.35.17,1.64.29.12.04.18.12.18.24,0,.08-.01.14-.03.24-.08.31-.09.54-.09.94,0,.56.04,1.5.09,2.23,1.07.48,1.5.72,2.25,1.31.33.25.45.39.45.51,0,.15-.08.29-.5.96-.18.3-.31.44-.42.44q-.09,0-.51-.39c-.33-.33-.71-.58-1.23-.9,0,1.4-1.02,2.23-2.74,2.23ZM202.92,76.99c-.72,0-1.21.34-1.21.87,0,.5.45.81,1.12.81.79,0,1.21-.4,1.21-1.2,0-.12,0-.24-.02-.24-.3-.15-.7-.24-1.11-.24ZM208.53,72.73c-.18.26-.27.33-.38.33-.08,0-.13-.03-.24-.13-.38-.36-.9-.75-1.46-1.1q-.36-.22-1.02-.52c-.21-.09-.29-.15-.29-.27,0-.1.08-.24.3-.58.36-.52.45-.61.58-.61.28,0,1.39.57,2.19,1.11.65.44.84.61.84.78,0,.12-.24.57-.54,1Z"/>
        <path d="M216.54,76.74c-.72,1.25-1.71,1.94-2.73,1.94-1.56,0-2.67-1.53-2.67-3.66,0-2.37,1.2-4.41,3.25-5.49,1-.54,2.08-.78,3.51-.78,3.14,0,5.46,2.22,5.46,5.19,0,2.62-1.29,4.51-3.78,5.58-.5.21-.89.33-1.08.33-.18,0-.25-.06-.45-.34-.25-.39-.54-.68-.95-.95,3.09-.79,4.49-2.25,4.49-4.68,0-1.25-.53-2.29-1.46-2.96-.53-.36-.95-.51-1.77-.64-.42,3.16-.92,4.89-1.83,6.46ZM214.38,71.43c-1,.88-1.58,2.15-1.58,3.55,0,1.16.38,1.83,1,1.83.75,0,1.52-1.04,2.08-2.82.36-1.12.54-1.98.77-3.65-1.07.23-1.59.48-2.28,1.08Z"/>
        <path d="M227.93,70.11c.34-.9.67-1.38,1.25-1.86.69-.57,1.51-.84,2.56-.84,2.25,0,3.69,1.23,3.69,3.15,0,.65-.18,1.26-.53,1.75-.27.39-.39.51-1.23,1.27-1.17,1.05-1.42,1.46-1.42,2.25v.79h-1.53v-.84c0-.67.13-1.27.41-1.75.21-.38.43-.63,1.03-1.23.63-.61.83-.84.99-1.11.21-.3.33-.72.33-1.12,0-1-.67-1.63-1.74-1.63s-1.69.55-2.14,1.86l-1.67-.69ZM232.71,78.85c0,.66-.53,1.18-1.19,1.18s-1.18-.52-1.18-1.18.52-1.19,1.18-1.19,1.19.52,1.19,1.19Z"/>
      </g>
      <circle class="cls-11" cx="31.39" cy="80.73" r="30"/>
      <g>
        <path class="cls-7" d="M40.83,70.51c5.99-4.82,10.66-4.4,11.63-2.77.89,1.5-.2,9.39-9.12,4.98"/>
        <path class="cls-4" d="M45.07,73.09c2.15-3.7,6.52-2.97,7.65-2.44-1.95,3.62-3.96,4.96-7.65,2.44Z"/>
        <path class="cls-1" d="M48.07,74.67c-1.31,0-2.95-.38-4.99-1.39-.3-.15-.43-.52-.28-.82.15-.3.52-.42.82-.28,3.32,1.64,5.84,1.68,7.3.12,1.3-1.4,1.35-3.69,1.02-4.24-.21-.35-.72-.62-1.4-.75-.91-.17-4.28-.39-9.33,3.68-.26.21-.65.17-.86-.09-.21-.26-.17-.65.09-.86,3.68-2.96,7.54-4.43,10.31-3.93,1.04.19,1.83.66,2.23,1.32.64,1.09.43,3.95-1.18,5.69-.75.81-1.93,1.54-3.74,1.54Z"/>
        <path class="cls-7" d="M46.32,84.75c1.64-16.83-17.12-22.81-25.65-13.47-2.98,3.26-5.19,9.03-4.06,15.78-3.29,3.25-2.73,7.92,2.42,10.47,3.1,1.53,6.2,2.2,13.34,2.2,6.63,0,14.3-2.8,16.45-6.94,1.2-2.31.78-5.73-2.5-8.03Z"/>
        <path class="cls-2" d="M36.09,67.11c-.6-4.19-4.15-6.53-4.34-.47"/>
        <path class="cls-2" d="M24.4,68.18c-.51-4.21,2.31-7.38,4.07-1.58"/>
        <path class="cls-7" d="M19.94,71.24c-6.66-3.83-11.22-2.69-11.92-.92-.65,1.62,2.36,9.82,10.47,4.08"/>
        <path class="cls-4" d="M16.67,75.05c-2.15-3.7-7.04-2.78-8.16-2.25,1.95,3.62,4.48,4.77,8.16,2.25Z"/>
        <path class="cls-4" d="M29.5,66.63c1.23,7.47-2.33,14.46-12.54,14.46,0-11.43,12.54-14.46,12.54-14.46Z"/>
        <path class="cls-4" d="M31.75,66.64c0,8.41,6.81,12.73,13.85,13.26,0-11.43-13.85-13.26-13.85-13.26Z"/>
        <path class="cls-4" d="M15.52,93.52c13.82-6.39,25.47-3.61,33.3-.74-3.13,7.58-29.27,10.16-33.3.74Z"/>
        <path class="cls-1" d="M32.36,100.32c-7.6,0-10.65-.79-13.61-2.26-2.69-1.33-4.37-3.31-4.74-5.59-.32-1.98.37-3.97,1.94-5.63-1.1-7.14,1.47-12.92,4.26-15.98,4.25-4.65,11.26-5.93,17.43-3.18,3.01,1.34,5.47,3.51,7.11,6.28,1.79,3.02,2.53,6.55,2.2,10.5,3.38,2.57,3.64,6.23,2.4,8.6-2.36,4.55-10.5,7.26-17,7.26ZM30.99,67.46c-3.76,0-7.35,1.46-9.87,4.22-2.64,2.89-5.06,8.42-3.91,15.27.03.2-.03.39-.17.53-1.44,1.42-2.08,3.13-1.81,4.8.3,1.88,1.75,3.55,4.07,4.69,2.8,1.38,5.72,2.13,13.07,2.13,6.88,0,14.02-2.96,15.91-6.61,1.03-1.99.75-5.1-2.31-7.25-.18-.13-.28-.34-.26-.56.71-7.25-2.5-13.19-8.57-15.9-2.01-.89-4.11-1.33-6.16-1.33Z"/>
        <path class="cls-1" d="M13.29,77.03c-1.46,0-2.58-.54-3.4-1.18-2.09-1.64-2.9-4.58-2.44-5.76.29-.72.99-1.31,1.99-1.65,2.66-.93,6.7-.08,10.8,2.27.29.17.39.54.23.83-.17.29-.54.39-.83.23-5.62-3.23-8.91-2.49-9.79-2.18-.65.23-1.11.57-1.26.95-.21.53.31,2.97,2.06,4.35,1.89,1.49,4.48,1.14,7.5-.99.27-.19.65-.13.85.15.19.27.13.66-.15.85-2.23,1.58-4.07,2.14-5.56,2.14Z"/>
        <path class="cls-1" d="M36.09,67.72c-.3,0-.56-.22-.6-.52-.32-2.23-1.49-3.66-2.13-3.63-.31.02-.93.69-1,3.09-.01.34-.3.6-.63.59-.34-.01-.6-.29-.59-.63.11-3.62,1.4-4.23,2.15-4.27.03,0,.06,0,.09,0,1.46,0,2.94,2.06,3.31,4.67.05.33-.18.64-.52.69-.03,0-.06,0-.09,0Z"/>
        <path class="cls-1" d="M24.4,68.79c-.3,0-.57-.23-.6-.54-.32-2.67.61-5.08,2.07-5.39.74-.15,2.14.1,3.19,3.56.1.32-.08.66-.41.76-.32.1-.66-.08-.76-.41-.7-2.3-1.46-2.79-1.77-2.72-.62.13-1.38,1.81-1.11,4.05.04.33-.2.64-.53.68-.02,0-.05,0-.07,0Z"/>
        <path class="cls-1" d="M37.33,78.62c-.65-1.09-1.64-1.26-2.42-.7-.18.13-.11.42.12.44.71.07,1.33.3,1.99.61.22.1.44-.14.31-.35Z"/>
        <path class="cls-1" d="M26.37,78.83c.65-1.09,1.64-1.26,2.42-.7.18.13.11.42-.12.44-.71.07-1.33.3-1.99.61-.22.1-.44-.14-.31-.35Z"/>
        <circle class="cls-1" cx="33.22" cy="92.64" r=".57"/>
        <circle class="cls-1" cx="31.43" cy="92.64" r=".57"/>
        <path class="cls-1" d="M31.54,96.83c-.58,0-1.17-.13-1.74-.4-1.05-.5-1.76-1.38-1.96-2.34l-.5.2c-.32.13-.68-.02-.8-.34-.13-.32.02-.68.34-.8l1.32-.53c.21-.08.44-.05.62.09.17.14.26.36.22.59-.16.89.54,1.66,1.3,2.02.9.43,2.24.48,3.27-.69.23-.26.62-.28.87-.05.26.23.28.62.05.87-.81.91-1.88,1.39-2.99,1.39Z"/>
        <ellipse class="cls-1" cx="36" cy="87.17" rx="1.44" ry="1.56" transform="translate(-13.12 6.66) rotate(-8.95)"/>
        <ellipse class="cls-1" cx="28.33" cy="87.53" rx="1.56" ry="1.44" transform="translate(-60.52 111.41) rotate(-87.1)"/>
      </g>
      <path class="cls-8" d="M11.03,126.03h239.38c4.68,0,8.47,3.79,8.47,8.47v43.33s9.69,9.69,9.69,9.69h-9.69s0,.5,0,.5c0,4.68-3.79,8.47-8.47,8.47H11.03c-4.68,0-8.47-3.79-8.47-8.47v-53.52c0-4.68,3.79-8.47,8.47-8.47Z"/>
      <circle class="cls-9" cx="307.05" cy="180.29" r="30"/>
      <g>
        <path d="M16.49,145.11h2.58l2.54,7.15c.16.51.31.98.46,1.58.17-.57.31-1.05.48-1.58l2.52-7.15h2.52v10.77h-1.75l.06-7.06c0-.56.02-1.14.03-1.71h-.03c-.09.33-.21.76-.36,1.17l-2.73,7.6h-1.56l-2.75-7.6c-.17-.46-.3-.9-.38-1.2h-.03c.02.58.03,1.17.03,1.74l.08,7.06h-1.71v-10.77Z"/>
        <path d="M29.09,152.92c0-1.38.85-2.52,2.43-3.15-.79-.72-1.14-1.38-1.14-2.1,0-1.59,1.35-2.67,3.21-2.67s3.03,1.02,3.03,2.43c0,1.14-.71,2.11-2.53,2.67.67.64,1.45,1.3,2.34,1.98.42-.66.82-1.47,1.12-2.29l1.53.76c-.39.9-.85,1.75-1.38,2.48.81.57,1.67,1.14,2.57,1.68l-.99,1.27c-.81-.48-1.67-1.06-2.55-1.74-1.16,1.15-2.36,1.74-3.86,1.74-2.32,0-3.78-1.21-3.78-3.06ZM32.98,154.53c.99,0,1.81-.44,2.52-1.23-1-.83-2.02-1.69-3.01-2.59-1.05.45-1.59,1.21-1.59,2.1,0,1.04.85,1.73,2.08,1.73ZM33.19,149.26c1.2-.34,1.74-.9,1.74-1.69,0-.72-.45-1.28-1.41-1.28-.72,0-1.41.54-1.41,1.38,0,.54.39,1.1,1.08,1.59Z"/>
        <path d="M43.99,145.11h2.14l3.85,10.77h-1.93l-1.07-3.13h-3.9l-1.05,3.13h-1.95l3.9-10.77ZM46.52,151.29l-1.5-4.5-1.51,4.5h3.01Z"/>
        <path d="M55.72,151.35c0-1.33.3-3.96.84-6.81l1.53.27c-.65,2.93-.95,5.56-.95,6.68,0,.46.03.97.09,1.44.24-.76.54-1.47.87-2.19l.9.9c-.45.93-.65,1.47-.79,2.03-.23.84-.3,1.27-.29,1.95l-1.19.5c-.63-1.36-1.02-2.73-1.02-4.75ZM59.48,153.79c0-1.05.86-2.04,2.55-2.04.42,0,.87.04,1.32.12l-.04-1.17c-.04-.64-.08-1.38-.09-2.07-1.19.08-2.37.11-3.38.11l-.11-1.5c1.07.01,2.26-.01,3.46-.09,0-.84-.01-1.58.03-2.79l1.58.05c-.08,1.02-.11,1.83-.14,2.61.8-.08,1.54-.18,2.24-.32l.15,1.51c-.72.12-1.53.23-2.39.3.02.78.03,1.48.06,2.16.01.6.04,1.14.06,1.59.86.32,1.71.78,2.54,1.4l-.87,1.38c-.55-.53-1.11-.92-1.65-1.2-.12,1.46-1.1,2.19-2.71,2.19-1.5,0-2.61-.86-2.61-2.24ZM62.06,154.68c.81,0,1.35-.39,1.33-1.21v-.2c-.45-.13-.88-.21-1.25-.21-.88,0-1.26.36-1.26.81,0,.5.43.81,1.17.81Z"/>
        <path d="M76.22,147.49c0-1.14.83-2.42,1.79-3.15h1.39c-.96.79-1.86,1.98-1.75,2.86.78.04,1.37.42,1.37,1.05s-.51,1.11-1.19,1.11c-.94,0-1.6-.76-1.6-1.88ZM79.54,147.49c0-1.14.83-2.42,1.79-3.15h1.4c-.96.79-1.86,1.98-1.75,2.86.78.04,1.36.42,1.36,1.05s-.51,1.11-1.18,1.11c-.95,0-1.61-.76-1.61-1.88Z"/>
        <path d="M83.45,149.08c2.68-1.16,4.65-2.88,5.8-5.15h1.71c1.29,1.91,3.33,3.51,6.09,4.77l-.91,1.25c-1.07-.54-1.91-1.02-2.73-1.59v1.2h-6.22v-.99c-.79.62-1.8,1.23-2.77,1.68l-.96-1.17ZM85.76,150.88h9v5.99h-1.5v-.78h-6v.78h-1.5v-5.99ZM93.26,154.81v-2.67h-6v2.67h6ZM93.31,148.29c-1.29-.92-2.4-1.95-3.18-3-.66,1.16-1.51,2.15-2.58,3h5.76Z"/>
        <path d="M99.65,150.13c-.3.51-.66,1.04-1.04,1.52l-.66-1.44c1.24-1.79,2.23-4.15,2.73-6.57l1.42.33c-.27,1.11-.62,2.18-1.05,3.31v9.58h-1.41v-6.74ZM101.86,155.94c1.49-1.11,2.08-2.26,2.13-4.12h-2.33v-1.29h2.34v-2.52h-1.89v-1.26h4.7c.45-.92.82-1.94,1.14-3.08l1.56.45c-.45,1.09-.78,1.83-1.23,2.62h2.56v1.26h-2.08v2.52h2.55v1.29h-2.52v4.99h-1.41v-4.99h-1.98c-.04,2.28-.84,3.94-2.5,5.23l-1.04-1.11ZM103.19,144.36l1.35-.57c.39.56.72,1.23,1.17,2.33l-1.44.57c-.29-.9-.66-1.71-1.08-2.33ZM107.33,150.52v-2.52h-1.92v2.52h1.92Z"/>
        <path d="M122.13,150.27c0-2.43.77-4.76,2.18-6.77h1.77c-1.49,2-2.29,4.32-2.29,6.75s.81,4.8,2.29,6.75h-1.77c-1.41-1.95-2.18-4.32-2.18-6.73Z"/>
        <path d="M127.48,145.11h2.58l2.54,7.15c.16.51.31.98.46,1.58.17-.57.31-1.05.48-1.58l2.52-7.15h2.52v10.77h-1.75l.06-7.06c0-.56.02-1.14.03-1.71h-.03c-.09.33-.21.76-.36,1.17l-2.73,7.6h-1.56l-2.75-7.6c-.17-.46-.3-.9-.38-1.2h-.03c.02.58.03,1.17.03,1.74l.08,7.06h-1.71v-10.77Z"/>
        <path d="M140.04,152.04c0-2.55,1.47-4.2,3.79-4.2,2.13,0,3.25,1.16,3.38,3.42v1.11h-5.43c.09,1.42,1,2.25,2.59,2.25.93,0,1.67-.17,2.43-.54l.09,1.38c-.78.36-1.69.54-2.85.54-2.52,0-4-1.47-4-3.96ZM141.83,151.15h3.71c-.03-1.31-.63-2.01-1.75-2.01s-1.77.67-1.95,2.01Z"/>
        <path d="M148.52,151.18l-.07-3.22h1.68l.06,1.63c.63-1.14,1.47-1.74,2.75-1.74.1,0,.25.01.38.03l-.08,1.7c-.21-.03-.39-.03-.55-.03-1.38,0-2,.6-2.43,1.46v4.88h-1.73v-4.7Z"/>
        <path d="M153.63,152.13c0-2.7,1.41-4.27,3.52-4.27.92,0,1.68.29,2.13.76l.09-.69h1.49v7.38c0,2.62-1.37,4.04-4.28,4.04-.72,0-1.69-.15-2.37-.34l.07-1.54c.72.27,1.61.45,2.4.45,1.83,0,2.47-.69,2.47-2.65v-.21c-.62.64-1.39.94-2.35.94-1.96,0-3.18-1.44-3.18-3.85ZM157.41,154.56c.71,0,1.3-.31,1.75-.9v-3.6c-.34-.51-.95-.83-1.71-.83-1.23,0-2.02,1.04-2.02,2.73s.72,2.59,1.98,2.59Z"/>
        <path d="M162.09,152.04c0-2.55,1.47-4.2,3.79-4.2,2.13,0,3.25,1.16,3.38,3.42v1.11h-5.43c.09,1.42,1,2.25,2.59,2.25.93,0,1.67-.17,2.43-.54l.09,1.38c-.78.36-1.69.54-2.85.54-2.52,0-4-1.47-4-3.96ZM163.88,151.15h3.71c-.03-1.31-.63-2.01-1.75-2.01s-1.77.67-1.95,2.01Z"/>
        <path d="M170.57,151.18l-.07-3.22h1.68l.06,1.63c.63-1.14,1.47-1.74,2.75-1.74.1,0,.25.01.38.03l-.08,1.7c-.21-.03-.39-.03-.55-.03-1.38,0-2,.6-2.43,1.46v4.88h-1.73v-4.7Z"/>
        <path d="M175.79,155.58l.13-1.53c.67.36,1.54.65,2.48.65s1.35-.33,1.35-.92c0-.68-.69-.95-1.59-1.28-1.11-.41-2.33-.85-2.33-2.29s1.17-2.37,3-2.37c1.04,0,1.65.12,2.34.36l-.1,1.53c-.56-.35-1.56-.56-2.25-.56-.84,0-1.28.33-1.28.87,0,.62.72.88,1.53,1.17,1.12.39,2.42.86,2.42,2.36s-1.23,2.43-3.23,2.43c-.96,0-1.72-.12-2.47-.42Z"/>
        <path d="M184.67,150.25c0-2.43-.81-4.75-2.29-6.75h1.77c1.41,2.01,2.17,4.33,2.17,6.77s-.76,4.78-2.17,6.73h-1.77c1.49-1.95,2.29-4.33,2.29-6.75Z"/>
        <path d="M191.07,146.49c-.78-.03-1.37-.41-1.37-1.04s.51-1.11,1.19-1.11c.94,0,1.6.76,1.6,1.86s-.83,2.42-1.79,3.17h-1.39c.96-.81,1.86-1.98,1.75-2.88ZM194.39,146.49c-.78-.03-1.36-.41-1.36-1.04s.51-1.11,1.18-1.11c.95,0,1.61.76,1.61,1.86s-.83,2.42-1.79,3.17h-1.4c.96-.81,1.86-1.98,1.75-2.88Z"/>
        <path d="M206.42,153.07c0-1.32,1-2.5,2.88-3.69-.61-1.41-1.3-3.21-1.71-4.98l1.58-.38c.27,1.41.88,3.25,1.44,4.62,1.14-.6,2.5-1.21,4.02-1.84l.69,1.47c-3.94,1.35-7.35,3.1-7.35,4.63,0,.94.79,1.51,2.99,1.51,1.32,0,2.92-.1,4.67-.43l.27,1.6c-1.79.3-3.62.36-4.79.36-3.46,0-4.68-1.16-4.68-2.88Z"/>
        <path d="M226.32,147.49c0-1.14.83-2.42,1.79-3.15h1.39c-.96.79-1.86,1.98-1.75,2.86.78.04,1.37.42,1.37,1.05s-.51,1.11-1.19,1.11c-.94,0-1.6-.76-1.6-1.88ZM229.64,147.49c0-1.14.83-2.42,1.79-3.15h1.4c-.96.79-1.86,1.98-1.75,2.86.78.04,1.36.42,1.36,1.05s-.51,1.11-1.18,1.11c-.95,0-1.61-.76-1.61-1.88Z"/>
        <path d="M233.84,155.79c1.62-.32,3.08-.79,4.26-1.38h-2.49v-6.04h9.51v6.04h-2.57c1.5.38,2.75.75,4.18,1.32l-1.11,1.2c-1.62-.76-2.99-1.29-4.46-1.69l1.07-.83h-3.98l1.07.83c-1.59.84-3.17,1.48-4.53,1.83l-.96-1.27ZM234.66,144.25h11.38v3.42h-11.38v-3.42ZM238.04,146.7v-1.43h-1.98v1.43h1.98ZM243.66,150.07v-.75h-6.62v.75h6.62ZM243.66,151.72v-.75h-6.62v.75h6.62ZM243.66,153.42v-.81h-6.62v.81h6.62ZM241.32,146.7v-1.43h-2v1.43h2ZM244.67,146.7v-1.43h-2.05v1.43h2.05Z"/>
        <path d="M19.63,179.31c-1.2.5-2.13.79-3.24,1.12l-.48-1.47c.25-.04.78-.18,1.09-.27v-6.93h1.38v6.57c.54-.15.99-.3,1.25-.39v-7.8h1.41v12.88h-1.41v-3.72ZM21.11,181.92c1.3-.66,2.38-1.59,3.4-2.92-1.04-1.63-1.83-3.88-2.22-6.34h-.78v-1.38h6.18l.79.69c-.43,2.87-1.17,5.19-2.23,6.97.84,1,1.89,1.86,3.09,2.55l-.92,1.42c-1.14-.79-2.21-1.75-3.01-2.71-.93,1.26-2.07,2.23-3.42,3l-.88-1.27ZM26.86,172.65h-3.17c.23,1.83.86,3.71,1.67,5.01.78-1.53,1.32-3.3,1.5-5.01Z"/>
        <path d="M40.07,176.52c0-2.43.77-4.75,2.18-6.77h1.77c-1.49,2-2.29,4.32-2.29,6.75s.81,4.8,2.29,6.75h-1.77c-1.41-1.95-2.18-4.32-2.18-6.73Z"/>
        <path d="M48.23,171.36h2.14l3.85,10.77h-1.93l-1.07-3.13h-3.9l-1.05,3.13h-1.95l3.9-10.77ZM50.77,177.54l-1.5-4.5-1.51,4.5h3.01Z"/>
        <path d="M54.64,178.3c0-2.58,1.62-4.2,4.2-4.2.81,0,1.5.13,2,.38l-.17,1.51c-.6-.3-1.21-.43-1.88-.43-1.44,0-2.37,1.03-2.37,2.68s.92,2.52,2.46,2.52c.64,0,1.32-.15,1.81-.42l.14,1.46c-.57.27-1.37.43-2.12.43-2.59,0-4.08-1.44-4.08-3.93Z"/>
        <path d="M61.72,178.38c0-2.7,1.41-4.27,3.52-4.27,1,0,1.84.34,2.26.93l.11-.83h1.48v11.28h-1.72v-4.33c-.63.73-1.46,1.08-2.47,1.08-1.96,0-3.18-1.44-3.18-3.85ZM65.5,180.81c.78,0,1.42-.39,1.89-1.09v-3.17c-.3-.66-.96-1.06-1.84-1.06-1.23,0-2.02,1.04-2.02,2.73s.72,2.59,1.98,2.59Z"/>
        <path d="M70.75,179.34v-5.13h1.72v4.47c0,1.44.47,2.07,1.54,2.07.8,0,1.5-.42,1.86-1.11v-5.43h1.71v5.54l.09,2.38h-1.68l-.08-1.2c-.62.87-1.53,1.3-2.49,1.3-1.8,0-2.68-.94-2.68-2.89Z"/>
        <path d="M79.12,171.72c0-.63.48-1.12,1.14-1.12s1.14.49,1.14,1.12-.46,1.11-1.14,1.11-1.14-.5-1.14-1.11ZM79.39,174.21h1.72v7.92h-1.72v-7.92Z"/>
        <path d="M82.55,181.83l.13-1.53c.67.36,1.54.65,2.48.65s1.35-.33,1.35-.92c0-.68-.69-.95-1.59-1.28-1.11-.41-2.33-.85-2.33-2.29s1.17-2.37,3-2.37c1.04,0,1.65.12,2.34.36l-.1,1.53c-.56-.35-1.56-.56-2.25-.56-.84,0-1.28.33-1.28.87,0,.62.72.88,1.53,1.17,1.12.39,2.42.86,2.42,2.36s-1.23,2.43-3.23,2.43c-.96,0-1.72-.12-2.47-.42Z"/>
        <path d="M89.46,171.72c0-.63.48-1.12,1.14-1.12s1.14.49,1.14,1.12-.46,1.11-1.14,1.11-1.14-.5-1.14-1.11ZM89.74,174.21h1.72v7.92h-1.72v-7.92Z"/>
        <path d="M93.53,179.67v-4.06h-1.04v-1.4h1.08l.15-2.1h1.51v2.1h2.25v1.4h-2.25v3.72c0,1.09.32,1.48,1.25,1.48.24,0,.57-.03.95-.1l.04,1.38c-.57.09-1.07.15-1.52.15-1.71,0-2.43-.75-2.43-2.56Z"/>
        <path d="M98.37,171.72c0-.63.48-1.12,1.14-1.12s1.14.49,1.14,1.12-.46,1.11-1.14,1.11-1.14-.5-1.14-1.11ZM98.64,174.21h1.72v7.92h-1.72v-7.92Z"/>
        <path d="M101.69,178.29c0-2.49,1.56-4.18,3.87-4.18s3.81,1.42,3.81,3.94-1.56,4.18-3.9,4.18-3.78-1.48-3.78-3.94ZM107.58,178.2c0-1.75-.72-2.67-2.07-2.67-1.25,0-2.04,1-2.04,2.61,0,1.7.75,2.67,2.02,2.67s2.08-.94,2.08-2.61Z"/>
        <path d="M110.66,176.58l-.07-2.37h1.68l.08,1.19c.61-.86,1.53-1.29,2.47-1.29,1.8,0,2.68.94,2.68,2.89v5.13h-1.72v-4.47c0-1.44-.46-2.07-1.54-2.07-.79,0-1.47.42-1.84,1.08v5.46h-1.73v-5.55Z"/>
        <path d="M118.8,181.83l.13-1.53c.67.36,1.54.65,2.48.65s1.35-.33,1.35-.92c0-.68-.69-.95-1.59-1.28-1.11-.41-2.33-.85-2.33-2.29s1.17-2.37,3-2.37c1.04,0,1.65.12,2.34.36l-.1,1.53c-.56-.35-1.56-.56-2.25-.56-.84,0-1.28.33-1.28.87,0,.62.72.88,1.53,1.17,1.12.39,2.42.86,2.42,2.36s-1.23,2.43-3.23,2.43c-.96,0-1.72-.12-2.47-.42Z"/>
        <path d="M127.68,176.5c0-2.43-.81-4.75-2.29-6.75h1.77c1.41,2.01,2.17,4.33,2.17,6.77s-.76,4.78-2.17,6.73h-1.77c1.49-1.95,2.29-4.33,2.29-6.75Z"/>
        <path d="M134.09,172.74c-.78-.03-1.37-.41-1.37-1.04s.51-1.11,1.19-1.11c.94,0,1.6.76,1.6,1.86s-.83,2.42-1.79,3.17h-1.39c.96-.81,1.86-1.98,1.75-2.88ZM137.4,172.74c-.78-.03-1.36-.41-1.36-1.04s.51-1.11,1.18-1.11c.95,0,1.61.76,1.61,1.86s-.83,2.42-1.79,3.17h-1.4c.96-.81,1.86-1.98,1.75-2.88Z"/>
        <path d="M153.98,181.15c2.75-.69,4.38-2.37,4.38-4.5s-1.47-3.53-3.6-3.66c-.11,1.7-.38,3.17-.84,4.6-.72,2.25-2,3.48-3.36,3.48s-2.52-1.4-2.52-3.32c0-3.48,2.88-6.21,6.42-6.21,3.25,0,5.49,1.98,5.49,5.08,0,2.69-1.65,4.68-4.74,5.75l-1.23-1.23ZM150.6,179.47c.77,0,1.41-.9,1.88-2.38.41-1.32.65-2.49.74-3.96-2.07.53-3.64,2.42-3.64,4.65,0,.92.49,1.69,1.03,1.69Z"/>
        <path d="M168.36,178.15l-.66.33-.66-1v3.61h-3.76v1h-1.14v-11.17h4.91v3.16c1.26-1.11,2.13-2.55,2.56-4.24l1.37.27-.27.76h2.69l.78.69c-.51,1.28-1.14,2.35-1.9,3.34.88.74,2.04,1.4,3.21,1.89l-.77,1.28-.61-.32v5.36h-1.29v-.69h-3.15v.69h-1.29v-4.96ZM164.04,175.3v-3.1h-.76v3.1h.76ZM164.04,179.82v-3.33h-.76v3.33h.76ZM165.9,175.3v-3.1h-.79v3.1h.79ZM165.9,179.82v-3.33h-.79v3.33h.79ZM170.48,174.96c-.31-.33-.69-.81-1.16-1.47-.48.67-1,1.26-1.54,1.72l-.73-1.02v3.08c1.33-.58,2.5-1.38,3.43-2.31ZM173.78,177.6c-.92-.54-1.69-1.09-2.37-1.71-.58.58-1.29,1.14-2.13,1.71h4.5ZM172.8,181.23v-2.46h-3.15v2.46h3.15ZM172.43,172.09h-2.26l-.17.3c.36.57.85,1.18,1.3,1.63.45-.58.81-1.18,1.12-1.93Z"/>
        <path d="M178.04,180.19c0-1.28,1.11-2.22,3.15-2.22.36,0,.72.03,1.11.08-.02-.31-.04-.64-.06-.96-.09-1.36-.17-3.42-.17-4.41,0-.71-.01-1.5.02-2.48l1.6.08c-.09,1-.1,1.7-.12,2.66,1.23-.06,2.49-.21,3.72-.46l.17,1.5c-1.41.23-2.7.36-3.87.42.01.88.06,1.9.12,2.68.03.43.06.88.07,1.3,1.44.41,2.94,1.11,4.21,2.04l-.85,1.3c-1.19-.9-2.31-1.5-3.29-1.88v.29c0,1.58-.94,2.37-2.8,2.37s-3.01-.86-3.01-2.31ZM180.92,181.08c.84,0,1.44-.29,1.44-1.19,0-.1,0-.25-.01-.46-.41-.08-.79-.1-1.12-.1-1.09,0-1.65.38-1.65.88,0,.58.57.87,1.35.87Z"/>
        <path d="M190.64,181.12c0-1.17.98-2.15,2.17-2.15s2.15.99,2.15,2.16-.98,2.16-2.17,2.16-2.15-.99-2.15-2.17ZM193.96,181.14c0-.64-.51-1.15-1.16-1.15s-1.16.52-1.16,1.15.51,1.16,1.16,1.16,1.16-.53,1.16-1.16Z"/>
      </g>
      <g>
        <path class="cls-1" d="M324.29,172.61c1.98.16,1.35,2.34.38,3.61-.2.27-.59.3-.85.08-1.72-1.47-1.12-3.82.47-3.69Z"/>
        <path class="cls-1" d="M324.19,173.48c-.34,0-.62-.28-.62-.62v-3.92l-.99-1.38c-.2-.28-.14-.67.14-.87.28-.2.67-.14.87.14l1.1,1.54c.08.11.12.23.12.36v4.12c0,.34-.28.62-.62.62Z"/>
        <path class="cls-6" d="M309.01,198.48c1.36-.08,2.68-.26,3.95-.54,9.96-2.2,10.33-7.28,10.2-11.51s-1.05-19.4-13.27-20.23c-12.22-.83-15.37,8.9-17.74,12.05s-10.98,13.01,5.18,18.52c1.58.54,3.14.95,4.68,1.24"/>
        <polygon class="cls-5" points="321.15 162.59 314.96 162.01 317.71 167.58 324.03 168.26 321.15 162.59"/>
        <rect class="cls-5" x="314.37" y="165.73" width="6.74" height="2.93" transform="translate(172.9 -161.34) rotate(38.45)"/>
        <path class="cls-12" d="M288.44,184.16c5.12.33,8.07,5.74,6.18,11.54-4.99-2.72-7.78-5.48-6.18-11.54Z"/>
        <path class="cls-12" d="M322.64,186.32c-5.9-.82-10.43,4.27-9.51,10.87,6.27-1.75,10.04-4.05,9.51-10.87Z"/>
        <ellipse class="cls-1" cx="300.63" cy="186.51" rx="1.86" ry="1.71" transform="translate(69.62 454.46) rotate(-81.05)"/>
        <path class="cls-1" d="M300.46,176.72c1.67-.68,3.18-.04,3.89,1.27.17.31-.14.57-.47.41-1.05-.53-2.09-.79-3.22-1.01-.38-.07-.52-.54-.2-.67Z"/>
        <path class="cls-1" d="M313.77,179.28c-1.24-1.32-2.88-1.35-4.07-.46-.28.21-.11.58.26.56,1.18-.05,2.23.15,3.35.42.37.09.69-.27.46-.52Z"/>
        <path class="cls-1" d="M309.01,199.08c-.32,0-.58-.25-.6-.57-.02-.33.24-.62.57-.64,1.31-.08,2.61-.25,3.85-.53,9.99-2.21,9.83-7.44,9.72-10.9-.13-4.35-.83-8.12-2.06-11.19-2.12-5.28-5.7-8.12-10.65-8.46-9.8-.66-13.46,5.57-15.88,9.7-.49.84-.91,1.56-1.33,2.11-.12.16-.25.33-.39.51-1.69,2.2-4.83,6.29-3.64,10.22.85,2.82,3.86,5.13,8.92,6.86,1.53.52,3.07.93,4.59,1.21.33.06.54.38.48.71-.06.33-.38.55-.71.48-1.58-.3-3.18-.72-4.76-1.26-5.46-1.86-8.72-4.43-9.69-7.65-1.37-4.52,2.15-9.1,3.84-11.3.14-.18.27-.35.38-.5.38-.5.78-1.2,1.26-2,2.42-4.12,6.46-11.01,17.01-10.29,5.45.37,9.39,3.47,11.69,9.21,1.28,3.2,2.01,7.11,2.15,11.6.15,4.69-.55,9.89-10.67,12.12-1.3.29-2.66.47-4.04.55-.01,0-.02,0-.04,0Z"/>
        <path class="cls-1" d="M299.69,185.87c-.07,0-.13-.02-.19-.07-.77-.61-1.16-1.23-1.45-2.3-.04-.16.05-.33.21-.37.16-.04.33.05.37.21.29,1.08.66,1.53,1.24,1.99.13.1.15.29.05.42-.06.08-.15.11-.24.11Z"/>
        <path class="cls-1" d="M299.49,186.47c-.81,0-1.68-.47-2.38-1.28-.11-.13-.09-.32.03-.43.13-.11.32-.09.43.03.63.74,1.4,1.13,2.08,1.06.16-.02.32.1.33.27s-.1.32-.27.33c-.08,0-.15.01-.23.01Z"/>
        <path class="cls-1" d="M319.49,171.51c-.13,0-.26-.04-.37-.13-.26-.21-.31-.59-.1-.85l2.28-2.89c.13-.16.33-.25.54-.23l1.15.12-2.22-4.37-4.78-.45.68,1.37c.1.2.08.45-.06.63l-1.83,2.43c-.2.27-.58.32-.85.12-.27-.2-.32-.58-.12-.85l1.6-2.13-1-2.01c-.1-.2-.08-.43.04-.61.12-.18.34-.28.55-.26l6.19.58c.21.02.39.14.48.33l2.88,5.66c.1.2.08.43-.04.62-.13.18-.34.28-.56.26l-1.93-.21-2.07,2.62c-.12.15-.3.23-.48.23Z"/>
        <path class="cls-3" d="M309.69,192.3c-.68-1.85-3.69-3.85-5.22-3.63-1.53.22-4.76,2.08-5.76,2.02s-1.7-.74-1.82,1.61c-.12,2.35,1.72,3.55,4.17,2.69,3.41,1.94,9.79.49,8.63-2.69Z"/>
        <path class="cls-3" d="M309.69,194.4c-.76,2.94-4.99,4.67-6.27,4.24-1.28-.43-3.94-1.64-2.54-4.21,2.53.42,8.05.42,8.16-.8s.64.77.64.77Z"/>
        <path class="cls-1" d="M304.71,196.46c-1.07,0-2.22-.33-3.41-1-2.32.66-3.62.04-4.3-.61-.86-.82-1.18-2.14-.84-3.43.35-1.31.93-1.42,1.84-1.44.65-.02,1.64-.04,3.25-.88,3.58-1.88,5.67-.8,7.71,1.4.2.21.19.55-.03.75s-.55.19-.75-.03c-1.8-1.94-3.44-2.76-6.44-1.18-1.83.96-3.01.99-3.72,1q-.67.02-.84.65c-.24.91-.02,1.85.55,2.4.71.68,1.92.79,3.47.3.14-.04.3-.03.43.05,1.94,1.14,4.71,1.83,6.92-1.39.14-.21.4-.28.64-.19,0,0,.73.29,1.37.44.29.06.47.35.4.63-.06.29-.35.47-.63.4-.42-.09-.85-.23-1.14-.34-1.24,1.64-2.77,2.48-4.47,2.48Z"/>
        <path class="cls-1" d="M303.96,199.17c-.57,0-1.12-.1-1.63-.29-2.62-1.02-2.61-3.62-2.61-3.73,0-.29.24-.52.53-.52h0c.29,0,.53.24.52.54,0,.08.02,1.98,1.94,2.73,1.12.44,2.58.22,3.89-.58,1.45-.88,2.41-2.28,2.56-3.74.03-.29.29-.5.58-.47.29.03.5.29.47.58-.19,1.78-1.33,3.48-3.06,4.54-1.03.63-2.15.95-3.19.95Z"/>
        <path class="cls-1" d="M308.86,188.62c-.15,0-.29-.05-.41-.15-.27-.23-.3-.63-.08-.9.73-.86,1.61-1.32,2.49-1.27.79.04,1.53.49,2.06,1.26.2.29.13.69-.16.89-.29.2-.69.13-.89-.16-.21-.31-.57-.68-1.07-.71-.47-.02-.99.27-1.45.82-.13.15-.31.23-.49.23Z"/>
        <path class="cls-1" d="M311.93,187.52c-.15,0-.28-.11-.3-.26-.02-.17.09-.32.26-.34.71-.1,1.53-.71,1.99-1.49.09-.14.27-.19.41-.11.14.09.19.27.11.41-.56.94-1.53,1.66-2.43,1.78-.01,0-.03,0-.04,0Z"/>
        <path class="cls-1" d="M313.36,188.09c-.39,0-.8-.07-1.19-.25-.15-.07-.22-.25-.15-.4.07-.15.25-.22.4-.15.91.42,1.95.09,2.65-.26.15-.07.33-.01.4.14.07.15.01.33-.14.41-.54.26-1.24.52-1.98.52Z"/>
      </g>
      <path class="cls-8" d="M9.89,211.79h239.38c4.68,0,8.47,3.79,8.47,8.47v68.3s9.69,9.69,9.69,9.69h-9.69s0,.5,0,.5c0,4.68-3.79,8.47-8.47,8.47H9.89c-4.68,0-8.47-3.79-8.47-8.47v-78.49c0-4.68,3.79-8.47,8.47-8.47Z"/>
      <g>
        <path d="M14.92,231.12l-.86-.93c.88-.71,1.53-1.64,1.91-2.73l1.33.23c-.15.38-.25.61-.35.79h3.69v.97c.46-.6.81-1.25,1.05-2.03l1.37.23c-.18.48-.27.69-.33.83h4.47v1.03h-2.64c.19.3.3.5.51.92l-1.23.42h2.76v8.54c0,.99-.28,1.27-1.23,1.27-.54,0-1.11-.03-1.63-.1l-.2-1.14h-4.46v.58h-1.29v-4.65h5.82v3.87c.43.09.88.13,1.21.13.3,0,.38-.08.38-.41v-4.23h-3.99v-3.87h2.5c-.18-.55-.34-.9-.6-1.33h-.93c-.36.56-.76,1.07-1.19,1.43l-.97-.83c.17-.13.38-.38.57-.6h-1.92c.21.38.33.57.48.9l-1.23.43h2.28v3.87h-3.9v6.08h-1.39v-9.67ZM17.83,230.85c-.1-.39-.3-.87-.55-1.33h-.88c-.35.5-.71.95-1.16,1.33h2.59ZM18.88,232.37v-.63h-2.56v.63h2.56ZM18.88,233.84v-.67h-2.56v.67h2.56ZM22.33,236.94v-.71h-3.24v.71h3.24ZM22.33,238.5v-.74h-3.24v.74h3.24ZM25.21,232.37v-.63h-2.67v.63h2.67ZM25.21,233.84v-.67h-2.67v.67h2.67Z"/>
        <path d="M34.44,238.25h-5.79v-1.25h5.79v-1.14h-4.32v-5.43h1.37c-.27-.71-.62-1.38-1.08-2.02l1.39-.57c.42.54.81,1.2,1.2,2.1l-1.32.5h5.1c.71-1.08,1.14-1.84,1.57-2.79l1.5.62c-.49.83-.97,1.5-1.5,2.17h2v5.43h-4.41v1.14h5.88v1.25h-5.88v2.55h-1.5v-2.55ZM34.5,232.59v-1.06h-2.98v1.06h2.98ZM34.5,234.77v-1.11h-2.98v1.11h2.98ZM33.52,228.15l1.39-.54c.46.63.87,1.41,1.17,2.21l-1.48.55c-.24-.78-.6-1.51-1.08-2.22ZM38.95,232.59v-1.06h-3.08v1.06h3.08ZM38.95,234.77v-1.11h-3.08v1.11h3.08Z"/>
        <path d="M44.58,235.25c0-1.42.32-3.93.86-6.79l1.53.24c-.6,2.89-.92,5.41-.92,6.58,0,.47.03,1,.11,1.46.24-.76.62-1.65.9-2.19l.9.9c-.46.93-.67,1.53-.84,2.1-.2.69-.3,1.36-.24,1.99l-1.18.5c-.62-1.21-1.11-2.82-1.11-4.78ZM48.93,236.88c0-.65.27-1.37.99-2.17l1.42.48c-.69.6-.92,1.08-.92,1.46,0,.75.63,1.19,2.29,1.19.66,0,1.63-.09,2.59-.32l.3,1.56c-1.04.17-2.07.21-2.7.21-2.71,0-3.99-.72-3.99-2.4ZM49.09,229.98c1.68.03,4.29-.12,6-.39l.18,1.5c-1.72.27-4.32.44-6.04.39l-.14-1.5Z"/>
        <path d="M59.53,236.81c-.33-1.06-.55-2.97-.55-4.71,0-.75.03-1.81.09-2.75l1.59.33c-.09,1.02-.13,1.92-.13,2.88,0,1.64.17,2.81.43,3.67.32,1.02.76,1.64,1.2,1.64.48,0,1.11-1.04,1.51-2.94l1.32,1.11c-.63,2.37-1.7,3.51-2.8,3.51-1.22,0-2.13-1.07-2.66-2.75ZM66.39,231.15l1.14-1.02c1.8,1.65,2.32,3.67,2.71,6.52l-1.54.48c-.35-2.66-.9-4.77-2.31-5.98Z"/>
        <path d="M76.53,239.61c1.84-.72,2.59-1.23,3.33-2.01.67-.72,1.26-1.88,1.26-2.96,0-1.47-.98-1.99-1.91-1.99-.5,0-.97.07-2.21.4-1.12.3-1.69.46-2.61.72l-.44-1.47c.92-.22,1.49-.38,2.54-.63,1.39-.34,2.13-.48,2.94-.48,1.77,0,3.36.99,3.36,3.21,0,1.89-.79,3.13-1.56,4.03-.81.95-1.95,1.68-3.45,2.27l-1.26-1.1ZM76.14,229.14l.57-1.33c1.5.27,2.91.57,4.54,1.35l-.63,1.38c-1.46-.72-3-1.09-4.49-1.4Z"/>
        <path d="M88.42,237c0-1.32,1-2.5,2.88-3.69-.61-1.41-1.3-3.21-1.71-4.98l1.58-.38c.27,1.41.88,3.25,1.44,4.62,1.14-.6,2.5-1.21,4.02-1.84l.69,1.47c-3.94,1.35-7.35,3.1-7.35,4.63,0,.94.79,1.51,2.99,1.51,1.32,0,2.92-.1,4.67-.43l.27,1.6c-1.79.3-3.62.36-4.79.36-3.46,0-4.68-1.16-4.68-2.88Z"/>
        <path d="M100.56,237.72l1.3-1.12c.92.78,1.98,2,2.77,3.13l-1.41,1.25c-.69-1.16-1.64-2.29-2.67-3.25Z"/>
        <path d="M120.7,238.86c-.79.6-1.61.96-2.42.96-1.32,0-2.1-.96-2.1-2.35,0-1.29.66-2.55,1.74-3.51.53-.48,1.14-.87,1.79-1.14.01-.49.04-1.11.11-1.77-1.14.06-2.18.09-2.93.09l-.07-1.36c.81.03,1.9,0,3.12-.06.06-.69.15-1.38.24-1.98l1.53.21c-.12.52-.23,1.09-.32,1.68,1.4-.12,2.87-.29,4.14-.53l.1,1.38c-1.35.21-2.92.36-4.42.48-.06.52-.11,1.04-.13,1.47.71-.15,1.48-.22,2.31-.21.08-.34.11-.63.15-.97l1.41.21c-.04.31-.1.62-.18.92,1.83.42,3.11,1.72,3.11,3.42,0,1.9-.96,3.67-4.19,4.69l-1.11-1.11c2.85-.84,3.76-2.13,3.76-3.56,0-1.08-.76-1.89-1.92-2.23-.57,1.58-1.53,3.21-2.55,4.32.13.27.27.54.43.79l-1.18,1.02c-.15-.27-.29-.56-.42-.86ZM118.42,238.4c.54,0,1.19-.3,1.82-.87-.27-.9-.46-2.08-.53-3.3-.33.2-.69.48-1.04.83-.54.54-1.04,1.35-1.04,2.24,0,.75.33,1.11.78,1.11ZM121.38,236.45c.66-.82,1.29-1.93,1.7-3.03-.74,0-1.41.08-2.01.25.02.95.09,1.91.32,2.77Z"/>
        <path d="M133.5,238.01c0-1.05.95-1.82,2.23-1.82s2.39.72,3.12,2.01c.72-.48,1.19-1.18,1.19-2.02,0-1.05-1.07-1.91-2.79-1.91-1.1,0-2.42.36-3.42.99-.69.43-1.2.86-1.96,1.63l-1.04-1.12c1.65-1.27,4.05-3.39,6.21-5.82-1.21.21-2.73.34-3.99.41l-.27-1.44c1.72-.03,3.61-.15,5.77-.55l.85,1.05c-1.44,1.54-2.56,2.61-3.91,3.83.69-.21,1.33-.3,1.93-.3,2.52,0,4.16,1.33,4.16,3.2,0,2.4-2.4,4.05-5.24,4.05-1.54,0-2.85-.83-2.85-2.17ZM136.5,238.86c.39,0,.75-.04,1.11-.13-.46-.81-1.11-1.26-1.8-1.26-.51,0-.81.25-.81.58,0,.52.66.81,1.5.81Z"/>
        <path d="M144.18,232.8c2.55-1,4.44-2.64,5.75-4.93h1.7c1.38,1.93,3.4,3.46,6.01,4.53l-.92,1.25c-.9-.4-1.77-.88-2.57-1.42v1.05h-6.42v-.84c-.84.6-1.74,1.12-2.67,1.54l-.89-1.17ZM154.54,239.42c-2.82.42-6.09.78-9.03,1l-.45-1.44c.69-.03,1.57-.08,2.07-.12.51-.9.97-1.84,1.38-2.89h-3.55v-1.29h11.91v1.29h-6.69c-.45,1-.93,1.93-1.42,2.8,1.92-.13,3.43-.25,4.88-.42-.38-.42-.83-.9-1.49-1.48l1.25-.69c1.26,1.09,2.47,2.37,3.48,3.66l-1.32.92c-.45-.63-.53-.72-1-1.33ZM153.84,232.01c-1.2-.84-2.28-1.83-3.06-2.87-.69,1.12-1.5,2.04-2.5,2.87h5.57Z"/>
        <path d="M161.1,235.53c-.58.63-1.05,1.09-1.81,1.72l-.71-1.32c1.44-.99,3.13-2.83,3.97-4.36h-3.52v-1.33h2.01v-2.58h1.41v2.58h1.38l.6.61c-.53,1.04-1.12,2.03-1.84,2.94.9.54,1.59,1.02,2.58,1.83l-.92,1.23c-.66-.69-1.11-1.11-1.74-1.62v5.57h-1.41v-5.26ZM163.81,238.89h3.27v-5.83h-2.64v-1.38h2.64v-3.84h1.48v3.84h2.92v1.38h-2.92v5.83h3.44v1.39h-8.19v-1.39Z"/>
        <path d="M173.83,239.3c1.25-2.34,2.1-4.38,2.71-6.57-.92.14-1.77.25-2.43.36l-.25-1.46c.69-.06,1.96-.2,2.98-.34.24-1.04.45-2.12.65-3.25l1.53.24c-.19.93-.42,1.86-.66,2.82.44-.03.83-.06,1.14-.06,1.44,0,2.4.88,2.4,2.68,0,1.29-.12,2.91-.45,4.27-.38,1.56-1.28,1.97-2.18,1.97-.71,0-1.39-.14-2.01-.36l-.12-1.65c.71.35,1.38.48,1.83.48.58,0,.88-.32,1.11-1.35.19-.89.3-2,.3-3.06s-.43-1.59-1.18-1.59c-.26,0-.62.03-1.14.09-.73,2.59-1.53,4.88-2.82,7.51l-1.41-.73ZM181.83,231.27l1.23-.91c1.17,1.39,1.95,3.06,2.64,5.19l-1.38.9c-.72-2.26-1.35-3.97-2.49-5.17ZM183,229.16l.79-.66c.63.6,1.05,1.11,1.56,2.01l-.86.67c-.51-.92-.94-1.48-1.5-2.02ZM184.45,228.32l.79-.66c.68.58,1.08,1.16,1.56,1.98l-.87.66c-.45-.84-.9-1.46-1.49-1.98Z"/>
        <path d="M187.62,239.75c1.65-1.33,2.32-3.21,2.44-6.72h-1.62v-4.8h5.91v4.8h-2.92c-.01.55-.03.76-.09,1.48h3.18c-.21,5.58-.39,6.1-2.17,6.1-.5,0-1.07-.04-1.41-.12l-.25-1.47c.53.13,1.02.21,1.46.21s.55-.1.64-.52c.11-.5.23-1.62.33-2.97h-1.89c-.32,2.19-1.25,4.03-2.55,5.07l-1.05-1.06ZM193,231.83v-2.36h-3.21v2.36h3.21ZM195.7,229.13h1.41v8.02h-1.41v-8.02ZM196.45,240.5l-.28-1.5c.76.1,1.44.16,2.08.16.43,0,.51-.07.51-.52v-10.56h1.44v11.08c0,1.08-.4,1.44-1.63,1.44-.57,0-1.39-.04-2.12-.11Z"/>
        <path d="M208.65,238.83c2.75-.69,4.38-2.37,4.38-4.5s-1.47-3.53-3.6-3.66c-.11,1.7-.38,3.17-.84,4.6-.72,2.25-2,3.48-3.36,3.48s-2.52-1.4-2.52-3.32c0-3.48,2.88-6.21,6.42-6.21,3.25,0,5.49,1.98,5.49,5.08,0,2.69-1.65,4.68-4.74,5.75l-1.23-1.23ZM205.27,237.15c.77,0,1.41-.9,1.88-2.38.41-1.32.65-2.49.74-3.96-2.07.53-3.64,2.42-3.64,4.65,0,.92.49,1.69,1.03,1.69Z"/>
        <path d="M216.48,232.8c2.55-1,4.44-2.64,5.75-4.93h1.7c1.38,1.93,3.4,3.46,6.01,4.53l-.92,1.25c-.9-.4-1.77-.88-2.57-1.42v1.05h-6.42v-.84c-.84.6-1.74,1.12-2.67,1.54l-.89-1.17ZM226.84,239.42c-2.82.42-6.09.78-9.03,1l-.45-1.44c.69-.03,1.57-.08,2.07-.12.51-.9.97-1.84,1.38-2.89h-3.55v-1.29h11.91v1.29h-6.69c-.45,1-.93,1.93-1.42,2.8,1.92-.13,3.43-.25,4.88-.42-.38-.42-.83-.9-1.49-1.48l1.25-.69c1.26,1.09,2.47,2.37,3.48,3.66l-1.32.92c-.45-.63-.53-.72-1-1.33ZM226.14,232.01c-1.2-.84-2.28-1.83-3.06-2.87-.69,1.12-1.5,2.04-2.5,2.87h5.57Z"/>
        <path d="M233.4,235.53c-.58.63-1.05,1.09-1.81,1.72l-.71-1.32c1.44-.99,3.13-2.83,3.97-4.36h-3.52v-1.33h2.01v-2.58h1.41v2.58h1.38l.6.61c-.53,1.04-1.12,2.03-1.84,2.94.9.54,1.59,1.02,2.58,1.83l-.92,1.23c-.66-.69-1.11-1.11-1.74-1.62v5.57h-1.41v-5.26ZM236.11,238.89h3.27v-5.83h-2.64v-1.38h2.64v-3.84h1.48v3.84h2.92v1.38h-2.92v5.83h3.44v1.39h-8.19v-1.39Z"/>
        <path d="M17.52,264.02c0-1.41,1.5-2.47,3.67-3.51-.2-.55-.63-.79-1.14-.79-.73,0-1.47.38-2.08.9-.55.47-.79.71-1.47,1.59l-1.17-.87c1.12-1.04,2.08-2.28,2.9-3.88-.96.06-1.88.1-2.69.13l-.15-1.46c1.08,0,2.26-.03,3.48-.1.27-.66.51-1.35.75-2.12l1.46.43c-.2.54-.41,1.05-.63,1.54,1.2-.12,2.4-.3,3.58-.55l.19,1.46c-1.35.21-2.94.39-4.5.54-.27.5-.56.97-.86,1.44.45-.22.93-.36,1.39-.36,1.11,0,1.91.55,2.24,1.51,1.02-.43,2.13-.87,3.27-1.33l.57,1.39c-1.42.48-2.64.9-3.63,1.29.03.45.06.86.06,1.29,0,.6,0,.98-.03,1.4h-1.5c.04-.5.09-1.16.09-1.65v-.42c-1.54.74-2.28,1.38-2.28,2.01s.62,1.07,2.22,1.07c1.15,0,2.65-.18,3.9-.44l.27,1.53c-1.12.17-2.4.31-4.2.31-2.34,0-3.72-.73-3.72-2.35Z"/>
        <path d="M32.61,262.37c-1.21-.81-1.58-1.22-1.58-1.89,0-.63.53-1.11,1.72-2.07,1.56-1.25,2.9-2.42,4.32-4.12l1.35,1.02c-1.56,1.75-2.61,2.58-4.36,3.93-1,.77-1.29,1.04-1.29,1.26,0,.28.18.43,1.29,1.12,1.81,1.12,3.06,1.9,5.2,3.93l-1.18,1.18c-1.93-1.95-3.25-2.88-5.47-4.36Z"/>
        <path d="M48.21,264.77c2.99-.32,4.59-1.38,4.59-2.88,0-.95-.64-1.84-1.92-1.84-.67,0-1.5.18-2.46.38-.95.19-2.23.5-3.21.73l-.4-1.41c.96-.21,2.08-.44,3.28-.68,1.05-.21,2.05-.39,2.85-.39,2.17,0,3.42,1.37,3.42,3.13,0,2.31-1.8,3.76-5.28,4.29l-.87-1.33Z"/>
        <path d="M62.13,264.26c4-.44,6.24-1.82,6.24-3.81,0-1.38-.86-2.45-2.59-2.45-.89,0-1.94.21-3.2.48-1.53.33-2.8.65-4.17.98l-.41-1.58c1.31-.29,2.67-.57,4.17-.87,1.35-.27,2.67-.51,3.67-.51,2.7,0,4.23,1.63,4.23,3.87,0,2.79-2.36,4.67-7.04,5.38l-.92-1.5Z"/>
        <path d="M73.66,261.35c0-1.33.3-4.17.57-6.39l1.53.25c-.52,3.18-.66,5.08-.66,6.48,0,.48.01,1.05.1,1.53.21-.57.54-1.21.83-1.74l.85.87c-.45.81-.6,1.16-.78,1.67-.18.51-.32,1.16-.25,1.71l-1.19.46c-.67-1.35-1-2.82-1-4.84ZM77.31,257.88c1.28.03,2.58.01,3.81-.08-.06-1-.15-2.19-.25-3.48l1.6-.12c.08,1.21.15,2.38.2,3.45.79-.09,1.51-.21,2.17-.36l.18,1.5c-.69.12-1.47.22-2.29.32.02.48.03.94.03,1.36,0,3.72-.53,5.07-2.31,6.55l-1.58-.69c2.22-1.68,2.33-3.44,2.33-6.27,0-.26,0-.54-.02-.84-1.27.08-2.58.11-3.76.09l-.11-1.44Z"/>
        <path d="M87.3,265.83c1.23-2.76,2.1-5.34,2.71-7.94-1.02.08-1.98.12-2.77.15l-.17-1.51c1.04-.03,2.14-.08,3.29-.15.15-.81.3-1.63.42-2.47l1.54.24c-.14.72-.29,1.42-.44,2.11,1.11-.12,2.21-.25,3.27-.46l.24,1.5c-1.18.2-2.53.36-3.85.48-.69,2.92-1.54,5.7-2.71,8.65l-1.53-.6ZM92.53,263.9c0-.55.21-1.23.67-1.89l1.37.43c-.39.45-.57.9-.57,1.21,0,.58.66.92,2.13.92.96,0,1.98-.1,2.79-.28l.3,1.56c-.93.18-2.13.21-2.85.21-2.75,0-3.84-.9-3.84-2.16ZM93.3,259.1c1.71-.29,3.71-.42,5.4-.34l-.19,1.49c-1.63-.09-3.45.03-4.8.27l-.41-1.41Z"/>
        <path d="M103.62,258.42c0-1.29.17-2.5.5-4.14l1.5.36c-.36,1.44-.6,2.99-.6,4.08,0,.3,0,.58.02.84.3-.75.67-1.53.97-2.11l.76,1.03c-.46.77-.78,1.5-.96,2.03-.27.81-.3,1.33-.27,2.07l-1.2.4c-.55-1.57-.72-3.07-.72-4.56ZM105.87,265.91c2.73-1.65,3.96-3.45,3.96-6.75,0-1.19-.12-2.92-.33-4.63l1.59-.2c.18,1.81.27,3.36.27,4.67,0,3.94-1.15,5.94-4,7.83l-1.48-.92Z"/>
        <path d="M115.02,263.97l1.3-1.12c.92.78,1.98,2,2.77,3.13l-1.41,1.25c-.69-1.16-1.64-2.29-2.67-3.25Z"/>
        <path d="M129.93,265.97c1.62-.32,3.08-.79,4.26-1.38h-2.49v-6.04h9.51v6.04h-2.57c1.5.38,2.75.75,4.18,1.32l-1.11,1.2c-1.62-.76-2.99-1.29-4.46-1.7l1.07-.82h-3.98l1.07.82c-1.59.84-3.17,1.49-4.53,1.83l-.96-1.27ZM130.75,254.43h11.38v3.42h-11.38v-3.42ZM134.13,256.88v-1.42h-1.98v1.42h1.98ZM139.75,260.25v-.75h-6.62v.75h6.62ZM139.75,261.9v-.75h-6.62v.75h6.62ZM139.75,263.6v-.81h-6.62v.81h6.62ZM137.41,256.88v-1.42h-2v1.42h2ZM140.76,256.88v-1.42h-2.05v1.42h2.05Z"/>
        <path d="M146.29,263.06c-.33-1.06-.55-2.97-.55-4.71,0-.75.03-1.81.09-2.75l1.59.33c-.09,1.02-.13,1.92-.13,2.88,0,1.64.17,2.81.43,3.67.32,1.02.76,1.64,1.2,1.64.48,0,1.11-1.04,1.51-2.94l1.32,1.11c-.63,2.37-1.7,3.51-2.8,3.51-1.22,0-2.13-1.07-2.66-2.75ZM153.15,257.4l1.14-1.02c1.8,1.65,2.32,3.67,2.71,6.52l-1.54.48c-.35-2.66-.9-4.77-2.31-5.98Z"/>
        <path d="M164.85,265.91c1.11-.61,2.16-1.62,2.99-2.88-.86-1.33-1.62-3.7-1.92-6h-.69v-1.25h-.69v11.28h-1.29v-2.79c-1.32.36-2.76.69-4.14.96l-.43-1.41c.36-.04.74-.1,1.3-.21v-7.83h-1.03v-1.25h6.75v1.14h5l.72.58c-.43,2.76-1.08,4.83-2.02,6.72.72.93,1.71,1.84,2.71,2.5l-.86,1.35c-.9-.63-1.81-1.54-2.59-2.58-.75,1.15-1.75,2.14-2.89,2.82l-.9-1.17ZM163.24,257.45v-1.67h-2v1.67h2ZM163.24,260.27v-1.68h-2v1.68h2ZM163.24,263.04v-1.65h-2v2.03c.99-.17,1.5-.25,2-.38ZM169.8,257.03h-2.55c.22,1.74.73,3.51,1.3,4.63.6-1.31,1.02-2.9,1.25-4.63Z"/>
        <path d="M178.35,264.77c2.99-.32,4.59-1.38,4.59-2.88,0-.95-.64-1.84-1.92-1.84-.67,0-1.5.18-2.46.38-.94.19-2.23.5-3.21.73l-.4-1.41c.96-.21,2.08-.44,3.28-.68,1.05-.21,2.05-.39,2.85-.39,2.17,0,3.42,1.37,3.42,3.13,0,2.31-1.8,3.76-5.28,4.29l-.87-1.33Z"/>
        <path d="M188.52,265.83c1.23-2.76,2.1-5.34,2.71-7.94-1.02.08-1.98.12-2.77.15l-.17-1.51c1.04-.03,2.14-.08,3.29-.15.15-.81.3-1.63.42-2.47l1.54.24c-.14.72-.29,1.42-.44,2.11,1.11-.12,2.21-.25,3.27-.46l.24,1.5c-1.18.2-2.53.36-3.85.48-.69,2.92-1.54,5.7-2.71,8.65l-1.53-.6ZM193.75,263.9c0-.55.21-1.23.67-1.89l1.37.43c-.39.45-.57.9-.57,1.21,0,.58.66.92,2.13.92.96,0,1.98-.1,2.79-.28l.3,1.56c-.93.18-2.13.21-2.85.21-2.75,0-3.84-.9-3.84-2.16ZM194.52,259.1c1.71-.29,3.71-.42,5.4-.34l-.19,1.49c-1.63-.09-3.45.03-4.8.27l-.41-1.41Z"/>
        <path d="M204.84,258.42c0-1.29.17-2.5.5-4.14l1.5.36c-.36,1.44-.6,2.99-.6,4.08,0,.3,0,.58.02.84.3-.75.67-1.53.97-2.11l.76,1.03c-.46.77-.78,1.5-.96,2.03-.27.81-.3,1.33-.27,2.07l-1.2.4c-.55-1.57-.72-3.07-.72-4.56ZM207.09,265.91c2.73-1.65,3.96-3.45,3.96-6.75,0-1.19-.12-2.92-.33-4.63l1.59-.2c.18,1.81.27,3.36.27,4.67,0,3.94-1.15,5.94-4,7.83l-1.48-.92Z"/>
        <path d="M221.04,265.94c1.35-.5,2.59-1.42,3.06-2.49-.32.26-.72.41-1.16.41-1.53,0-2.5-1.14-2.5-2.68,0-1.38,1.11-2.36,2.42-2.36.43,0,.87.15,1.16.35l-.04-1.32c-2.28.09-4.63.2-6.66.29l-.1-1.5c1.99-.04,4.39-.11,6.7-.21l-.08-2.43,1.58.04c-.01.73-.01,1.53-.01,2.32,1.41-.07,2.76-.15,3.92-.24l.09,1.48c-1.19.06-2.57.12-4,.18l.04,2.4c.17.53.22,1.18.22,1.83,0,2.08-.78,3.72-3.39,5.02l-1.23-1.09ZM223.99,261.2c0-.66-.43-1.07-.99-1.07-.68,0-1.1.53-1.1,1.16s.41,1.21,1.07,1.21,1.02-.51,1.02-1.3Z"/>
        <path d="M234.72,264.26c0-1.05.95-1.82,2.23-1.82s2.39.72,3.12,2.01c.72-.48,1.19-1.18,1.19-2.02,0-1.05-1.07-1.91-2.79-1.91-1.1,0-2.42.36-3.42.99-.69.43-1.2.86-1.96,1.63l-1.04-1.12c1.65-1.27,4.05-3.39,6.21-5.82-1.21.21-2.73.34-3.99.41l-.27-1.44c1.72-.03,3.61-.15,5.77-.55l.85,1.05c-1.44,1.54-2.56,2.61-3.91,3.83.69-.21,1.33-.3,1.93-.3,2.52,0,4.16,1.33,4.16,3.2,0,2.4-2.4,4.05-5.24,4.05-1.54,0-2.85-.83-2.85-2.17ZM237.72,265.11c.39,0,.75-.04,1.11-.13-.46-.81-1.11-1.26-1.8-1.26-.51,0-.81.25-.81.58,0,.52.66.81,1.5.81Z"/>
        <path d="M16.21,289.34c0-.96.5-1.79,1.31-2.58l1.27.74c-.76.58-1.05,1.24-1.05,1.77,0,.97,1.02,1.44,3.39,1.44,1.61,0,3.41-.21,4.75-.55l.38,1.59c-1.65.36-3.12.5-4.9.5-3.39,0-5.15-.97-5.15-2.89ZM19.68,284.7c.53-.44.99-.79,1.54-1.17-1.57.08-3.21.1-4.23.08l-.09-1.52c2.64.09,5.54.03,7.71-.22l.3,1.48c-.6.04-1.04.09-1.53.29-.9.36-1.48.84-2.38,1.65l-1.32-.58Z"/>
        <path d="M30.58,289.5c0-1.32,1-2.5,2.88-3.69-.61-1.41-1.3-3.21-1.71-4.98l1.58-.38c.27,1.41.88,3.25,1.44,4.62,1.14-.6,2.5-1.21,4.02-1.84l.69,1.47c-3.94,1.35-7.35,3.1-7.35,4.63,0,.94.79,1.51,2.99,1.51,1.32,0,2.92-.1,4.67-.43l.27,1.6c-1.79.3-3.62.36-4.79.36-3.46,0-4.68-1.16-4.68-2.88Z"/>
        <path d="M46.44,290.27c0-1.41,1.5-2.47,3.67-3.51-.2-.55-.63-.79-1.14-.79-.73,0-1.47.38-2.08.9-.55.47-.79.71-1.47,1.59l-1.17-.87c1.12-1.04,2.08-2.28,2.9-3.88-.96.06-1.88.1-2.69.13l-.15-1.46c1.08,0,2.26-.03,3.48-.1.27-.66.51-1.35.75-2.12l1.46.43c-.2.54-.41,1.05-.63,1.54,1.2-.12,2.4-.3,3.58-.55l.19,1.46c-1.35.21-2.94.39-4.5.54-.27.5-.56.97-.86,1.44.45-.22.93-.36,1.39-.36,1.11,0,1.91.55,2.24,1.51,1.02-.43,2.13-.87,3.27-1.33l.57,1.39c-1.42.48-2.64.9-3.63,1.29.03.45.06.86.06,1.29,0,.6,0,.98-.03,1.4h-1.5c.04-.5.09-1.16.09-1.65v-.42c-1.54.74-2.28,1.38-2.28,2.01s.62,1.07,2.22,1.07c1.15,0,2.65-.18,3.9-.44l.27,1.53c-1.12.17-2.4.31-4.2.31-2.34,0-3.72-.73-3.72-2.35Z"/>
        <path d="M58.2,293.1l-.25-1.46c.41.08.79.12,1.17.12.34,0,.43-.08.43-.42v-2.97c-.55.19-1.06.36-1.68.52l-.39-1.42c.76-.17,1.41-.34,2.07-.54v-2.77h-1.88v-1.32h1.88v-2.77h1.4v2.77h1.48v1.32h-1.48v2.35c.6-.18,1.02-.33,1.53-.51l.11,1.25c-.41.17-1.17.48-1.63.63v4.17c0,.9-.29,1.14-1.29,1.14-.32,0-.58-.01-1.46-.09ZM63.55,285.68c-.38-.17-.54-.51-.54-1.08v-4.29h1.41v2c1.62-.29,3.18-.72,4.44-1.25l1.05,1.16c-1.49.54-3.36.97-5.49,1.26v.56c0,.34.08.46.33.52.18.04,1.07.09,1.91.09,1.77,0,2.25-.06,2.4-.33.11-.18.17-.51.2-1.26l1.37.29c-.05,1.17-.17,1.74-.42,2.07-.35.39-1.04.49-3.65.49-1.95,0-2.64-.06-3-.22ZM63.24,286.73h6.54v6.57h-1.35v-.63h-3.84v.63h-1.35v-6.57ZM68.43,289.08v-1.25h-3.84v1.25h3.84ZM68.43,291.53v-1.33h-3.84v1.33h3.84Z"/>
        <path d="M76.44,292.19c1.35-.5,2.59-1.42,3.06-2.49-.32.26-.72.41-1.16.41-1.53,0-2.5-1.14-2.5-2.68,0-1.38,1.11-2.36,2.42-2.36.43,0,.87.15,1.16.35l-.04-1.32c-2.28.09-4.63.2-6.66.29l-.1-1.5c1.99-.04,4.39-.11,6.7-.21l-.08-2.43,1.58.04c-.01.73-.01,1.53-.01,2.32,1.41-.07,2.76-.15,3.92-.24l.09,1.48c-1.19.06-2.57.12-4,.18l.04,2.4c.17.53.22,1.18.22,1.83,0,2.08-.78,3.72-3.39,5.02l-1.23-1.09ZM79.39,287.45c0-.66-.43-1.07-.99-1.07-.68,0-1.1.53-1.1,1.16s.41,1.21,1.07,1.21,1.02-.51,1.02-1.3Z"/>
        <path d="M92.97,291.33c2.75-.69,4.38-2.37,4.38-4.5s-1.47-3.53-3.6-3.66c-.11,1.7-.38,3.17-.84,4.6-.72,2.25-2,3.48-3.36,3.48s-2.52-1.4-2.52-3.32c0-3.48,2.88-6.21,6.42-6.21,3.25,0,5.49,1.98,5.49,5.08,0,2.69-1.65,4.68-4.74,5.75l-1.23-1.23ZM89.59,289.65c.77,0,1.41-.9,1.88-2.38.41-1.32.65-2.49.74-3.96-2.07.53-3.64,2.42-3.64,4.65,0,.92.49,1.69,1.03,1.69Z"/>
        <path d="M106.32,291.23c0-.66.49-1.23,1.21-1.23s1.21.57,1.21,1.23-.5,1.21-1.21,1.21-1.21-.55-1.21-1.21ZM106.65,281.54h1.76l-.09,7.33h-1.56l-.11-7.33Z"/>
      </g>
      <circle class="cls-9" cx="308.24" cy="290.82" r="30"/>
      <g>
        <g>
          <path class="cls-1" d="M325.7,283.38c1.96.16,1.33,2.32.37,3.57-.2.26-.59.3-.84.08-1.7-1.45-1.11-3.78.47-3.66Z"/>
          <path class="cls-1" d="M325.6,284.24c-.34,0-.62-.28-.62-.62v-3.88l-.98-1.36c-.2-.28-.13-.66.14-.86.28-.2.66-.13.86.14l1.09,1.52c.08.1.12.23.12.36v4.08c0,.34-.28.62-.62.62Z"/>
          <polygon class="cls-5" points="322.67 273.66 316.34 273.07 319.16 278.75 325.6 279.44 322.67 273.66"/>
          <rect class="cls-5" x="315.74" y="276.86" width="6.88" height="2.99" transform="translate(242.34 -138.12) rotate(38.45)"/>
          <path class="cls-1" d="M320.97,282.75c-.13,0-.27-.04-.38-.13-.27-.21-.31-.6-.1-.87l2.32-2.95c.13-.17.34-.25.55-.23l1.17.13-2.27-4.46-4.88-.46.69,1.4c.1.21.08.46-.06.65l-1.87,2.48c-.21.27-.59.33-.86.12-.27-.21-.33-.59-.12-.86l1.64-2.18-1.02-2.05c-.1-.2-.08-.44.04-.62s.34-.29.57-.26l6.32.59c.21.02.4.15.49.34l2.93,5.78c.1.2.09.44-.04.63-.13.19-.35.29-.57.26l-1.97-.21-2.11,2.68c-.12.15-.3.24-.49.24Z"/>
        </g>
        <path class="cls-10" d="M316.14,308.37l1.71-.86,4.59-2.84,2.64-4.39.28-4.79-2.34-9.89-4.79-6.82-5.62-3.02-6.16-.11-6.16,2.16-3.41,3.79-4.85,9.67-1.63,4.07-.28,5.61,3.62,4.23c4.39,3.17,12.82,4.62,22.39,3.2Z"/>
        <path class="cls-12" d="M324.99,297.03c-5.95-1.44-12.03,4.39-11.11,11.55,6.59-1.14,10.95-4.52,11.11-11.55Z"/>
        <ellipse class="cls-1" cx="300.75" cy="295.67" rx="1.91" ry="1.76" transform="translate(-39.44 544.95) rotate(-80.75)"/>
        <ellipse class="cls-1" cx="311.28" cy="296.82" rx="1.76" ry="1.91" transform="translate(-13.1 14.38) rotate(-2.59)"/>
        <path class="cls-12" d="M290.97,294.34c5.2.87,7.66,6.71,5.13,12.44-4.82-3.29-7.39-6.4-5.13-12.44Z"/>
        <path class="cls-1" d="M311.49,309.2c-.33,0-.6-.25-.62-.58-.02-.34.24-.63.58-.65,4.82-.27,12.9-2.05,12.92-10.94,0-1.93-.17-6.91-1.92-11.46-2.11-5.46-5.73-8.5-10.79-9.04-12.14-1.29-14.96,5.89-16.82,10.64-.23.59-.45,1.14-.67,1.63-.21.47-.48,1.01-.76,1.58-1.47,2.98-3.7,7.49-2.19,11.05.9,2.11,3.06,3.71,6.43,4.77,1.39.44,3.2.96,4.76,1.11.34.03.59.33.55.67-.03.34-.34.59-.67.55-1.68-.16-3.56-.71-5.01-1.16-3.72-1.17-6.14-3.01-7.19-5.46-1.74-4.08.64-8.89,2.21-12.08.28-.56.54-1.09.74-1.54.21-.46.42-1,.64-1.58,1.88-4.79,5.03-12.8,18.1-11.41,5.55.59,9.52,3.89,11.81,9.82,1.83,4.74,2.01,9.91,2.01,11.91,0,2.06-.47,5.05-2.62,7.56-2.37,2.76-6.23,4.31-11.47,4.61-.01,0-.02,0-.04,0Z"/>
        <path class="cls-1" d="M299.49,295.03c-.07,0-.13-.02-.19-.07-.78-.62-1.18-1.25-1.48-2.35-.04-.16.05-.33.22-.38.16-.04.33.05.38.22.3,1.1.68,1.56,1.27,2.03.13.11.16.3.05.43-.06.08-.15.12-.24.12Z"/>
        <path class="cls-1" d="M299.29,295.64c-.83,0-1.72-.48-2.42-1.31-.11-.13-.09-.32.03-.44.13-.11.32-.1.44.03.63.74,1.44,1.15,2.12,1.08.17-.02.32.1.34.27.02.17-.1.32-.27.34-.08,0-.15.01-.23.01Z"/>
        <path class="cls-1" d="M312.13,296.24c-.15,0-.28-.11-.31-.27-.02-.17.1-.32.26-.35.68-.09,1.47-.68,1.91-1.43.09-.15.28-.19.42-.11.15.09.2.28.11.42-.54.92-1.49,1.61-2.36,1.73-.01,0-.03,0-.04,0Z"/>
        <path class="cls-1" d="M313.25,297.54c-.38,0-.78-.07-1.16-.25-.16-.07-.22-.25-.15-.41.07-.16.25-.22.41-.15.88.4,1.88.09,2.56-.25.15-.07.34-.01.41.14.08.15.01.34-.14.41-.52.26-1.21.5-1.92.5Z"/>
        <g>
          <path class="cls-3" d="M310.28,302c-.69-1.89-3.76-3.93-5.32-3.7-1.56.22-4.86,2.12-5.88,2.06s-1.74-.75-1.86,1.64,1.75,3.62,4.26,2.74c3.48,1.98,9.99.5,8.8-2.74Z"/>
          <path class="cls-3" d="M310.28,304.14c-.77,3.01-5.09,4.77-6.39,4.32-1.3-.44-4.02-1.68-2.59-4.29,2.58.43,8.21.42,8.33-.81s.65.78.65.78Z"/>
          <path class="cls-1" d="M305.2,306.25c-1.1,0-2.27-.34-3.48-1.02-2.37.67-3.69.04-4.39-.63-.88-.84-1.21-2.18-.86-3.5.35-1.34.95-1.45,1.88-1.47.67-.02,1.67-.04,3.32-.9,3.65-1.92,5.78-.82,7.87,1.43.2.22.19.56-.03.76-.22.2-.56.19-.76-.03-1.84-1.98-3.51-2.82-6.57-1.21-1.87.98-3.07,1.01-3.79,1.02q-.69.02-.86.67c-.24.93-.02,1.89.56,2.45.73.7,1.95.8,3.55.31.15-.05.3-.03.43.05,1.98,1.16,4.81,1.86,7.06-1.42.14-.21.41-.29.65-.19,0,0,.74.3,1.4.44.29.06.47.35.41.64-.06.29-.35.48-.64.41-.42-.09-.86-.24-1.17-.35-1.27,1.68-2.82,2.53-4.56,2.53Z"/>
          <path class="cls-1" d="M304.44,309.02c-.58,0-1.15-.1-1.66-.3-2.67-1.04-2.67-3.69-2.66-3.81,0-.3.25-.53.54-.53h0c.3,0,.54.25.53.55,0,.08.02,2.02,1.98,2.79,1.15.45,2.63.23,3.97-.59,1.48-.9,2.46-2.33,2.61-3.82.03-.3.29-.51.59-.48.3.03.51.3.48.59-.19,1.82-1.36,3.55-3.12,4.63-1.05.64-2.19.97-3.26.97Z"/>
        </g>
        <path class="cls-1" d="M300.81,287.33c1.71-.7,3.25-.04,3.97,1.3.17.31-.15.58-.48.41-1.07-.54-2.13-.81-3.29-1.03-.39-.07-.53-.55-.2-.68Z"/>
        <path class="cls-1" d="M314.39,289.94c-1.26-1.34-2.94-1.38-4.15-.47-.28.21-.11.59.27.58,1.2-.05,2.27.15,3.42.43.38.09.71-.28.47-.54Z"/>
      </g>
    </g>
  </g>
</svg>