<?xml version="1.0" encoding="UTF-8"?>
<svg id="_レイヤー_2" data-name="レイヤー 2" xmlns="http://www.w3.org/2000/svg" width="374" height="77.36" viewBox="0 0 374 77.36">
  <defs>
    <style>
      .cls-1 {
        fill: #fff;
      }

      .cls-2 {
        fill: #9abbbd;
      }

      .cls-3 {
        fill: #739b9e;
      }
    </style>
  </defs>
  <g id="_レイヤー_2-2" data-name="レイヤー 2">
    <g>
      <rect class="cls-2" x="0" y="0" width="374" height="77.36"/>
      <rect class="cls-1" x="7.58" y="14.39" width="358.85" height="51.32" rx="25.57" ry="25.57"/>
      <g>
        <path class="cls-3" d="M123.5,46.48h-1.62v-3.88c0-1.2.03-2.73.07-5.04h-.19c-.22,1.01-.68,3.11-.81,3.66l-1.27,5.25h-1.93l-1.32-5.46c-.24-.97-.42-1.77-.76-3.46h-.2c.07,3.55.08,4.54.08,5.04v3.88h-1.61v-10.52h2.7l1.51,6.44c.15.62.34,1.63.46,2.47h.19q.08-.42.2-1.17c.07-.38.23-1.15.28-1.4l1.46-6.33h2.75v10.52Z"/>
        <path class="cls-3" d="M133.35,41.34c-.24,1.53-.45,2.12-1.04,3.05.43.5.82.68,1.55.69l-.11,1.42h-.3c-.88,0-1.43-.24-2.07-.9-.45.4-.68.57-1.01.73-.46.22-1.03.34-1.63.34-1.03,0-1.78-.27-2.39-.88-.58-.57-.85-1.26-.85-2.12s.27-1.53.84-2.13c.31-.35.66-.62,1.34-1.04-.62-1.01-.78-1.49-.78-2.31,0-1.27.96-2.21,2.27-2.21s2.27.89,2.27,2.15c0,.58-.13,1.08-.41,1.47-.3.42-.69.74-1.57,1.3.77,1.23,1.16,1.78,1.86,2.62.32-.69.45-1.26.54-2.43l1.48.27ZM127.49,42.28c-.31.39-.47.85-.47,1.38,0,1.04.71,1.71,1.81,1.71.68,0,1.12-.19,1.66-.73-.85-1-1.26-1.58-2.17-3.07-.43.3-.62.46-.82.7ZM129.99,38.22c0-.62-.3-.99-.81-.99s-.88.43-.88,1.05c0,.28.07.59.2.85q.07.16.37.68c.84-.54,1.12-.93,1.12-1.59Z"/>
        <path class="cls-3" d="M136.64,46.48h-1.76l3.27-10.52h2.05l3.27,10.52h-1.78l-.89-3.08h-3.25l-.9,3.08ZM140.41,41.92l-.51-1.84c-.08-.27-.27-1.03-.35-1.39q-.2-.8-.3-1.19h-.13c-.32,1.34-.5,2.04-.62,2.47l-.55,1.94h2.47Z"/>
        <path class="cls-3" d="M156.94,37.46c1.82,0,2.97,1.09,2.97,2.85s-1.27,2.78-3.38,2.78c-.46,0-.93-.05-1.11-.12-.11-.04-.16-.11-.19-.23-.1-.45-.27-.88-.59-1.42.84.2,1.35.28,1.92.28,1.09,0,1.74-.5,1.74-1.36,0-.34-.09-.68-.23-.86-.24-.34-.77-.55-1.38-.55-.77,0-1.84.34-4.07,1.3q.85,2.12,1.32,3.42c.57,1.53,1.04,2.9,1.04,3.02,0,.11-.08.18-.35.3-.39.18-.89.34-1.07.34-.13,0-.15-.03-.28-.53-.62-2.27-1.17-3.92-2-5.93-1.03.47-1.51.74-1.8,1.01-.08.07-.16.11-.26.11-.18,0-.34-.14-.59-.5-.27-.38-.38-.58-.61-1.01.86-.24,1.42-.43,2.69-.96-.7-1.61-.8-1.8-1.32-2.47.86-.34,1.35-.49,1.66-.49.28,0,.35.08.39.45.04.38.07.51.23.89.01.03.14.31.42,1.04,1.19-.49,1.61-.65,2.5-.93-.05-.03-.07-.04-.11-.09-.46-.59-.74-.89-1.34-1.39-.03-.05-.04-.08-.04-.12q0-.08.46-.49c.18-.16.45-.32.53-.32.07,0,.13.03.22.08.82.62,1.39,1.19,1.39,1.42,0,.11-.41.55-.73.8.74-.2,1.39-.3,1.96-.3Z"/>
        <path class="cls-3" d="M168.75,35.46c.55.86,1.2,1.54,2.2,2.31,1,.76,2.08,1.36,3.27,1.85-.3.42-.49.8-.72,1.43-1.11-.5-2.28-1.22-3.19-1.96-1.03-.82-1.57-1.38-2.28-2.32-.7.96-1.2,1.47-2.13,2.27-1,.85-2.07,1.55-3.23,2.12-.23-.59-.38-.88-.73-1.38,1.12-.49,2.2-1.15,3.19-1.97.91-.73,1.57-1.47,2.12-2.35h1.5ZM169.03,45.51h3.23c.72,0,1.23-.03,1.63-.08v1.54c-.42-.05-.95-.08-1.63-.08h-8.43c-.73,0-1.26.03-1.67.08v-1.54c.35.05.84.08,1.54.08h.58v-3.11c0-.61-.01-1.01-.07-1.49h1.58c-.05.39-.08.84-.08,1.49v3.11h1.88v-5.28c0-.65-.01-1-.08-1.44h1.61c-.05.39-.08.76-.08,1.4v1.28h2.15c.61,0,1.05-.03,1.42-.07v1.51c-.4-.05-.8-.07-1.4-.07h-2.16v2.66Z"/>
        <path class="cls-3" d="M177.82,40.54c-.61,0-.89.01-1.32.05v-1.23c.37.04.69.05,1.32.05h1.58c-.22-.49-.34-.72-.49-.97h-1.39c-.62,0-1.13.03-1.54.07v-1.3c.41.05.81.08,1.47.08h.42c-.24-.45-.4-.66-.88-1.2l1.3-.49c.43.59.61.89,1,1.69h.73v-.9c0-.39-.03-.76-.07-1.01h1.4c-.03.24-.04.53-.04.96v.96h.96v-.96c0-.41-.01-.69-.05-.96h1.42c-.04.24-.07.61-.07,1.01v.9h.81c.45-.62.7-1.09.93-1.72l1.32.49c-.28.49-.53.86-.8,1.23h.36c.68,0,1.08-.03,1.47-.08v1.3c-.41-.04-.92-.07-1.54-.07h-1.31c-.22.49-.31.69-.47.97h1.5c.63,0,.96-.01,1.34-.05v1.23c-.42-.04-.72-.05-1.34-.05h-3.39v.62h2.73c.57,0,.97-.01,1.32-.05v1.13c-.34-.04-.76-.05-1.32-.05h-2.73v.65h3.63c.73,0,1.19-.03,1.55-.08v1.3c-.47-.05-.95-.08-1.54-.08h-2.61c.43.38,1.03.72,1.75,1.04.82.34,1.53.54,2.7.74-.36.49-.53.77-.74,1.32-2.17-.59-3.65-1.38-4.79-2.58.03.46.03.62.03.92v.65c0,.55.03.95.08,1.31h-1.53c.05-.38.08-.8.08-1.32v-.62c0-.3,0-.41.03-.89-.59.63-1.07,1-1.86,1.43-.82.46-1.63.8-2.65,1.09-.19-.45-.45-.84-.78-1.26,1.88-.39,3.19-.96,4.24-1.84h-2.4c-.63,0-1.09.03-1.58.08v-1.3c.4.05.85.08,1.57.08h3.43v-.65h-2.57c-.57,0-.99.01-1.32.05v-1.13c.35.04.74.05,1.32.05h2.57v-.62h-3.25ZM182.91,39.42c.19-.35.31-.62.43-.97h-2.96c.18.38.27.62.39.97h2.13Z"/>
        <path class="cls-3" d="M192.4,45.16c-.54,0-.95.01-1.39.05.04-.36.05-.81.05-1.53v-2.98c0-.63-.01-1.07-.05-1.46.41.03.69.04,1.35.04h6.58c.76,0,1.05-.01,1.43-.04-.04.42-.05.78-.05,1.47v3.01c0,.72.01,1.19.05,1.49-.42-.04-.82-.05-1.38-.05h-.96c.92.51,2.13.84,3.71,1.01-.3.39-.46.68-.7,1.27-1.16-.18-1.73-.32-2.55-.65-.78-.32-1.21-.54-1.9-1l.77-.63h-3.63l.81.63c-.63.47-1.04.7-1.77,1-.82.34-1.39.5-2.38.69-.16-.46-.36-.76-.78-1.19,1.66-.26,2.82-.63,3.55-1.13h-.76ZM201.09,37.79c0,.49.01.73.05,1.04-.32-.03-.65-.04-1.34-.04h-8.28c-.65,0-1.07.01-1.35.04.04-.32.05-.55.05-1.04v-1.01c0-.5-.01-.73-.05-1.09.36.04.73.05,1.46.05h8.05c.73,0,1.09-.01,1.46-.05-.04.35-.05.59-.05,1.09v1.01ZM193.37,36.84h-1.8v.84h1.8v-.84ZM192.47,40.93h6.44v-.57h-6.44v.57ZM192.47,42.47h6.44v-.55h-6.44v.55ZM192.47,44.06h6.44v-.61h-6.44v.61ZM196.48,36.84h-1.8v.84h1.8v-.84ZM199.72,37.68v-.84h-1.93v.84h1.93Z"/>
        <path class="cls-3" d="M205.66,43.12c.61-.22.85-.3,1.31-.49v-5.74c0-.65-.03-.99-.08-1.5h1.55c-.07.45-.08.84-.08,1.5v9.16c.65-.38.86-.54,1.39-1.01.59-.54,1-1,1.43-1.57-1-1.65-1.47-3.25-1.84-6.09-.34.01-.45.03-.66.05v-1.46c.42.05.8.08,1.35.08h4c.39,0,.7-.01,1.04-.05q-.03.16-.07.49c-.32,2.84-1,5-2.13,6.94.96,1.11,1.59,1.66,2.85,2.43-.35.53-.49.8-.73,1.44-1.16-.78-2.23-1.73-2.97-2.63-.89,1.15-1.74,1.94-2.89,2.71-.16-.46-.34-.74-.77-1.23.01.49.03.76.08,1.12h-1.55c.05-.51.08-.84.08-1.5v-1.81c-.78.32-1.73.68-2.66,1-.27.09-.34.12-.59.22l-.27-1.49c.39-.07.53-.11.85-.18v-5.43c0-.65-.03-1.01-.08-1.49h1.51c-.05.46-.07.8-.07,1.49v5.02ZM210.68,37.38c.18,1.34.22,1.51.39,2.24.24,1.04.51,1.78.92,2.52.78-1.51,1.17-2.82,1.43-4.77h-2.74Z"/>
        <path class="cls-3" d="M220.68,40.35c1.7-.47,2.93-.69,3.85-.69,1.9,0,3.08,1.04,3.08,2.73,0,1.01-.42,1.9-1.22,2.58-.53.45-1.31.82-2.35,1.13-.58.16-1.2.28-1.47.28-.16,0-.24-.04-.3-.18-.19-.47-.41-.81-.69-1.09,2.97-.31,4.48-1.26,4.48-2.8,0-.78-.65-1.39-1.48-1.39-1.46,0-3.05.49-4.73,1.42-.13.07-.22.11-.27.11-.23,0-.61-.67-.92-1.65.66-.09.89-.15,2.01-.46Z"/>
        <path class="cls-3" d="M233.63,39.07c-.35.08-.47.12-.96.3-.18.07-.27.09-.35.09-.3,0-.57-.55-.81-1.72.86-.04,1.17-.08,2.67-.31,1.62-.24,3.67-.55,4.75-.69,1.22-.16,2.19-.32,2.7-.43.09-.03.13-.03.2-.03.17,0,.24.08.36.42.11.28.19.69.19.88,0,.16-.05.22-.24.22-.28,0-.54.03-.8.07-2.28.38-4.11,2.38-4.11,4.48,0,1.58,1.24,2.62,3.35,2.81.19.01.26.08.26.24,0,.34-.13.99-.26,1.28-.07.15-.18.22-.35.22s-.58-.08-1-.2c-2.29-.67-3.5-2.13-3.5-4.2,0-1.12.36-2.16,1.07-3.05.38-.49.7-.76,1.47-1.28-1.77.3-3.63.65-4.66.9Z"/>
        <path class="cls-3" d="M249.18,39.88c-.18-.59-.23-.96-.39-2.62-.05-.65-.11-.97-.24-1.43.82.01,1.35.05,1.71.15.2.05.3.15.3.3,0,.05-.01.12-.04.23-.09.32-.13.57-.13.92,0,.66.13,1.74.28,2.21.08.26.16.35.31.35.32,0,1.51-.62,2.16-1.12.17-.14.2-.15.27-.15.12,0,.24.09.45.35.34.46.61.96.61,1.15,0,.15-.09.24-.32.31-.84.23-2.21.77-3.15,1.22-1.65.81-2.39,1.55-2.39,2.39s.69,1.16,2.43,1.16c1.01,0,1.93-.09,3.17-.3.05-.01.15-.03.18-.03.11,0,.17.05.23.16.04.14.14.96.14,1.28,0,.19-.05.26-.23.31-.3.07-1.93.16-2.96.16-1.73,0-2.88-.23-3.59-.72-.61-.42-.93-1.08-.93-1.89,0-.62.17-1.17.54-1.71.47-.7.99-1.15,2.12-1.82-.28-.26-.39-.45-.51-.86ZM254.08,36.85c.11-.08.18-.11.26-.11.19,0,1.36,1.24,1.36,1.44,0,.08-.11.2-.36.42-.27.23-.3.24-.36.24-.08,0-.09,0-.35-.38-.27-.38-.65-.81-.93-1.05-.04-.04-.07-.08-.07-.12,0-.07.12-.19.46-.45ZM257.01,37.22c0,.08-.04.13-.2.27-.19.16-.45.34-.5.34-.08,0-.11-.04-.27-.26-.31-.45-.5-.66-.99-1.11-.05-.05-.07-.08-.07-.12,0-.12.51-.51.67-.51.23,0,1.35,1.15,1.35,1.39Z"/>
        <path class="cls-3" d="M263.22,39.05c.88-.23,1.46-.31,2.09-.31,1.92,0,3.03,1.13,3.03,3.08,0,1.69-.73,3.05-2.2,4.13-.78.58-1.97,1.16-2.36,1.16-.18,0-.22-.04-.5-.45-.2-.31-.41-.5-.74-.74,1.55-.53,2.2-.86,2.9-1.47.81-.72,1.22-1.58,1.22-2.61,0-1.09-.51-1.71-1.42-1.71-.73,0-1.67.28-2.9.88-.18.08-.27.15-.5.31-.05.03-.11.05-.16.05-.26,0-.69-.76-.99-1.77.5-.04.76-.11,2.54-.55ZM264.12,35.76c.49.15,1.22.28,1.88.36.27.03.36.04,1.05.07.2,0,.26.05.26.2,0,.45-.09,1.17-.18,1.31-.03.08-.09.11-.19.11-.31,0-1.4-.15-2.04-.28-1.07-.22-2-.49-2.19-.63-.04-.04-.07-.09-.07-.15,0-.11.28-.84.42-1.09.07-.11.11-.14.19-.14q.07,0,.86.24Z"/>
        <path class="cls-3" d="M273.67,38.22c0-.39-.01-.92-.04-1.22.62.07,1.08.16,1.45.3.32.12.43.2.43.35q0,.08-.05.22c-.18.46-.23.97-.23,2.2,0,1.73.11,2.81.38,3.63.2.63.51,1,.88,1,.55,0,1.01-.65,1.51-2.15.26.69.35.89.73,1.38.07.09.11.19.11.28,0,.22-.2.68-.47,1.07-.53.77-1.2,1.19-1.92,1.19-1.04,0-1.82-.84-2.31-2.5-.31-1.08-.46-2.44-.46-4.33v-1.42ZM281.7,38.43c.08,0,.15.04.26.13.67.65,1.38,1.73,1.82,2.78.3.72.58,1.67.58,1.96,0,.13-.07.2-.35.35-.31.16-.95.38-1.11.38-.12,0-.18-.07-.22-.31-.18-1.04-.42-1.8-.84-2.67-.38-.78-.41-.82-1.32-1.96.57-.42,1.01-.66,1.17-.66Z"/>
        <path class="cls-3" d="M290.9,39.05c.88-.23,1.46-.31,2.09-.31,1.92,0,3.02,1.13,3.02,3.08,0,1.69-.73,3.05-2.2,4.13-.78.58-1.97,1.16-2.36,1.16-.18,0-.22-.04-.5-.45-.2-.31-.41-.5-.74-.74,1.55-.53,2.2-.86,2.9-1.47.81-.72,1.21-1.58,1.21-2.61,0-1.09-.51-1.71-1.42-1.71-.73,0-1.67.28-2.9.88-.18.08-.27.15-.5.31-.05.03-.11.05-.16.05-.26,0-.69-.76-.99-1.77.5-.04.76-.11,2.54-.55ZM291.8,35.76c.49.15,1.22.28,1.88.36.27.03.37.04,1.05.07.2,0,.26.05.26.2,0,.45-.09,1.17-.18,1.31-.03.08-.09.11-.19.11-.31,0-1.4-.15-2.04-.28-1.07-.22-2-.49-2.19-.63-.04-.04-.07-.09-.07-.15,0-.11.28-.84.42-1.09.07-.11.11-.14.19-.14q.07,0,.86.24Z"/>
        <path class="cls-3" d="M306.87,44.67c1.11,0,2.34-.16,3.55-.47.07-.03.11-.03.15-.03.08,0,.12.05.15.18.04.3.07.73.07,1.17,0,.27-.03.35-.15.41-.4.22-2.23.42-3.79.42-2.04,0-3.2-.34-4.13-1.22-.45-.42-.89-1.15-.89-1.44,0-.2.12-.28,1.23-.92.49,1.34,1.61,1.9,3.82,1.9ZM306.99,36.91c.78,0,1.24-.03,2.16-.16h.09c.11,0,.15.04.18.12.03.16.05.57.05,1.05,0,.31-.03.42-.11.47-.11.07-1.28.15-2.19.15-1.2,0-2.2-.09-3.32-.31-.77-.15-.81-.19-.81-.66,0-.31.03-.82.07-1.2,1.17.36,2.46.54,3.88.54Z"/>
        <path class="cls-3" d="M318.37,39.88c-.18-.59-.23-.96-.39-2.62-.05-.65-.11-.97-.24-1.43.82.01,1.35.05,1.71.15.2.05.3.15.3.3,0,.05-.01.12-.04.23-.09.32-.13.57-.13.92,0,.66.13,1.74.28,2.21.08.26.16.35.31.35.32,0,1.51-.62,2.16-1.12.17-.14.2-.15.27-.15.12,0,.24.09.45.35.34.46.61.96.61,1.15,0,.15-.09.24-.32.31-.84.23-2.21.77-3.15,1.22-1.65.81-2.39,1.55-2.39,2.39s.69,1.16,2.43,1.16c1.01,0,1.93-.09,3.17-.3.05-.01.15-.03.18-.03.11,0,.17.05.23.16.04.14.14.96.14,1.28,0,.19-.05.26-.23.31-.3.07-1.93.16-2.96.16-1.73,0-2.88-.23-3.59-.72-.61-.42-.93-1.08-.93-1.89,0-.62.17-1.17.54-1.71.47-.7.99-1.15,2.12-1.82-.28-.26-.39-.45-.51-.86Z"/>
        <path class="cls-3" d="M330.61,38.06c.31-.81.61-1.24,1.12-1.67.62-.51,1.36-.76,2.31-.76,2.03,0,3.32,1.11,3.32,2.84,0,.58-.16,1.13-.47,1.58-.24.35-.35.46-1.11,1.15-1.05.95-1.28,1.31-1.28,2.03v.72h-1.38v-.76c0-.61.12-1.15.36-1.58.19-.34.39-.57.93-1.11.57-.55.74-.76.89-1,.19-.27.3-.65.3-1.01,0-.9-.61-1.47-1.57-1.47s-1.53.5-1.93,1.67l-1.5-.62ZM334.92,45.93c0,.59-.47,1.07-1.07,1.07s-1.07-.47-1.07-1.07.47-1.07,1.07-1.07,1.07.47,1.07,1.07Z"/>
      </g>
      <g>
        <g>
          <path class="cls-3" d="M43.05,35.58c.02-1.97.63-3.49,1.83-4.55,1.13-1.05,2.47-1.58,4.03-1.58s2.98.53,4.11,1.58c1.15,1.06,1.74,2.58,1.77,4.56v9.42c-.04,1.96-.63,3.48-1.77,4.54-1.13,1.05-2.5,1.59-4.11,1.61-1.56-.02-2.91-.56-4.03-1.61-1.2-1.06-1.81-2.57-1.83-4.53v-9.44ZM51.84,35.77c-.06-2.14-1.03-3.23-2.92-3.27-1.9.04-2.87,1.13-2.91,3.27v9.07c.04,2.16,1.01,3.25,2.91,3.27,1.89-.02,2.87-1.11,2.92-3.27v-9.07Z"/>
          <path class="cls-3" d="M57.43,48.12l8.09-10.45c.31-.42.53-.81.64-1.17.08-.34.11-.67.11-.97,0-.8-.24-1.5-.73-2.1-.5-.6-1.21-.9-2.13-.92-.82,0-1.5.27-2.04.81-.56.54-.89,1.3-1,2.28h-2.96c.08-1.77.65-3.24,1.73-4.4,1.09-1.13,2.43-1.71,4.02-1.73,1.78.02,3.22.61,4.33,1.76,1.13,1.14,1.7,2.6,1.72,4.35,0,1.41-.42,2.66-1.25,3.75l-6.66,8.62h7.91v3.05h-11.8v-2.87Z"/>
        </g>
        <path class="cls-3" d="M33.72,42.84c-.76.79-1.8,1.41-3.01,1.81-.17-.32-.31-.52-.56-.82,1.2-.29,2.21-.79,2.94-1.47h-1.5c-.05.18-.06.22-.13.43l-1.01-.02c.24-.56.38-1.02.49-1.58.08-.39.14-.77.14-.95.17.02.4.03.82.03h1.78l-.02-.58h-1.93c-.34,0-.56,0-.8.04v-.83c-.1.08-.13.12-.26.23-.17-.29-.35-.5-.56-.69.74-.57,1.16-1.12,1.35-1.76l.93.17c-.11.23-.14.29-.25.47h1.11c.41,0,.64-.02.85-.04v.7c.34-.4.55-.78.7-1.3l.92.16q-.07.17-.22.49h1.65c.46,0,.67,0,.95-.05v.9c-.26-.04-.52-.05-.9-.05h-.68c.23.33.23.35.38.59l-.71.2h.41c.43,0,.59,0,.81-.03-.03.16-.04.3-.04.61v.91c0,.31,0,.45.04.63-.2-.02-.47-.03-.81-.03h-1.99v.57h2.47c.33,0,.52,0,.74-.03-.02.11-.02.17-.03.26t-.03.26s-.02.22-.05.55c-.09.86-.14,1.07-.31,1.27-.17.2-.43.26-1.02.26-.25,0-.43,0-.8-.03-.05-.36-.11-.56-.22-.85.33.04.74.08.95.08.47,0,.49-.05.55-1.01h-2.22l.02,1.45c0,.46.02.68.06.95h-1.02c.04-.25.05-.4.05-.75v-.22l-.02-.96ZM32.48,38.94c-.11-.29-.22-.5-.39-.8h-.48c-.21.29-.4.5-.68.77.21.03.38.04.79.04h.75ZM33.69,41.04h-1.77c-.03.19-.04.21-.12.57h1.9v-.57ZM34.18,38.94c-.13-.16-.31-.33-.56-.51.15-.12.2-.15.32-.27-.15,0-.32-.02-.49-.02h-.48c.11.17.17.26.34.58l-.71.22h1.58ZM36.01,38.94c-.1-.22-.26-.51-.44-.79h-.53c-.23.33-.42.55-.69.79h1.67ZM34.59,40.28h1.87v-.58h-1.88v.58Z"/>
        <path class="cls-3" d="M80.29,44.74v-.47h-5.38v.47h-1.01c.04-.28.05-.64.05-1.12v-5.46c0-.42-.02-.69-.05-1.04.32.04.59.05,1.02.05h5.36c.42,0,.7,0,1.02-.05-.04.32-.04.6-.04,1.04v5.47c0,.47.02.89.04,1.11h-1ZM74.91,43.42h5.38v-5.39h-5.38v5.39ZM78.51,39.01c.38,0,.6,0,.83-.03-.02.21-.03.41-.03.68v2.06c0,.29,0,.47.03.68-.26-.02-.47-.03-.83-.03h-1.85c-.43,0-.57,0-.84.03.03-.23.04-.42.04-.68v-2.06c0-.25,0-.45-.04-.68.22.02.46.03.84.03h1.85ZM76.77,41.58h1.63v-1.76h-1.63v1.76Z"/>
      </g>
      <rect class="cls-2" x="95.06" y="32.52" width="1.42" height="15.06"/>
    </g>
  </g>
</svg>